<svg preserveAspectRatio="xMidYMid meet" viewBox='0 0 1443.75 568.75' xmlns="http://www.w3.org/2000/svg" version="1.1" >
	<style>
			.path {
			animation: draw 5s infinite;
			animation-timing-function: linear;
			animation-delay: 0s
		}


	@keyframes draw {
		0% {
		}
		100% {
			stroke-dashoffset: 0;
			stroke-opacity: 1;
  }
		</style>
	<defs>
		<linearGradient id="linear" x1="0%" y1="0%" x2="100%" y2="0%">
			<stop offset="0%"   stopColor="#148BB1"/>
			<stop offset="100%" stopColor="#DBE2E8"/>
		</linearGradient>
		<linearGradient id="logoGradient" x1="0%" y1="0%" x2="100%" y2="0%" >
			<stop offset="0%"   stopColor="transparent"/>
			<stop offset="20%"   stopColor="#374151"/>
			<stop offset="80%" stopColor="#374151"/>
			<stop offset="100%" stopColor="transparent"/>
		</linearGradient>
	</defs> purple
	<g fill="none" >
		<rect width="1443.75" height="568.75" x="0" y="0" fill="#374151"></rect>
		<g stroke="skyblue" fill='skyblue'>
			<path d="M12.5 62.5L362.5 62.5L412.5 12.5L487.5 12.5" fill="none" strokeWidth="4.17" strokeOpacity="1" stroke-Dasharray="8,960,24,960,16,400" stroke-Dashoffset='6400' stroke-Linecap="butt"></path>
			<path d="M6.25 62.5 a6.25 6.25 0 1 0 12.5 0 a6.25 6.25 0 1 0 -12.5 0zM481.25 12.5 a6.25 6.25 0 1 0 12.5 0 a6.25 6.25 0 1 0 -12.5 0z" fill='none' class='redondito'></path>
			<path d="M1187.5 287.5L1237.5 287.5L1262.5 312.5L1262.5 362.5L1137.5 487.5L912.5 487.5" fill='none' strokeWidth="4.17" ></path>
			<path d="M1181.25 287.5 a6.25 6.25 0 1 0 12.5 0 a6.25 6.25 0 1 0 -12.5 0zM906.25 487.5 a6.25 6.25 0 1 0 12.5 0 a6.25 6.25 0 1 0 -12.5 0z" fill='none' class='redondito'></path>
			<path d="M1337.5 312.5L1337.5 562.5" fill='none' strokeWidth="4.17"></path>
			<path d="M1331.25 312.5 a6.25 6.25 0 1 0 12.5 0 a6.25 6.25 0 1 0 -12.5 0zM1331.25 562.5 a6.25 6.25 0 1 0 12.5 0 a6.25 6.25 0 1 0 -12.5 0z" fill='none' class='redondito'></path>
			<path d="M512.5 137.5L537.5 112.5L762.5 112.5L987.5 337.5" fill='none' strokeWidth="4.17"></path>
			<path d="M506.25 137.5 a6.25 6.25 0 1 0 12.5 0 a6.25 6.25 0 1 0 -12.5 0zM981.25 337.5 a6.25 6.25 0 1 0 12.5 0 a6.25 6.25 0 1 0 -12.5 0z" fill='none' class='redondito'></path>
			<path d="M762.5 162.5L787.5 162.5L862.5 237.5L862.5 437.5L737.5 562.5L687.5 562.5" fill='none' strokeWidth="4.17"></path>
			<path d="M756.25 162.5 a6.25 6.25 0 1 0 12.5 0 a6.25 6.25 0 1 0 -12.5 0zM681.25 562.5 a6.25 6.25 0 1 0 12.5 0 a6.25 6.25 0 1 0 -12.5 0z" fill='none' class='redondito'></path>
			<path d="M387.5 162.5L412.5 137.5L412.5 87.5L462.5 37.5L812.5 37.5" fill='none' strokeWidth="4.17"></path>
			<path d="M381.25 162.5 a6.25 6.25 0 1 0 12.5 0 a6.25 6.25 0 1 0 -12.5 0zM806.25 37.5 a6.25 6.25 0 1 0 12.5 0 a6.25 6.25 0 1 0 -12.5 0z" fill='none' class='redondito'></path>
			<path d="M687.5 537.5L437.5 537.5L412.5 562.5L237.5 562.5L212.5 537.5" fill='none' strokeWidth="4.17"></path>
			<path d="M681.25 537.5 a6.25 6.25 0 1 0 12.5 0 a6.25 6.25 0 1 0 -12.5 0zM206.25 537.5 a6.25 6.25 0 1 0 12.5 0 a6.25 6.25 0 1 0 -12.5 0z" fill='none' class='redondito'></path>
			<path d="M337.5 262.5L337.5 112.5L412.5 37.5L437.5 37.5" fill='none' strokeWidth="4.17"></path>
			<path d="M331.25 262.5 a6.25 6.25 0 1 0 12.5 0 a6.25 6.25 0 1 0 -12.5 0zM431.25 37.5 a6.25 6.25 0 1 0 12.5 0 a6.25 6.25 0 1 0 -12.5 0z" fill='none' class='redondito'></path>
			<path d="M112.5 187.5L437.5 512.5L587.5 512.5" fill='none' strokeWidth="4.17"></path>
			<path d="M106.25 187.5 a6.25 6.25 0 1 0 12.5 0 a6.25 6.25 0 1 0 -12.5 0zM581.25 512.5 a6.25 6.25 0 1 0 12.5 0 a6.25 6.25 0 1 0 -12.5 0z" fill='none' class='redondito'></path>
			<path d="M762.5 337.5L762.5 187.5L712.5 137.5L662.5 137.5L437.5 362.5" fill='none' strokeWidth="4.17"></path>
			<path d="M756.25 337.5 a6.25 6.25 0 1 0 12.5 0 a6.25 6.25 0 1 0 -12.5 0zM431.25 362.5 a6.25 6.25 0 1 0 12.5 0 a6.25 6.25 0 1 0 -12.5 0z" fill='none' class='redondito'></path>
			<path d="M1437.5 262.5L962.5 262.5" fill='none' strokeWidth="4.17"></path>
			<path d="M1431.25 262.5 a6.25 6.25 0 1 0 12.5 0 a6.25 6.25 0 1 0 -12.5 0zM956.25 262.5 a6.25 6.25 0 1 0 12.5 0 a6.25 6.25 0 1 0 -12.5 0z" fill='none' class='redondito'></path>
			<path d="M137.5 512.5L187.5 562.5L212.5 562.5" fill='none' strokeWidth="4.17"></path>
			m1212		<path d="M131.25 512.5 a6.25 6.25 0 1 0 12.5 0 a6.25 6.25 0 1 0 -12.5 0zM206.25 562.5 a6.25 6.25 0 1 0 12.5 0 a6.25 6.25 0 1 0 -12.5 0z" fill='none' class='redondito'></path>
			<path d="M937.5 362.5L937.5 312.5L887.5 262.5" fill='none' strokeWidth="4.17"></path>
			<path d="M931.25 362.5 a6.25 6.25 0 1 0 12.5 0 a6.25 6.25 0 1 0 -12.5 0zM881.25 262.5 a6.25 6.25 0 1 0 12.5 0 a6.25 6.25 0 1 0 -12.5 0z" fill='none' class='redondito'></path>
			<path d="M62.5 37.5L362.5 37.5L387.5 12.5" fill='none' strokeWidth="4.17"></path>
			<path d="M56.25 37.5 a6.25 6.25 0 1 0 12.5 0 a6.25 6.25 0 1 0 -12.5 0zM381.25 12.5 a6.25 6.25 0 1 0 12.5 0 a6.25 6.25 0 1 0 -12.5 0z" fill='none' class='redondito'></path>
			<path d="M1287.5 437.5L1162.5 562.5L987.5 562.5L937.5 512.5L812.5 512.5" fill='none' strokeWidth="4.17"></path>
			<path d="M1281.25 437.5 a6.25 6.25 0 1 0 12.5 0 a6.25 6.25 0 1 0 -12.5 0zM806.25 512.5 a6.25 6.25 0 1 0 12.5 0 a6.25 6.25 0 1 0 -12.5 0z" fill='none' class='redondito'></path>
			<path d="M812.5 112.5L862.5 162.5L862.5 187.5L937.5 262.5" fill='none' strokeWidth="4.17"></path>
			<path d="M806.25 112.5 a6.25 6.25 0 1 0 12.5 0 a6.25 6.25 0 1 0 -12.5 0zM931.25 262.5 a6.25 6.25 0 1 0 12.5 0 a6.25 6.25 0 1 0 -12.5 0z" fill='none' class='redondito'></path>
			<path d="M212.5 487.5L212.5 412.5L12.5 212.5L12.5 87.5" fill='none' strokeWidth="4.17"></path>
			<path d="M206.25 487.5 a6.25 6.25 0 1 0 12.5 0 a6.25 6.25 0 1 0 -12.5 0zM6.25 87.5 a6.25 6.25 0 1 0 12.5 0 a6.25 6.25 0 1 0 -12.5 0z" fill='none' class='redondito'></path>
			<path d="M1012.5 37.5L887.5 162.5L887.5 187.5L937.5 237.5L1212.5 237.5" fill='none' strokeWidth="4.17"></path>
			<path d="M1006.25 37.5 a6.25 6.25 0 1 0 12.5 0 a6.25 6.25 0 1 0 -12.5 0zM1206.25 237.5 a6.25 6.25 0 1 0 12.5 0 a6.25 6.25 0 1 0 -12.5 0z" fill='none' class='redondito'></path>
			<path d="M437.5 387.5L662.5 162.5L712.5 162.5L737.5 187.5L737.5 287.5L662.5 362.5" fill='none' strokeWidth="4.17"></path>
			<path d="M431.25 387.5 a6.25 6.25 0 1 0 12.5 0 a6.25 6.25 0 1 0 -12.5 0zM656.25 362.5 a6.25 6.25 0 1 0 12.5 0 a6.25 6.25 0 1 0 -12.5 0z" fill='none' class='redondito'></path>
			<path d="M687.5 387.5L837.5 387.5" fill='none' strokeWidth="4.17"></path>
			<path d="M681.25 387.5 a6.25 6.25 0 1 0 12.5 0 a6.25 6.25 0 1 0 -12.5 0zM831.25 387.5 a6.25 6.25 0 1 0 12.5 0 a6.25 6.25 0 1 0 -12.5 0z" fill='none' class='redondito'></path>
			<path d="M412.5 287.5L437.5 312.5L437.5 337.5L362.5 412.5" fill='none' strokeWidth="4.17"></path>
			<path d="M406.25 287.5 a6.25 6.25 0 1 0 12.5 0 a6.25 6.25 0 1 0 -12.5 0zM356.25 412.5 a6.25 6.25 0 1 0 12.5 0 a6.25 6.25 0 1 0 -12.5 0z" fill='none' class='redondito'></path>
			<path d="M37.5 537.5L37.5 262.5L12.5 237.5" fill='none' strokeWidth="4.17"></path>
			<path d="M31.25 537.5 a6.25 6.25 0 1 0 12.5 0 a6.25 6.25 0 1 0 -12.5 0zM6.25 237.5 a6.25 6.25 0 1 0 12.5 0 a6.25 6.25 0 1 0 -12.5 0z" fill='none' class='redondito'></path>
			<path d="M962.5 137.5L962.5 112.5L1062.5 12.5L1137.5 12.5L1287.5 162.5L1287.5 237.5" fill='none' strokeWidth="4.17"></path>
			<path d="M956.25 137.5 a6.25 6.25 0 1 0 12.5 0 a6.25 6.25 0 1 0 -12.5 0zM1281.25 237.5 a6.25 6.25 0 1 0 12.5 0 a6.25 6.25 0 1 0 -12.5 0z" fill='none' class='redondito'></path>
			<path d="M1387.5 512.5L1437.5 562.5" fill='none' strokeWidth="4.17"></path>
			<path d="M1381.25 512.5 a6.25 6.25 0 1 0 12.5 0 a6.25 6.25 0 1 0 -12.5 0zM1431.25 562.5 a6.25 6.25 0 1 0 12.5 0 a6.25 6.25 0 1 0 -12.5 0z" fill='none' class='redondito'></path>
			<path d="M487.5 187.5L487.5 287.5L462.5 312.5" fill='none' strokeWidth="4.17"></path>
			<path d="M481.25 187.5 a6.25 6.25 0 1 0 12.5 0 a6.25 6.25 0 1 0 -12.5 0zM456.25 312.5 a6.25 6.25 0 1 0 12.5 0 a6.25 6.25 0 1 0 -12.5 0z" fill='none' class='redondito'></path>
			<path d="M287.5 212.5L312.5 187.5L312.5 87.5" fill='none' strokeWidth="4.17"></path>
			<path d="M281.25 212.5 a6.25 6.25 0 1 0 12.5 0 a6.25 6.25 0 1 0 -12.5 0zM306.25 87.5 a6.25 6.25 0 1 0 12.5 0 a6.25 6.25 0 1 0 -12.5 0z" fill='none' class='redondito'></path>
			<path d="M137.5 362.5L62.5 287.5" fill='none' strokeWidth="4.17"></path>
			<path d="M131.25 362.5 a6.25 6.25 0 1 0 12.5 0 a6.25 6.25 0 1 0 -12.5 0zM56.25 287.5 a6.25 6.25 0 1 0 12.5 0 a6.25 6.25 0 1 0 -12.5 0z" fill='none' class='redondito'></path>
			<path d="M162.5 412.5L187.5 437.5L187.5 537.5" fill='none' strokeWidth="4.17"></path>
			<path d="M156.25 412.5 a6.25 6.25 0 1 0 12.5 0 a6.25 6.25 0 1 0 -12.5 0zM181.25 537.5 a6.25 6.25 0 1 0 12.5 0 a6.25 6.25 0 1 0 -12.5 0z" fill='none' class='redondito'></path>
			<path d="M1412.5 512.5L1362.5 462.5L1362.5 287.5" fill='none' strokeWidth="4.17"></path>
			<path d="M1406.25 512.5 a6.25 6.25 0 1 0 12.5 0 a6.25 6.25 0 1 0 -12.5 0zM1356.25 287.5 a6.25 6.25 0 1 0 12.5 0 a6.25 6.25 0 1 0 -12.5 0z" fill='none' class='redondito'></path>
			<path d="M1312.5 312.5L1287.5 287.5L1262.5 287.5" fill='none' strokeWidth="4.17"></path>
			<path d="M1306.25 312.5 a6.25 6.25 0 1 0 12.5 0 a6.25 6.25 0 1 0 -12.5 0zM1256.25 287.5 a6.25 6.25 0 1 0 12.5 0 a6.25 6.25 0 1 0 -12.5 0z" fill='none' class='redondito'></path>
			<path d="M1037.5 412.5L1162.5 287.5" fill='none' strokeWidth="4.17"></path>
			<path d="M1031.25 412.5 a6.25 6.25 0 1 0 12.5 0 a6.25 6.25 0 1 0 -12.5 0zM1156.25 287.5 a6.25 6.25 0 1 0 12.5 0 a6.25 6.25 0 1 0 -12.5 0z" fill='none' class='redondito'></path>
			<path d="M1287.5 12.5L1237.5 62.5L1237.5 87.5L1387.5 237.5L1437.5 237.5" fill='none' strokeWidth="4.17"></path>
			<path d="M1281.25 12.5 a6.25 6.25 0 1 0 12.5 0 a6.25 6.25 0 1 0 -12.5 0zM1431.25 237.5 a6.25 6.25 0 1 0 12.5 0 a6.25 6.25 0 1 0 -12.5 0z" fill='none' class='redondito'></path>
			<path d="M1087.5 312.5L1112.5 287.5L1137.5 287.5" fill='none' strokeWidth="4.17"></path>
			<path d="M1081.25 312.5 a6.25 6.25 0 1 0 12.5 0 a6.25 6.25 0 1 0 -12.5 0zM1131.25 287.5 a6.25 6.25 0 1 0 12.5 0 a6.25 6.25 0 1 0 -12.5 0z" fill='none' class='redondito'></path>
			<path d="M562.5 362.5L712.5 212.5L712.5 187.5" fill='none' strokeWidth="4.17"></path>
			<path d="M556.25 362.5 a6.25 6.25 0 1 0 12.5 0 a6.25 6.25 0 1 0 -12.5 0zM706.25 187.5 a6.25 6.25 0 1 0 12.5 0 a6.25 6.25 0 1 0 -12.5 0z" fill='none' class='redondito'></path>
			<path d="M1362.5 37.5L1287.5 37.5L1262.5 62.5L1262.5 87.5L1387.5 212.5L1437.5 212.5" fill='none' strokeWidth="4.17"></path>
			<path d="M1356.25 37.5 a6.25 6.25 0 1 0 12.5 0 a6.25 6.25 0 1 0 -12.5 0zM1431.25 212.5 a6.25 6.25 0 1 0 12.5 0 a6.25 6.25 0 1 0 -12.5 0z" fill='none' class='redondito'></path>
			<path d="M62.5 87.5L37.5 112.5L37.5 212.5L362.5 537.5L387.5 537.5" fill='none' strokeWidth="4.17"></path>
			<path d="M56.25 87.5 a6.25 6.25 0 1 0 12.5 0 a6.25 6.25 0 1 0 -12.5 0zM381.25 537.5 a6.25 6.25 0 1 0 12.5 0 a6.25 6.25 0 1 0 -12.5 0z" fill='none' class='redondito'></path>
			<path d="M987.5 412.5L987.5 437.5L962.5 462.5L912.5 462.5L887.5 487.5L837.5 487.5" fill='none' strokeWidth="4.17"></path>
			<path d="M981.25 412.5 a6.25 6.25 0 1 0 12.5 0 a6.25 6.25 0 1 0 -12.5 0zM831.25 487.5 a6.25 6.25 0 1 0 12.5 0 a6.25 6.25 0 1 0 -12.5 0z" fill='none' class='redondito'></path>
			<path d="M637.5 412.5L812.5 412.5" fill='none' strokeWidth="4.17"></path>
			<path d="M631.25 412.5 a6.25 6.25 0 1 0 12.5 0 a6.25 6.25 0 1 0 -12.5 0zM806.25 412.5 a6.25 6.25 0 1 0 12.5 0 a6.25 6.25 0 1 0 -12.5 0z" fill='none' class='redondito'></path>
			<path d="M1312.5 437.5L1312.5 562.5" fill='none' strokeWidth="4.17"></path>
			<path d="M1306.25 437.5 a6.25 6.25 0 1 0 12.5 0 a6.25 6.25 0 1 0 -12.5 0zM1306.25 562.5 a6.25 6.25 0 1 0 12.5 0 a6.25 6.25 0 1 0 -12.5 0z" fill='none' class='redondito'></path>
			<path d="M1212.5 437.5L1112.5 537.5L987.5 537.5L962.5 512.5" fill='none' strokeWidth="4.17"></path>
			<path d="M1206.25 437.5 a6.25 6.25 0 1 0 12.5 0 a6.25 6.25 0 1 0 -12.5 0zM956.25 512.5 a6.25 6.25 0 1 0 12.5 0 a6.25 6.25 0 1 0 -12.5 0z" fill='none' class='redondito'></path>
			<path d="M862.5 37.5L837.5 37.5L812.5 12.5L512.5 12.5" fill='none' strokeWidth="4.17"></path>
			<path d="M856.25 37.5 a6.25 6.25 0 1 0 12.5 0 a6.25 6.25 0 1 0 -12.5 0zM506.25 12.5 a6.25 6.25 0 1 0 12.5 0 a6.25 6.25 0 1 0 -12.5 0z" fill='none' class='redondito'></path>
			<path d="M212.5 12.5L362.5 12.5" fill='none' strokeWidth="4.17"></path>
			<path d="M206.25 12.5 a6.25 6.25 0 1 0 12.5 0 a6.25 6.25 0 1 0 -12.5 0zM356.25 12.5 a6.25 6.25 0 1 0 12.5 0 a6.25 6.25 0 1 0 -12.5 0z" fill='none' class='redondito'></path>
			<path d="M12.5 562.5L12.5 262.5" fill='none' strokeWidth="4.17"></path>
			<path d="M6.25 562.5 a6.25 6.25 0 1 0 12.5 0 a6.25 6.25 0 1 0 -12.5 0zM6.25 262.5 a6.25 6.25 0 1 0 12.5 0 a6.25 6.25 0 1 0 -12.5 0z" fill='none' class='redondito'></path>
			<path d="M262.5 162.5L187.5 87.5L162.5 87.5L62.5 187.5L62.5 212.5L187.5 337.5L212.5 337.5L312.5 437.5" fill='none' strokeWidth="4.17"></path>
			<path d="M256.25 162.5 a6.25 6.25 0 1 0 12.5 0 a6.25 6.25 0 1 0 -12.5 0zM306.25 437.5 a6.25 6.25 0 1 0 12.5 0 a6.25 6.25 0 1 0 -12.5 0z" fill='none' class='redondito'></path>
			<path d="M612.5 137.5L612.5 162.5L512.5 262.5" fill='none' strokeWidth="4.17"></path>
			<path d="M606.25 137.5 a6.25 6.25 0 1 0 12.5 0 a6.25 6.25 0 1 0 -12.5 0zM506.25 262.5 a6.25 6.25 0 1 0 12.5 0 a6.25 6.25 0 1 0 -12.5 0z" fill='none' class='redondito'></path>
			<path d="M1412.5 87.5L1412.5 12.5" fill='none' strokeWidth="4.17"></path>
			<path d="M1406.25 87.5 a6.25 6.25 0 1 0 12.5 0 a6.25 6.25 0 1 0 -12.5 0zM1406.25 12.5 a6.25 6.25 0 1 0 12.5 0 a6.25 6.25 0 1 0 -12.5 0z" fill='none' class='redondito'></path>
			<path d="M712.5 462.5L712.5 512.5L737.5 537.5" fill='none' strokeWidth="4.17"></path>
			<path d="M706.25 462.5 a6.25 6.25 0 1 0 12.5 0 a6.25 6.25 0 1 0 -12.5 0zM731.25 537.5 a6.25 6.25 0 1 0 12.5 0 a6.25 6.25 0 1 0 -12.5 0z" fill='none' class='redondito'></path>
			<path d="M112.5 112.5L62.5 112.5" fill='none' strokeWidth="4.17"></path>
			<path d="M106.25 112.5 a6.25 6.25 0 1 0 12.5 0 a6.25 6.25 0 1 0 -12.5 0zM56.25 112.5 a6.25 6.25 0 1 0 12.5 0 a6.25 6.25 0 1 0 -12.5 0z" fill='none' class='redondito'></path>
			<path d="M437.5 412.5L662.5 187.5L687.5 187.5" fill='none' strokeWidth="4.17"></path>
			<path d="M431.25 412.5 a6.25 6.25 0 1 0 12.5 0 a6.25 6.25 0 1 0 -12.5 0zM681.25 187.5 a6.25 6.25 0 1 0 12.5 0 a6.25 6.25 0 1 0 -12.5 0z" fill='none' class='redondito'></path>
			<path d="M1237.5 362.5L1237.5 312.5" fill='none' strokeWidth="4.17"></path>
			<path d="M1231.25 362.5 a6.25 6.25 0 1 0 12.5 0 a6.25 6.25 0 1 0 -12.5 0zM1231.25 312.5 a6.25 6.25 0 1 0 12.5 0 a6.25 6.25 0 1 0 -12.5 0z" fill='none' class='redondito'></path>
			<path d="M937.5 187.5L962.5 212.5L1262.5 212.5" fill='none' strokeWidth="4.17"></path>
			<path d="M931.25 187.5 a6.25 6.25 0 1 0 12.5 0 a6.25 6.25 0 1 0 -12.5 0zM1256.25 212.5 a6.25 6.25 0 1 0 12.5 0 a6.25 6.25 0 1 0 -12.5 0z" fill='none' class='redondito'></path>
			<path d="M362.5 137.5L362.5 262.5L287.5 337.5" fill='none' strokeWidth="4.17"></path>
			<path d="M356.25 137.5 a6.25 6.25 0 1 0 12.5 0 a6.25 6.25 0 1 0 -12.5 0zM281.25 337.5 a6.25 6.25 0 1 0 12.5 0 a6.25 6.25 0 1 0 -12.5 0z" fill='none' class='redondito'></path>
			<path d="M1087.5 37.5L1137.5 37.5L1262.5 162.5L1262.5 187.5" fill='none' strokeWidth="4.17"></path>
			<path d="M1081.25 37.5 a6.25 6.25 0 1 0 12.5 0 a6.25 6.25 0 1 0 -12.5 0zM1256.25 187.5 a6.25 6.25 0 1 0 12.5 0 a6.25 6.25 0 1 0 -12.5 0z" fill='none' class='redondito'></path>
			<path d="M87.5 562.5L37.5 562.5" fill='none' strokeWidth="4.17"></path>
			<path d="M81.25 562.5 a6.25 6.25 0 1 0 12.5 0 a6.25 6.25 0 1 0 -12.5 0zM31.25 562.5 a6.25 6.25 0 1 0 12.5 0 a6.25 6.25 0 1 0 -12.5 0z" fill='none' class='redondito'></path>
			<path d="M362.5 312.5L462.5 212.5L462.5 62.5" fill='none' strokeWidth="4.17"></path>
			<path d="M356.25 312.5 a6.25 6.25 0 1 0 12.5 0 a6.25 6.25 0 1 0 -12.5 0zM456.25 62.5 a6.25 6.25 0 1 0 12.5 0 a6.25 6.25 0 1 0 -12.5 0z" fill='none' class='redondito'></path>
			<path d="M787.5 87.5L562.5 87.5L537.5 62.5L487.5 62.5" fill='none' strokeWidth="4.17"></path>
			<path d="M781.25 87.5 a6.25 6.25 0 1 0 12.5 0 a6.25 6.25 0 1 0 -12.5 0zM481.25 62.5 a6.25 6.25 0 1 0 12.5 0 a6.25 6.25 0 1 0 -12.5 0z" fill='none' class='redondito'></path>
			<path d="M1362.5 87.5L1387.5 87.5L1437.5 137.5L1437.5 187.5" fill='none' strokeWidth="4.17"></path>
			<path d="M1356.25 87.5 a6.25 6.25 0 1 0 12.5 0 a6.25 6.25 0 1 0 -12.5 0zM1431.25 187.5 a6.25 6.25 0 1 0 12.5 0 a6.25 6.25 0 1 0 -12.5 0z" fill='none' class='redondito'></path>
			<path d="M1037.5 337.5L1012.5 337.5L962.5 287.5" fill='none' strokeWidth="4.17"></path>
			<path d="M1031.25 337.5 a6.25 6.25 0 1 0 12.5 0 a6.25 6.25 0 1 0 -12.5 0zM956.25 287.5 a6.25 6.25 0 1 0 12.5 0 a6.25 6.25 0 1 0 -12.5 0z" fill='none' class='redondito'></path>
			<path d="M1037.5 462.5L1037.5 437.5L1162.5 312.5L1212.5 312.5" fill='none' strokeWidth="4.17"></path>
			<path d="M1031.25 462.5 a6.25 6.25 0 1 0 12.5 0 a6.25 6.25 0 1 0 -12.5 0zM1206.25 312.5 a6.25 6.25 0 1 0 12.5 0 a6.25 6.25 0 1 0 -12.5 0z" fill='none' class='redondito'></path>
			<path d="M1062.5 187.5L1062.5 37.5" fill='none' strokeWidth="4.17"></path>
			<path d="M1056.25 187.5 a6.25 6.25 0 1 0 12.5 0 a6.25 6.25 0 1 0 -12.5 0zM1056.25 37.5 a6.25 6.25 0 1 0 12.5 0 a6.25 6.25 0 1 0 -12.5 0z" fill='none' class='redondito'></path>
			<path d="M1437.5 312.5L1437.5 537.5" fill='none' strokeWidth="4.17"></path>
			<path d="M1431.25 312.5 a6.25 6.25 0 1 0 12.5 0 a6.25 6.25 0 1 0 -12.5 0zM1431.25 537.5 a6.25 6.25 0 1 0 12.5 0 a6.25 6.25 0 1 0 -12.5 0z" fill='none' class='redondito'></path>
			<path d="M1412.5 487.5L1387.5 462.5L1387.5 287.5" fill='none' strokeWidth="4.17"></path>
			<path d="M1406.25 487.5 a6.25 6.25 0 1 0 12.5 0 a6.25 6.25 0 1 0 -12.5 0zM1381.25 287.5 a6.25 6.25 0 1 0 12.5 0 a6.25 6.25 0 1 0 -12.5 0z" fill='none' class='redondito'></path>
			<path d="M287.5 137.5L262.5 137.5L237.5 112.5L237.5 87.5" fill='none' strokeWidth="4.17"></path>
			<path d="M281.25 137.5 a6.25 6.25 0 1 0 12.5 0 a6.25 6.25 0 1 0 -12.5 0zM231.25 87.5 a6.25 6.25 0 1 0 12.5 0 a6.25 6.25 0 1 0 -12.5 0z" fill='none' class='redondito'></path>
			<path d="M362.5 512.5L362.5 462.5L337.5 437.5" fill='none' strokeWidth="4.17"></path>
			<path d="M356.25 512.5 a6.25 6.25 0 1 0 12.5 0 a6.25 6.25 0 1 0 -12.5 0zM331.25 437.5 a6.25 6.25 0 1 0 12.5 0 a6.25 6.25 0 1 0 -12.5 0z" fill='none' class='redondito'></path>
			<path d="M862.5 462.5L962.5 362.5L962.5 337.5" fill='none' strokeWidth="4.17"></path>
			<path d="M856.25 462.5 a6.25 6.25 0 1 0 12.5 0 a6.25 6.25 0 1 0 -12.5 0zM956.25 337.5 a6.25 6.25 0 1 0 12.5 0 a6.25 6.25 0 1 0 -12.5 0z" fill='none' class='redondito'></path>
			<path d="M662.5 462.5L687.5 487.5L687.5 512.5" fill='none' strokeWidth="4.17"></path>
			<path d="M656.25 462.5 a6.25 6.25 0 1 0 12.5 0 a6.25 6.25 0 1 0 -12.5 0zM681.25 512.5 a6.25 6.25 0 1 0 12.5 0 a6.25 6.25 0 1 0 -12.5 0z" fill='none' class='redondito'></path>
			<path d="M1062.5 362.5L1062.5 287.5" fill='none' strokeWidth="4.17"></path>
			<path d="M1056.25 362.5 a6.25 6.25 0 1 0 12.5 0 a6.25 6.25 0 1 0 -12.5 0zM1056.25 287.5 a6.25 6.25 0 1 0 12.5 0 a6.25 6.25 0 1 0 -12.5 0z" fill='none' class='redondito'></path>
			<path d="M862.5 537.5L887.5 562.5L962.5 562.5" fill='none' strokeWidth="4.17"></path>
			<path d="M856.25 537.5 a6.25 6.25 0 1 0 12.5 0 a6.25 6.25 0 1 0 -12.5 0zM956.25 562.5 a6.25 6.25 0 1 0 12.5 0 a6.25 6.25 0 1 0 -12.5 0z" fill='none' class='redondito'></path>
			<path d="M962.5 37.5L987.5 12.5L1037.5 12.5" fill='none' strokeWidth="4.17"></path>
			<path d="M956.25 37.5 a6.25 6.25 0 1 0 12.5 0 a6.25 6.25 0 1 0 -12.5 0zM1031.25 12.5 a6.25 6.25 0 1 0 12.5 0 a6.25 6.25 0 1 0 -12.5 0z" fill='none' class='redondito'></path>
			<path d="M437.5 212.5L412.5 187.5L412.5 162.5L437.5 137.5L437.5 87.5" fill='none' strokeWidth="4.17"></path>
			<path d="M431.25 212.5 a6.25 6.25 0 1 0 12.5 0 a6.25 6.25 0 1 0 -12.5 0zM431.25 87.5 a6.25 6.25 0 1 0 12.5 0 a6.25 6.25 0 1 0 -12.5 0z" fill='none' class='redondito'></path>
			<path d="M287.5 262.5L262.5 237.5L262.5 187.5L287.5 162.5" fill='none' strokeWidth="4.17"></path>
			<path d="M281.25 262.5 a6.25 6.25 0 1 0 12.5 0 a6.25 6.25 0 1 0 -12.5 0zM281.25 162.5 a6.25 6.25 0 1 0 12.5 0 a6.25 6.25 0 1 0 -12.5 0z" fill='none' class='redondito'></path>
			<path d="M112.5 237.5L137.5 237.5L162.5 262.5L162.5 287.5" fill='none' strokeWidth="4.17"></path>
			<path d="M106.25 237.5 a6.25 6.25 0 1 0 12.5 0 a6.25 6.25 0 1 0 -12.5 0zM156.25 287.5 a6.25 6.25 0 1 0 12.5 0 a6.25 6.25 0 1 0 -12.5 0z" fill='none' class='redondito'></path>
			<path d="M62.5 412.5L62.5 312.5" fill='none' strokeWidth="4.17"></path>
			<path d="M56.25 412.5 a6.25 6.25 0 1 0 12.5 0 a6.25 6.25 0 1 0 -12.5 0zM56.25 312.5 a6.25 6.25 0 1 0 12.5 0 a6.25 6.25 0 1 0 -12.5 0z" fill='none' class='redondito'></path>
			<path d="M387.5 212.5L387.5 262.5" fill='none' strokeWidth="4.17"></path>
			<path d="M381.25 212.5 a6.25 6.25 0 1 0 12.5 0 a6.25 6.25 0 1 0 -12.5 0zM381.25 262.5 a6.25 6.25 0 1 0 12.5 0 a6.25 6.25 0 1 0 -12.5 0z" fill='none' class='redondito'></path>
			<path d="M762.5 437.5L787.5 462.5L787.5 487.5" fill='none' strokeWidth="4.17"></path>
			<path d="M756.25 437.5 a6.25 6.25 0 1 0 12.5 0 a6.25 6.25 0 1 0 -12.5 0zM781.25 487.5 a6.25 6.25 0 1 0 12.5 0 a6.25 6.25 0 1 0 -12.5 0z" fill='none' class='redondito'></path>
			<path d="M1112.5 87.5L1087.5 112.5L1087.5 187.5" fill='none' strokeWidth="4.17"></path>
			<path d="M1106.25 87.5 a6.25 6.25 0 1 0 12.5 0 a6.25 6.25 0 1 0 -12.5 0zM1081.25 187.5 a6.25 6.25 0 1 0 12.5 0 a6.25 6.25 0 1 0 -12.5 0z" fill='none' class='redondito'></path>
			<path d="M1312.5 362.5L1312.5 337.5L1287.5 312.5" fill='none' strokeWidth="4.17"></path>
			<path d="M1306.25 362.5 a6.25 6.25 0 1 0 12.5 0 a6.25 6.25 0 1 0 -12.5 0zM1281.25 312.5 a6.25 6.25 0 1 0 12.5 0 a6.25 6.25 0 1 0 -12.5 0z" fill='none' class='redondito'></path>
			<path d="M1337.5 87.5L1312.5 62.5L1287.5 62.5" fill='none' strokeWidth="4.17"></path>
			<path d="M1331.25 87.5 a6.25 6.25 0 1 0 12.5 0 a6.25 6.25 0 1 0 -12.5 0zM1281.25 62.5 a6.25 6.25 0 1 0 12.5 0 a6.25 6.25 0 1 0 -12.5 0z" fill='none' class='redondito'></path>
			<path d="M1287.5 387.5L1262.5 387.5L1237.5 412.5L1237.5 462.5L1162.5 537.5L1137.5 537.5" fill='none' strokeWidth="4.17"></path>
			<path d="M1281.25 387.5 a6.25 6.25 0 1 0 12.5 0 a6.25 6.25 0 1 0 -12.5 0zM1131.25 537.5 a6.25 6.25 0 1 0 12.5 0 a6.25 6.25 0 1 0 -12.5 0z" fill='none' class='redondito'></path>
			<path d="M362.5 337.5L387.5 312.5L412.5 312.5" fill='none' strokeWidth="4.17"></path>
			<path d="M356.25 337.5 a6.25 6.25 0 1 0 12.5 0 a6.25 6.25 0 1 0 -12.5 0zM406.25 312.5 a6.25 6.25 0 1 0 12.5 0 a6.25 6.25 0 1 0 -12.5 0z" fill='none' class='redondito'></path>
			<path d="M112.5 537.5L62.5 537.5" fill='none' strokeWidth="4.17"></path>
			<path d="M106.25 537.5 a6.25 6.25 0 1 0 12.5 0 a6.25 6.25 0 1 0 -12.5 0zM56.25 537.5 a6.25 6.25 0 1 0 12.5 0 a6.25 6.25 0 1 0 -12.5 0z" fill='none' class='redondito'></path>
			<path d="M1362.5 12.5L1387.5 37.5L1387.5 62.5" fill='none' strokeWidth="4.17"></path>
			<path d="M1356.25 12.5 a6.25 6.25 0 1 0 12.5 0 a6.25 6.25 0 1 0 -12.5 0zM1381.25 62.5 a6.25 6.25 0 1 0 12.5 0 a6.25 6.25 0 1 0 -12.5 0z" fill='none' class='redondito'></path>
			<path d="M437.5 437.5L487.5 487.5L587.5 487.5L612.5 512.5L662.5 512.5" fill='none' strokeWidth="4.17"></path>
			<path d="M431.25 437.5 a6.25 6.25 0 1 0 12.5 0 a6.25 6.25 0 1 0 -12.5 0zM656.25 512.5 a6.25 6.25 0 1 0 12.5 0 a6.25 6.25 0 1 0 -12.5 0z" fill='none' class='redondito'></path>
			<path d="M837.5 312.5L837.5 362.5" fill='none' strokeWidth="4.17"></path>
			<path d="M831.25 312.5 a6.25 6.25 0 1 0 12.5 0 a6.25 6.25 0 1 0 -12.5 0zM831.25 362.5 a6.25 6.25 0 1 0 12.5 0 a6.25 6.25 0 1 0 -12.5 0z" fill='none' class='redondito'></path>
			<path d="M662.5 337.5L537.5 462.5L487.5 462.5L462.5 437.5L462.5 412.5L662.5 212.5L687.5 212.5" fill='none' strokeWidth="4.17"></path>
			<path d="M656.25 337.5 a6.25 6.25 0 1 0 12.5 0 a6.25 6.25 0 1 0 -12.5 0zM681.25 212.5 a6.25 6.25 0 1 0 12.5 0 a6.25 6.25 0 1 0 -12.5 0z" fill='none' class='redondito'></path>
			<path d="M837.5 62.5L687.5 62.5" fill='none' strokeWidth="4.17"></path>
			<path d="M831.25 62.5 a6.25 6.25 0 1 0 12.5 0 a6.25 6.25 0 1 0 -12.5 0zM681.25 62.5 a6.25 6.25 0 1 0 12.5 0 a6.25 6.25 0 1 0 -12.5 0z" fill='none' class='redondito'></path>
			<path d="M112.5 387.5L112.5 462.5L162.5 512.5" fill='none' strokeWidth="4.17"></path>
			<path d="M106.25 387.5 a6.25 6.25 0 1 0 12.5 0 a6.25 6.25 0 1 0 -12.5 0zM156.25 512.5 a6.25 6.25 0 1 0 12.5 0 a6.25 6.25 0 1 0 -12.5 0z" fill='none' class='redondito'></path>
			<path d="M612.5 337.5L512.5 437.5L487.5 437.5" fill='none' strokeWidth="4.17"></path>
			<path d="M606.25 337.5 a6.25 6.25 0 1 0 12.5 0 a6.25 6.25 0 1 0 -12.5 0zM481.25 437.5 a6.25 6.25 0 1 0 12.5 0 a6.25 6.25 0 1 0 -12.5 0z" fill='none' class='redondito'></path>
			<path d="M1087.5 62.5L1137.5 62.5L1237.5 162.5" fill='none' strokeWidth="4.17"></path>
			<path d="M1081.25 62.5 a6.25 6.25 0 1 0 12.5 0 a6.25 6.25 0 1 0 -12.5 0zM1231.25 162.5 a6.25 6.25 0 1 0 12.5 0 a6.25 6.25 0 1 0 -12.5 0z" fill='none' class='redondito'></path>
			<path d="M162.5 212.5L112.5 162.5" fill='none' strokeWidth="4.17"></path>
			<path d="M156.25 212.5 a6.25 6.25 0 1 0 12.5 0 a6.25 6.25 0 1 0 -12.5 0zM106.25 162.5 a6.25 6.25 0 1 0 12.5 0 a6.25 6.25 0 1 0 -12.5 0z" fill='none' class='redondito'></path>
			<path d="M187.5 237.5L237.5 237.5L287.5 287.5L312.5 287.5" fill='none' strokeWidth="4.17"></path>
			<path d="M181.25 237.5 a6.25 6.25 0 1 0 12.5 0 a6.25 6.25 0 1 0 -12.5 0zM306.25 287.5 a6.25 6.25 0 1 0 12.5 0 a6.25 6.25 0 1 0 -12.5 0z" fill='none' class='redondito'></path>
			<path d="M1187.5 12.5L1187.5 37.5L1212.5 62.5" fill='none' strokeWidth="4.17"></path>
			<path d="M1181.25 12.5 a6.25 6.25 0 1 0 12.5 0 a6.25 6.25 0 1 0 -12.5 0zM1206.25 62.5 a6.25 6.25 0 1 0 12.5 0 a6.25 6.25 0 1 0 -12.5 0z" fill='none' class='redondito'></path>
			<path d="M887.5 87.5L912.5 62.5L912.5 12.5" fill='none' strokeWidth="4.17"></path>
			<path d="M881.25 87.5 a6.25 6.25 0 1 0 12.5 0 a6.25 6.25 0 1 0 -12.5 0zM906.25 12.5 a6.25 6.25 0 1 0 12.5 0 a6.25 6.25 0 1 0 -12.5 0z" fill='none' class='redondito'></path>
			<path d="M787.5 262.5L837.5 262.5" fill='none' strokeWidth="4.17"></path>
			<path d="M781.25 262.5 a6.25 6.25 0 1 0 12.5 0 a6.25 6.25 0 1 0 -12.5 0zM831.25 262.5 a6.25 6.25 0 1 0 12.5 0 a6.25 6.25 0 1 0 -12.5 0z" fill='none' class='redondito'></path>
			<path d="M987.5 287.5L1037.5 287.5" fill='none' strokeWidth="4.17"></path>
			<path d="M981.25 287.5 a6.25 6.25 0 1 0 12.5 0 a6.25 6.25 0 1 0 -12.5 0zM1031.25 287.5 a6.25 6.25 0 1 0 12.5 0 a6.25 6.25 0 1 0 -12.5 0z" fill='none' class='redondito'></path>
			<path d="M737.5 487.5L737.5 437.5" fill='none' strokeWidth="4.17"></path>
			<path d="M731.25 487.5 a6.25 6.25 0 1 0 12.5 0 a6.25 6.25 0 1 0 -12.5 0zM731.25 437.5 a6.25 6.25 0 1 0 12.5 0 a6.25 6.25 0 1 0 -12.5 0z" fill='none' class='redondito'></path>
			<path d="M537.5 87.5L487.5 137.5L487.5 162.5L512.5 187.5L562.5 187.5" fill='none' strokeWidth="4.17"></path>
			<path d="M531.25 87.5 a6.25 6.25 0 1 0 12.5 0 a6.25 6.25 0 1 0 -12.5 0zM556.25 187.5 a6.25 6.25 0 1 0 12.5 0 a6.25 6.25 0 1 0 -12.5 0z" fill='none' class='redondito'></path>
			<path d="M862.5 562.5L762.5 562.5" fill='none' strokeWidth="4.17"></path>
			<path d="M856.25 562.5 a6.25 6.25 0 1 0 12.5 0 a6.25 6.25 0 1 0 -12.5 0zM756.25 562.5 a6.25 6.25 0 1 0 12.5 0 a6.25 6.25 0 1 0 -12.5 0z" fill='none' class='redondito'></path>
			<path d="M1187.5 187.5L1112.5 187.5" fill='none' strokeWidth="4.17"></path>
			<path d="M1181.25 187.5 a6.25 6.25 0 1 0 12.5 0 a6.25 6.25 0 1 0 -12.5 0zM1106.25 187.5 a6.25 6.25 0 1 0 12.5 0 a6.25 6.25 0 1 0 -12.5 0z" fill='none' class='redondito'></path>
			<path d="M1162.5 112.5L1212.5 162.5L1212.5 187.5" fill='none' strokeWidth="4.17"></path>
			<path d="M1156.25 112.5 a6.25 6.25 0 1 0 12.5 0 a6.25 6.25 0 1 0 -12.5 0zM1206.25 187.5 a6.25 6.25 0 1 0 12.5 0 a6.25 6.25 0 1 0 -12.5 0z" fill='none' class='redondito'></path>
			<path d="M337.5 312.5L312.5 337.5L312.5 362.5" fill='none' strokeWidth="4.17"></path>
			<path d="M331.25 312.5 a6.25 6.25 0 1 0 12.5 0 a6.25 6.25 0 1 0 -12.5 0zM306.25 362.5 a6.25 6.25 0 1 0 12.5 0 a6.25 6.25 0 1 0 -12.5 0z" fill='none' class='redondito'></path>
			<path d="M1287.5 562.5L1287.5 487.5" fill='none' strokeWidth="4.17"></path>
			<path d="M1281.25 562.5 a6.25 6.25 0 1 0 12.5 0 a6.25 6.25 0 1 0 -12.5 0zM1281.25 487.5 a6.25 6.25 0 1 0 12.5 0 a6.25 6.25 0 1 0 -12.5 0z" fill='none' class='redondito'></path>
			<path d="M1037.5 62.5L1037.5 187.5" fill='none' strokeWidth="4.17"></path>
			<path d="M1031.25 62.5 a6.25 6.25 0 1 0 12.5 0 a6.25 6.25 0 1 0 -12.5 0zM1031.25 187.5 a6.25 6.25 0 1 0 12.5 0 a6.25 6.25 0 1 0 -12.5 0z" fill='none' class='redondito'></path>
			<path d="M112.5 487.5L62.5 437.5" fill='none' strokeWidth="4.17"></path>
			<path d="M106.25 487.5 a6.25 6.25 0 1 0 12.5 0 a6.25 6.25 0 1 0 -12.5 0zM56.25 437.5 a6.25 6.25 0 1 0 12.5 0 a6.25 6.25 0 1 0 -12.5 0z" fill='none' class='redondito'></path>
			<path d="M1012.5 137.5L1012.5 87.5" fill='none' strokeWidth="4.17"></path>
			<path d="M1006.25 137.5 a6.25 6.25 0 1 0 12.5 0 a6.25 6.25 0 1 0 -12.5 0zM1006.25 87.5 a6.25 6.25 0 1 0 12.5 0 a6.25 6.25 0 1 0 -12.5 0z" fill='none' class='redondito'></path>
			<path d="M1312.5 237.5L1312.5 187.5" fill='none' strokeWidth="4.17"></path>
			<path d="M1306.25 237.5 a6.25 6.25 0 1 0 12.5 0 a6.25 6.25 0 1 0 -12.5 0zM1306.25 187.5 a6.25 6.25 0 1 0 12.5 0 a6.25 6.25 0 1 0 -12.5 0z" fill='none' class='redondito'></path>
			<path d="M237.5 437.5L337.5 537.5" fill='none' strokeWidth="4.17"></path>
			<path d="M231.25 437.5 a6.25 6.25 0 1 0 12.5 0 a6.25 6.25 0 1 0 -12.5 0zM331.25 537.5 a6.25 6.25 0 1 0 12.5 0 a6.25 6.25 0 1 0 -12.5 0z" fill='none' class='redondito'></path>
			<path d="M912.5 337.5L887.5 362.5L887.5 412.5" fill='none' strokeWidth="4.17"></path>
			<path d="M906.25 337.5 a6.25 6.25 0 1 0 12.5 0 a6.25 6.25 0 1 0 -12.5 0zM881.25 412.5 a6.25 6.25 0 1 0 12.5 0 a6.25 6.25 0 1 0 -12.5 0z" fill='none' class='redondito'></path>
			<path d="M187.5 137.5L162.5 162.5L162.5 187.5L187.5 212.5L237.5 212.5" fill='none' strokeWidth="4.17"></path>
			<path d="M181.25 137.5 a6.25 6.25 0 1 0 12.5 0 a6.25 6.25 0 1 0 -12.5 0zM231.25 212.5 a6.25 6.25 0 1 0 12.5 0 a6.25 6.25 0 1 0 -12.5 0z" fill='none' class='redondito'></path>
			<path d="M812.5 337.5L787.5 337.5L762.5 362.5L687.5 362.5" fill='none' strokeWidth="4.17"></path>
			<path d="M806.25 337.5 a6.25 6.25 0 1 0 12.5 0 a6.25 6.25 0 1 0 -12.5 0zM681.25 362.5 a6.25 6.25 0 1 0 12.5 0 a6.25 6.25 0 1 0 -12.5 0z" fill='none' class='redondito'></path>
			<path d="M1187.5 362.5L1137.5 412.5L1137.5 462.5" fill='none' strokeWidth="4.17"></path>
			<path d="M1181.25 362.5 a6.25 6.25 0 1 0 12.5 0 a6.25 6.25 0 1 0 -12.5 0zM1131.25 462.5 a6.25 6.25 0 1 0 12.5 0 a6.25 6.25 0 1 0 -12.5 0z" fill='none' class='redondito'></path>
			<path d="M712.5 287.5L712.5 237.5" fill='none' strokeWidth="4.17"></path>
			<path d="M706.25 287.5 a6.25 6.25 0 1 0 12.5 0 a6.25 6.25 0 1 0 -12.5 0zM706.25 237.5 a6.25 6.25 0 1 0 12.5 0 a6.25 6.25 0 1 0 -12.5 0z" fill='none' class='redondito'></path>
			<path d="M537.5 562.5L437.5 562.5" fill='none' strokeWidth="4.17"></path>
			<path d="M531.25 562.5 a6.25 6.25 0 1 0 12.5 0 a6.25 6.25 0 1 0 -12.5 0zM431.25 562.5 a6.25 6.25 0 1 0 12.5 0 a6.25 6.25 0 1 0 -12.5 0z" fill='none' class='redondito'></path>
			<path d="M1162.5 437.5L1187.5 412.5L1187.5 387.5" fill='none' strokeWidth="4.17"></path>
			<path d="M1156.25 437.5 a6.25 6.25 0 1 0 12.5 0 a6.25 6.25 0 1 0 -12.5 0zM1181.25 387.5 a6.25 6.25 0 1 0 12.5 0 a6.25 6.25 0 1 0 -12.5 0z" fill='none' class='redondito'></path>
			<path d="M137.5 12.5L187.5 12.5" fill='none' strokeWidth="4.17"></path>
			<path d="M131.25 12.5 a6.25 6.25 0 1 0 12.5 0 a6.25 6.25 0 1 0 -12.5 0zM181.25 12.5 a6.25 6.25 0 1 0 12.5 0 a6.25 6.25 0 1 0 -12.5 0z" fill='none' class='redondito'></path>
			<path d="M312.5 212.5L312.5 262.5" fill='none' strokeWidth="4.17"></path>
			<path d="M306.25 212.5 a6.25 6.25 0 1 0 12.5 0 a6.25 6.25 0 1 0 -12.5 0zM306.25 262.5 a6.25 6.25 0 1 0 12.5 0 a6.25 6.25 0 1 0 -12.5 0z" fill='none' class='redondito'></path>
			<path d="M1212.5 337.5L1162.5 337.5L1112.5 387.5L1112.5 437.5L1087.5 462.5L1062.5 462.5" fill='none' strokeWidth="4.17"></path>
			<path d="M1206.25 337.5 a6.25 6.25 0 1 0 12.5 0 a6.25 6.25 0 1 0 -12.5 0zM1056.25 462.5 a6.25 6.25 0 1 0 12.5 0 a6.25 6.25 0 1 0 -12.5 0z" fill='none' class='redondito'></path>
			<path d="M787.5 187.5L837.5 237.5" fill='none' strokeWidth="4.17"></path>
			<path d="M781.25 187.5 a6.25 6.25 0 1 0 12.5 0 a6.25 6.25 0 1 0 -12.5 0zM831.25 237.5 a6.25 6.25 0 1 0 12.5 0 a6.25 6.25 0 1 0 -12.5 0z" fill='none' class='redondito'></path>
			<path d="M987.5 362.5L987.5 387.5L937.5 437.5L912.5 437.5" fill='none' strokeWidth="4.17"></path>
			<path d="M981.25 362.5 a6.25 6.25 0 1 0 12.5 0 a6.25 6.25 0 1 0 -12.5 0zM906.25 437.5 a6.25 6.25 0 1 0 12.5 0 a6.25 6.25 0 1 0 -12.5 0z" fill='none' class='redondito'></path>
			<path d="M1212.5 537.5L1237.5 562.5L1262.5 562.5" fill='none' strokeWidth="4.17"></path>
			<path d="M1206.25 537.5 a6.25 6.25 0 1 0 12.5 0 a6.25 6.25 0 1 0 -12.5 0zM1256.25 562.5 a6.25 6.25 0 1 0 12.5 0 a6.25 6.25 0 1 0 -12.5 0z" fill='none' class='redondito'></path>
			<path d="M587.5 62.5L637.5 62.5" fill='none' strokeWidth="4.17"></path>
			<path d="M581.25 62.5 a6.25 6.25 0 1 0 12.5 0 a6.25 6.25 0 1 0 -12.5 0zM631.25 62.5 a6.25 6.25 0 1 0 12.5 0 a6.25 6.25 0 1 0 -12.5 0z" fill='none' class='redondito'></path>
			<path d="M687.5 287.5L637.5 337.5" fill='none' strokeWidth="4.17"></path>
			<path d="M681.25 287.5 a6.25 6.25 0 1 0 12.5 0 a6.25 6.25 0 1 0 -12.5 0zM631.25 337.5 a6.25 6.25 0 1 0 12.5 0 a6.25 6.25 0 1 0 -12.5 0z" fill='none' class='redondito'></path>
			<path d="M1412.5 162.5L1362.5 112.5L1312.5 112.5L1287.5 87.5" fill='none' strokeWidth="4.17"></path>
			<path d="M1406.25 162.5 a6.25 6.25 0 1 0 12.5 0 a6.25 6.25 0 1 0 -12.5 0zM1281.25 87.5 a6.25 6.25 0 1 0 12.5 0 a6.25 6.25 0 1 0 -12.5 0z" fill='none' class='redondito'></path>
			<path d="M437.5 487.5L437.5 462.5L387.5 412.5" fill='none' strokeWidth="4.17"></path>
			<path d="M431.25 487.5 a6.25 6.25 0 1 0 12.5 0 a6.25 6.25 0 1 0 -12.5 0zM381.25 412.5 a6.25 6.25 0 1 0 12.5 0 a6.25 6.25 0 1 0 -12.5 0z" fill='none' class='redondito'></path>
			<path d="M12.5 12.5L112.5 12.5" fill='none' strokeWidth="4.17"></path>
			<path d="M6.25 12.5 a6.25 6.25 0 1 0 12.5 0 a6.25 6.25 0 1 0 -12.5 0zM106.25 12.5 a6.25 6.25 0 1 0 12.5 0 a6.25 6.25 0 1 0 -12.5 0z" fill='none' class='redondito'></path>
			<path d="M962.5 62.5L937.5 62.5L912.5 87.5L912.5 112.5" fill='none' strokeWidth="4.17"></path>
			<path d="M956.25 62.5 a6.25 6.25 0 1 0 12.5 0 a6.25 6.25 0 1 0 -12.5 0zM906.25 112.5 a6.25 6.25 0 1 0 12.5 0 a6.25 6.25 0 1 0 -12.5 0z" fill='none' class='redondito'></path>
			<path d="M887.5 287.5L887.5 337.5" fill='none' strokeWidth="4.17"></path>
			<path d="M881.25 287.5 a6.25 6.25 0 1 0 12.5 0 a6.25 6.25 0 1 0 -12.5 0zM881.25 337.5 a6.25 6.25 0 1 0 12.5 0 a6.25 6.25 0 1 0 -12.5 0z" fill='none' class='redondito'></path>
			<path d="M787.5 312.5L812.5 312.5L837.5 287.5" fill='none' strokeWidth="4.17"></path>
			<path d="M781.25 312.5 a6.25 6.25 0 1 0 12.5 0 a6.25 6.25 0 1 0 -12.5 0zM831.25 287.5 a6.25 6.25 0 1 0 12.5 0 a6.25 6.25 0 1 0 -12.5 0z" fill='none' class='redondito'></path>
			<path d="M662.5 437.5L712.5 437.5" fill='none' strokeWidth="4.17"></path>
			<path d="M656.25 437.5 a6.25 6.25 0 1 0 12.5 0 a6.25 6.25 0 1 0 -12.5 0zM706.25 437.5 a6.25 6.25 0 1 0 12.5 0 a6.25 6.25 0 1 0 -12.5 0z" fill='none' class='redondito'></path>
			<path d="M1012.5 187.5L987.5 162.5L987.5 137.5" fill='none' strokeWidth="4.17"></path>
			<path d="M1006.25 187.5 a6.25 6.25 0 1 0 12.5 0 a6.25 6.25 0 1 0 -12.5 0zM981.25 137.5 a6.25 6.25 0 1 0 12.5 0 a6.25 6.25 0 1 0 -12.5 0z" fill='none' class='redondito'></path>
			<path d="M287.5 537.5L262.5 512.5L262.5 487.5" fill='none' strokeWidth="4.17"></path>
			<path d="M281.25 537.5 a6.25 6.25 0 1 0 12.5 0 a6.25 6.25 0 1 0 -12.5 0zM256.25 487.5 a6.25 6.25 0 1 0 12.5 0 a6.25 6.25 0 1 0 -12.5 0z" fill='none' class='redondito'></path>
			<path d="M1412.5 362.5L1412.5 412.5" fill='none' strokeWidth="4.17"></path>
			<path d="M1406.25 362.5 a6.25 6.25 0 1 0 12.5 0 a6.25 6.25 0 1 0 -12.5 0zM1406.25 412.5 a6.25 6.25 0 1 0 12.5 0 a6.25 6.25 0 1 0 -12.5 0z" fill='none' class='redondito'></path>
		</g>
	</g>
</svg>
