<svg height="8rem" viewBox="-36 0 496 496" xmlns="http://www.w3.org/2000/svg" xmlns:xlink="http://www.w3.org/1999/xlink"><linearGradient id="a"><stop offset="0" stop-color="#003f8a"/><stop offset=".518" stop-color="#00d7df"/><stop offset="1" stop-color="#006df0"/></linearGradient><linearGradient id="b" gradientUnits="userSpaceOnUse" x1="-33.48" x2="450.776" xlink:href="#a" y1="493.48" y2="9.224"/><linearGradient id="c" gradientUnits="userSpaceOnUse" x1="-155.48" x2="328.776" xlink:href="#a" y1="371.48" y2="-112.776"/><linearGradient id="d" gradientUnits="userSpaceOnUse" x1="-103.48" x2="380.776" xlink:href="#a" y1="423.48" y2="-60.776"/><linearGradient id="e" gradientUnits="userSpaceOnUse" x1="-51.48" x2="432.776" xlink:href="#a" y1="475.48" y2="-8.776"/><path d="m416 120h-128v-112c0-4.417969-3.582031-8-8-8h-272c-4.417969 0-8 3.582031-8 8v360c0 4.417969 3.582031 8 8 8h128v112c0 4.417969 3.582031 8 8 8h272c4.417969 0 8-3.582031 8-8v-360c0-4.417969-3.582031-8-8-8zm-400 240v-344h256v344zm392 120h-256v-104h128c4.417969 0 8-3.582031 8-8v-232h120zm0 0" fill="url(#b)"/><path d="m40 104h11.769531l13.949219 20.496094c1.492188 2.191406 3.96875 3.503906 6.617188 3.503906h.121093c2.6875-.042969 5.179688-1.433594 6.621094-3.703125l12.921875-20.296875h156c4.417969 0 8-3.582031 8-8v-48c0-4.417969-3.582031-8-8-8h-208c-4.417969 0-8 3.582031-8 8v48c0 4.417969 3.582031 8 8 8zm8-48h192v32h-152.375c-2.738281 0-5.285156 1.394531-6.753906 3.703125l-8.800782 13.753906-9.496093-13.953125c-1.480469-2.179687-3.9375-3.492187-6.574219-3.503906h-8zm0 0" fill="url(#c)"/><path d="m40 208h11.769531l13.949219 20.496094c1.492188 2.191406 3.96875 3.503906 6.617188 3.503906h.121093c2.6875-.042969 5.179688-1.433594 6.621094-3.703125l12.921875-20.296875h156c4.417969 0 8-3.582031 8-8v-48c0-4.417969-3.582031-8-8-8h-208c-4.417969 0-8 3.582031-8 8v48c0 4.417969 3.582031 8 8 8zm8-48h192v32h-152.375c-2.738281 0-5.285156 1.394531-6.753906 3.703125l-8.800782 13.753906-9.496093-13.953125c-1.480469-2.179687-3.9375-3.492187-6.574219-3.503906h-8zm0 0" fill="url(#d)"/><path d="m208.921875 332.296875c1.441406 2.269531 3.933594 3.660156 6.621094 3.703125h.121093c2.648438 0 5.125-1.3125 6.617188-3.503906l13.949219-20.496094h11.769531c4.417969 0 8-3.582031 8-8v-48c0-4.417969-3.582031-8-8-8h-208c-4.417969 0-8 3.582031-8 8v48c0 4.417969 3.582031 8 8 8h156zm-160.921875-68.296875h192v32h-8c-2.648438 0-5.128906 1.3125-6.617188 3.503906l-9.496093 13.953125-8.796875-13.753906c-1.464844-2.296875-3.992188-3.691406-6.714844-3.703125h-152.375zm0 0" fill="url(#e)"/></svg>