<svg xmlns="http://www.w3.org/2000/svg" version="1.1" xmlns:xlink="http://www.w3.org/1999/xlink" xmlns:svgjs="http://svgjs.com/svgjs" width="1440" height="560" preserveAspectRatio="none" viewBox="0 0 1440 560">
    <style>
			.path {
			animation: draw 5s infinite;
			animation-timing-function: linear;
			animation-delay: 0s
		}


	@keyframes draw {
		0% {
		}
		100% {
			stroke-dashoffset: 0;
			stroke-opacity: 1;
  }
		</style>
		<g mask="url(&quot;#SvgjsMask1000&quot;)" fill="none">
        <rect width="1440" height="560" x="0" y="0" fill="rgba(9, 5, 29, 1)"></rect>
        <g>
            <path d="M187.5 437.5L162.5 412.5L162.5 62.5L112.5 12.5L62.5 12.5" class="path" fill='none' stroke-opacity="1" stroke-dasharray="8,960,24,960,16,400" stroke-dashoffset='6400' stroke-linecap="butt" stroke-width="4.17" stroke="purple"></path>
            <path d="M183.33 437.5 a4.17 4.17 0 1 0 8.34 0 a4.17 4.17 0 1 0 -8.34 0zM58.33 12.5 a4.17 4.17 0 1 0 8.34 0 a4.17 4.17 0 1 0 -8.34 0z" fill="rgba(37, 158, 164, 1)"></path>
            <path d="M387.5 62.5L287.5 62.5L237.5 12.5L137.5 12.5" strokeDasharray="8,960,24,960,16,400" strokeDashoffset='6400' strokeLinecap="butt" className="path" stroke-width="4.17" stroke="rgba(37, 158, 164, 1)"></path>
            <path d="M383.33 62.5 a4.17 4.17 0 1 0 8.34 0 a4.17 4.17 0 1 0 -8.34 0zM133.33 12.5 a4.17 4.17 0 1 0 8.34 0 a4.17 4.17 0 1 0 -8.34 0z" fill="rgba(37, 158, 164, 1)"></path>
            <path d="M1087.5 437.5L1087.5 562.5" strokeDasharray="8,960,24,960,16,400" strokeDashoffset='6400' strokeLinecap="butt" className="path" stroke-width="4.17" stroke="rgba(37, 158, 164, 1)"></path>
            <path d="M1083.33 437.5 a4.17 4.17 0 1 0 8.34 0 a4.17 4.17 0 1 0 -8.34 0zM1083.33 562.5 a4.17 4.17 0 1 0 8.34 0 a4.17 4.17 0 1 0 -8.34 0z" fill="rgba(37, 158, 164, 1)"></path>
            <path d="M937.5 37.5L612.5 37.5L587.5 12.5L462.5 12.5" stroke-width="4.17" stroke="rgba(37, 158, 164, 1)"></path>
            <path d="M933.33 37.5 a4.17 4.17 0 1 0 8.34 0 a4.17 4.17 0 1 0 -8.34 0zM458.33 12.5 a4.17 4.17 0 1 0 8.34 0 a4.17 4.17 0 1 0 -8.34 0z" fill="rgba(37, 158, 164, 1)"></path>
            <path d="M12.5 12.5L37.5 12.5L137.5 112.5L137.5 412.5L112.5 437.5L87.5 437.5" stroke-width="4.17" stroke="rgba(37, 158, 164, 1)"></path>
            <path d="M8.33 12.5 a4.17 4.17 0 1 0 8.34 0 a4.17 4.17 0 1 0 -8.34 0zM83.33 437.5 a4.17 4.17 0 1 0 8.34 0 a4.17 4.17 0 1 0 -8.34 0z" fill="rgba(37, 158, 164, 1)"></path>
            <path d="M1212.5 512.5L1437.5 287.5L1437.5 37.5" strokeDasharray="8,960,24,960,16,400" strokeDashoffset='6400' strokeLinecap="butt" className="path" stroke-width="4.17" stroke="rgba(37, 158, 164, 1)"></path>
            <path d="M1208.33 512.5 a4.17 4.17 0 1 0 8.34 0 a4.17 4.17 0 1 0 -8.34 0zM1433.33 37.5 a4.17 4.17 0 1 0 8.34 0 a4.17 4.17 0 1 0 -8.34 0z" fill="rgba(37, 158, 164, 1)"></path>
            <path d="M1312.5 537.5L1337.5 562.5L1437.5 562.5" stroke-width="4.17" stroke="rgba(37, 158, 164, 1)"></path>
            <path d="M1308.33 537.5 a4.17 4.17 0 1 0 8.34 0 a4.17 4.17 0 1 0 -8.34 0zM1433.33 562.5 a4.17 4.17 0 1 0 8.34 0 a4.17 4.17 0 1 0 -8.34 0z" fill="rgba(37, 158, 164, 1)"></path>
            <path d="M1212.5 112.5L1262.5 62.5L1262.5 12.5" stroke-width="4.17" stroke="rgba(37, 158, 164, 1)"></path>
            <path d="M1208.33 112.5 a4.17 4.17 0 1 0 8.34 0 a4.17 4.17 0 1 0 -8.34 0zM1258.33 12.5 a4.17 4.17 0 1 0 8.34 0 a4.17 4.17 0 1 0 -8.34 0z" fill="rgba(37, 158, 164, 1)"></path>
            <path d="M1262.5 187.5L1412.5 187.5" strokeDasharray="8,960,24,960,16,400" strokeDashoffset='6400' strokeLinecap="butt" className="path" stroke-width="4.17" stroke="rgba(37, 158, 164, 1)"></path>
            <path d="M1258.33 187.5 a4.17 4.17 0 1 0 8.34 0 a4.17 4.17 0 1 0 -8.34 0zM1408.33 187.5 a4.17 4.17 0 1 0 8.34 0 a4.17 4.17 0 1 0 -8.34 0z" fill="rgba(37, 158, 164, 1)"></path>
            <path d="M762.5 462.5L887.5 337.5L887.5 62.5" strokeDasharray="8,960,24,960,16,400" strokeDashoffset='6400' strokeLinecap="butt" className="path" stroke-width="4.17" stroke="rgba(37, 158, 164, 1)"></path>
            <path d="M758.33 462.5 a4.17 4.17 0 1 0 8.34 0 a4.17 4.17 0 1 0 -8.34 0zM883.33 62.5 a4.17 4.17 0 1 0 8.34 0 a4.17 4.17 0 1 0 -8.34 0z" fill="rgba(37, 158, 164, 1)"></path>
            <path d="M1387.5 387.5L1362.5 412.5L1337.5 412.5L1187.5 562.5L1112.5 562.5" stroke-width="4.17" stroke="rgba(37, 158, 164, 1)"></path>
            <path d="M1383.33 387.5 a4.17 4.17 0 1 0 8.34 0 a4.17 4.17 0 1 0 -8.34 0zM1108.33 562.5 a4.17 4.17 0 1 0 8.34 0 a4.17 4.17 0 1 0 -8.34 0z" fill="rgba(37, 158, 164, 1)"></path>
            <path d="M262.5 537.5L262.5 337.5L537.5 62.5" strokeDasharray="8,960,24,960,16,400" strokeDashoffset='6400' strokeLinecap="butt" className="path" stroke-width="4.17" stroke="rgba(37, 158, 164, 1)"></path>
            <path d="M258.33 537.5 a4.17 4.17 0 1 0 8.34 0 a4.17 4.17 0 1 0 -8.34 0zM533.33 62.5 a4.17 4.17 0 1 0 8.34 0 a4.17 4.17 0 1 0 -8.34 0z" fill="rgba(37, 158, 164, 1)"></path>
            <path d="M87.5 137.5L87.5 87.5L37.5 37.5L12.5 37.5" stroke-width="4.17" stroke="rgba(37, 158, 164, 1)"></path>
            <path d="M83.33 137.5 a4.17 4.17 0 1 0 8.34 0 a4.17 4.17 0 1 0 -8.34 0zM8.33 37.5 a4.17 4.17 0 1 0 8.34 0 a4.17 4.17 0 1 0 -8.34 0z" fill="rgba(37, 158, 164, 1)"></path>
            <path d="M112.5 212.5L112.5 112.5" strokeDasharray="8,960,24,960,16,400" strokeDashoffset='6400' strokeLinecap="butt" className="path" stroke-width="4.17" stroke="rgba(37, 158, 164, 1)"></path>
            <path d="M108.33 212.5 a4.17 4.17 0 1 0 8.34 0 a4.17 4.17 0 1 0 -8.34 0zM108.33 112.5 a4.17 4.17 0 1 0 8.34 0 a4.17 4.17 0 1 0 -8.34 0z" fill="rgba(37, 158, 164, 1)"></path>
            <path d="M837.5 237.5L862.5 212.5L862.5 62.5" strokeDasharray="8,960,24,960,16,400" strokeDashoffset='6400' strokeLinecap="butt" className="path" stroke-width="4.17" stroke="rgba(37, 158, 164, 1)"></path>
            <path d="M833.33 237.5 a4.17 4.17 0 1 0 8.34 0 a4.17 4.17 0 1 0 -8.34 0zM858.33 62.5 a4.17 4.17 0 1 0 8.34 0 a4.17 4.17 0 1 0 -8.34 0z" fill="rgba(37, 158, 164, 1)"></path>
            <path d="M12.5 337.5L12.5 62.5" strokeDasharray="8,960,24,960,16,400" strokeDashoffset='6400' strokeLinecap="butt" className="path" stroke-width="4.17" stroke="rgba(37, 158, 164, 1)"></path>
            <path d="M8.33 337.5 a4.17 4.17 0 1 0 8.34 0 a4.17 4.17 0 1 0 -8.34 0zM8.33 62.5 a4.17 4.17 0 1 0 8.34 0 a4.17 4.17 0 1 0 -8.34 0z" fill="rgba(37, 158, 164, 1)"></path>
            <path d="M37.5 212.5L112.5 287.5L112.5 337.5L12.5 437.5L12.5 487.5L87.5 562.5L112.5 562.5L212.5 462.5" stroke-width="4.17" stroke="rgba(37, 158, 164, 1)"></path>
            <path d="M33.33 212.5 a4.17 4.17 0 1 0 8.34 0 a4.17 4.17 0 1 0 -8.34 0zM208.33 462.5 a4.17 4.17 0 1 0 8.34 0 a4.17 4.17 0 1 0 -8.34 0z" fill="rgba(37, 158, 164, 1)"></path>
            <path d="M1137.5 112.5L1162.5 112.5L1362.5 312.5L1362.5 337.5L1162.5 537.5L1137.5 537.5" stroke-width="4.17" stroke="rgba(37, 158, 164, 1)"></path>
            <path d="M1133.33 112.5 a4.17 4.17 0 1 0 8.34 0 a4.17 4.17 0 1 0 -8.34 0zM1133.33 537.5 a4.17 4.17 0 1 0 8.34 0 a4.17 4.17 0 1 0 -8.34 0z" fill="rgba(37, 158, 164, 1)"></path>
            <path d="M637.5 62.5L837.5 62.5" strokeDasharray="8,960,24,960,16,400" strokeDashoffset='6400' strokeLinecap="butt" className="path" stroke-width="4.17" stroke="rgba(37, 158, 164, 1)"></path>
            <path d="M633.33 62.5 a4.17 4.17 0 1 0 8.34 0 a4.17 4.17 0 1 0 -8.34 0zM833.33 62.5 a4.17 4.17 0 1 0 8.34 0 a4.17 4.17 0 1 0 -8.34 0z" fill="rgba(37, 158, 164, 1)"></path>
            <path d="M687.5 87.5L612.5 87.5L287.5 412.5L287.5 487.5" stroke-width="4.17" stroke="rgba(37, 158, 164, 1)"></path>
            <path d="M683.33 87.5 a4.17 4.17 0 1 0 8.34 0 a4.17 4.17 0 1 0 -8.34 0zM283.33 487.5 a4.17 4.17 0 1 0 8.34 0 a4.17 4.17 0 1 0 -8.34 0z" fill="rgba(37, 158, 164, 1)"></path>
            <path d="M662.5 312.5L862.5 312.5" strokeDasharray="8,960,24,960,16,400" strokeDashoffset='6400' strokeLinecap="butt" className="path" stroke-width="4.17" stroke="rgba(37, 158, 164, 1)"></path>
            <path d="M658.33 312.5 a4.17 4.17 0 1 0 8.34 0 a4.17 4.17 0 1 0 -8.34 0zM858.33 312.5 a4.17 4.17 0 1 0 8.34 0 a4.17 4.17 0 1 0 -8.34 0z" fill="rgba(37, 158, 164, 1)"></path>
            <path d="M987.5 387.5L812.5 562.5L687.5 562.5L662.5 537.5L662.5 437.5L612.5 387.5" stroke-width="4.17" stroke="rgba(37, 158, 164, 1)"></path>
            <path d="M983.33 387.5 a4.17 4.17 0 1 0 8.34 0 a4.17 4.17 0 1 0 -8.34 0zM608.33 387.5 a4.17 4.17 0 1 0 8.34 0 a4.17 4.17 0 1 0 -8.34 0z" fill="rgba(37, 158, 164, 1)"></path>
            <path d="M1437.5 462.5L1362.5 462.5L1337.5 437.5" stroke-width="4.17" stroke="rgba(37, 158, 164, 1)"></path>
            <path d="M1433.33 462.5 a4.17 4.17 0 1 0 8.34 0 a4.17 4.17 0 1 0 -8.34 0zM1333.33 437.5 a4.17 4.17 0 1 0 8.34 0 a4.17 4.17 0 1 0 -8.34 0z" fill="rgba(37, 158, 164, 1)"></path>
            <path d="M1187.5 237.5L962.5 12.5L712.5 12.5" stroke-width="4.17" stroke="rgba(37, 158, 164, 1)"></path>
            <path d="M1183.33 237.5 a4.17 4.17 0 1 0 8.34 0 a4.17 4.17 0 1 0 -8.34 0zM708.33 12.5 a4.17 4.17 0 1 0 8.34 0 a4.17 4.17 0 1 0 -8.34 0z" fill="rgba(37, 158, 164, 1)"></path>
            <path d="M1287.5 162.5L1237.5 112.5" stroke-width="4.17" stroke="rgba(37, 158, 164, 1)"></path>
            <path d="M1283.33 162.5 a4.17 4.17 0 1 0 8.34 0 a4.17 4.17 0 1 0 -8.34 0zM1233.33 112.5 a4.17 4.17 0 1 0 8.34 0 a4.17 4.17 0 1 0 -8.34 0z" fill="rgba(37, 158, 164, 1)"></path>
            <path d="M712.5 87.5L837.5 87.5" stroke-width="4.17" stroke="rgba(37, 158, 164, 1)"></path>
            <path d="M708.33 87.5 a4.17 4.17 0 1 0 8.34 0 a4.17 4.17 0 1 0 -8.34 0zM833.33 87.5 a4.17 4.17 0 1 0 8.34 0 a4.17 4.17 0 1 0 -8.34 0z" fill="rgba(37, 158, 164, 1)"></path>
            <path d="M1212.5 37.5L1212.5 87.5L1187.5 112.5" stroke-width="4.17" stroke="rgba(37, 158, 164, 1)"></path>
            <path d="M1208.33 37.5 a4.17 4.17 0 1 0 8.34 0 a4.17 4.17 0 1 0 -8.34 0zM1183.33 112.5 a4.17 4.17 0 1 0 8.34 0 a4.17 4.17 0 1 0 -8.34 0z" fill="rgba(37, 158, 164, 1)"></path>
            <path d="M462.5 512.5L512.5 462.5L637.5 462.5" stroke-width="4.17" stroke="rgba(37, 158, 164, 1)"></path>
            <path d="M458.33 512.5 a4.17 4.17 0 1 0 8.34 0 a4.17 4.17 0 1 0 -8.34 0zM633.33 462.5 a4.17 4.17 0 1 0 8.34 0 a4.17 4.17 0 1 0 -8.34 0z" fill="rgba(37, 158, 164, 1)"></path>
            <path d="M787.5 462.5L962.5 287.5L962.5 37.5" stroke-width="4.17" stroke="rgba(37, 158, 164, 1)"></path>
            <path d="M783.33 462.5 a4.17 4.17 0 1 0 8.34 0 a4.17 4.17 0 1 0 -8.34 0zM958.33 37.5 a4.17 4.17 0 1 0 8.34 0 a4.17 4.17 0 1 0 -8.34 0z" fill="rgba(37, 158, 164, 1)"></path>
            <path d="M1062.5 37.5L1012.5 37.5L987.5 12.5" stroke-width="4.17" stroke="rgba(37, 158, 164, 1)"></path>
            <path d="M1058.33 37.5 a4.17 4.17 0 1 0 8.34 0 a4.17 4.17 0 1 0 -8.34 0zM983.33 12.5 a4.17 4.17 0 1 0 8.34 0 a4.17 4.17 0 1 0 -8.34 0z" fill="rgba(37, 158, 164, 1)"></path>
            <path d="M512.5 62.5L537.5 37.5L587.5 37.5L612.5 62.5" stroke-width="4.17" stroke="rgba(37, 158, 164, 1)"></path>
            <path d="M508.33 62.5 a4.17 4.17 0 1 0 8.34 0 a4.17 4.17 0 1 0 -8.34 0zM608.33 62.5 a4.17 4.17 0 1 0 8.34 0 a4.17 4.17 0 1 0 -8.34 0z" fill="rgba(37, 158, 164, 1)"></path>
            <path d="M1062.5 337.5L1012.5 387.5L1012.5 412.5L887.5 537.5L887.5 562.5" stroke-width="4.17" stroke="rgba(37, 158, 164, 1)"></path>
            <path d="M1058.33 337.5 a4.17 4.17 0 1 0 8.34 0 a4.17 4.17 0 1 0 -8.34 0zM883.33 562.5 a4.17 4.17 0 1 0 8.34 0 a4.17 4.17 0 1 0 -8.34 0z" fill="rgba(37, 158, 164, 1)"></path>
            <path d="M637.5 362.5L637.5 387.5L687.5 437.5L687.5 537.5" strokeDasharray="8,960,24,960,16,400" strokeDashoffset='6400' strokeLinecap="butt" className="path" stroke-width="4.17" stroke="rgba(37, 158, 164, 1)"></path>
            <path d="M633.33 362.5 a4.17 4.17 0 1 0 8.34 0 a4.17 4.17 0 1 0 -8.34 0zM683.33 537.5 a4.17 4.17 0 1 0 8.34 0 a4.17 4.17 0 1 0 -8.34 0z" fill="rgba(37, 158, 164, 1)"></path>
            <path d="M487.5 337.5L487.5 262.5L637.5 112.5L837.5 112.5" stroke-width="4.17" stroke="rgba(37, 158, 164, 1)"></path>
            <path d="M483.33 337.5 a4.17 4.17 0 1 0 8.34 0 a4.17 4.17 0 1 0 -8.34 0zM833.33 112.5 a4.17 4.17 0 1 0 8.34 0 a4.17 4.17 0 1 0 -8.34 0z" fill="rgba(37, 158, 164, 1)"></path>
            <path d="M337.5 237.5L187.5 387.5L187.5 412.5L237.5 462.5" stroke-width="4.17" stroke="rgba(37, 158, 164, 1)"></path>
            <path d="M333.33 237.5 a4.17 4.17 0 1 0 8.34 0 a4.17 4.17 0 1 0 -8.34 0zM233.33 462.5 a4.17 4.17 0 1 0 8.34 0 a4.17 4.17 0 1 0 -8.34 0z" fill="rgba(37, 158, 164, 1)"></path>
            <path d="M637.5 187.5L637.5 337.5L737.5 437.5L762.5 437.5L862.5 337.5" stroke-width="4.17" stroke="rgba(37, 158, 164, 1)"></path>
            <path d="M633.33 187.5 a4.17 4.17 0 1 0 8.34 0 a4.17 4.17 0 1 0 -8.34 0zM858.33 337.5 a4.17 4.17 0 1 0 8.34 0 a4.17 4.17 0 1 0 -8.34 0z" fill="rgba(37, 158, 164, 1)"></path>
            <path d="M412.5 512.5L412.5 562.5" strokeDasharray="8,960,24,960,16,400" strokeDashoffset='6400' strokeLinecap="butt" className="path" stroke-width="4.17" stroke="rgba(37, 158, 164, 1)"></path>
            <path d="M408.33 512.5 a4.17 4.17 0 1 0 8.34 0 a4.17 4.17 0 1 0 -8.34 0zM408.33 562.5 a4.17 4.17 0 1 0 8.34 0 a4.17 4.17 0 1 0 -8.34 0z" fill="rgba(37, 158, 164, 1)"></path>
            <path d="M612.5 162.5L837.5 162.5" strokeDasharray="8,960,24,960,16,400" strokeDashoffset='6400' strokeLinecap="butt" className="path"  stroke-width="4.17" stroke="rgba(37, 158, 164, 1)"></path>
            <path d="M608.33 162.5 a4.17 4.17 0 1 0 8.34 0 a4.17 4.17 0 1 0 -8.34 0zM833.33 162.5 a4.17 4.17 0 1 0 8.34 0 a4.17 4.17 0 1 0 -8.34 0z" fill="rgba(37, 158, 164, 1)"></path>
            <path d="M1187.5 487.5L1312.5 362.5" stroke-width="4.17" stroke="rgba(37, 158, 164, 1)"></path>
            <path d="M1183.33 487.5 a4.17 4.17 0 1 0 8.34 0 a4.17 4.17 0 1 0 -8.34 0zM1308.33 362.5 a4.17 4.17 0 1 0 8.34 0 a4.17 4.17 0 1 0 -8.34 0z" fill="rgba(37, 158, 164, 1)"></path>
            <path d="M612.5 262.5L612.5 187.5" stroke-width="4.17" stroke="rgba(37, 158, 164, 1)"></path>
            <path d="M608.33 262.5 a4.17 4.17 0 1 0 8.34 0 a4.17 4.17 0 1 0 -8.34 0zM608.33 187.5 a4.17 4.17 0 1 0 8.34 0 a4.17 4.17 0 1 0 -8.34 0z" fill="rgba(37, 158, 164, 1)"></path>
            <path d="M787.5 137.5L837.5 137.5" stroke-width="4.17" stroke="rgba(37, 158, 164, 1)"></path>
            <path d="M783.33 137.5 a4.17 4.17 0 1 0 8.34 0 a4.17 4.17 0 1 0 -8.34 0zM833.33 137.5 a4.17 4.17 0 1 0 8.34 0 a4.17 4.17 0 1 0 -8.34 0z" fill="rgba(37, 158, 164, 1)"></path>
            <path d="M1012.5 362.5L962.5 312.5" stroke-width="4.17" stroke="rgba(37, 158, 164, 1)"></path>
            <path d="M1008.33 362.5 a4.17 4.17 0 1 0 8.34 0 a4.17 4.17 0 1 0 -8.34 0zM958.33 312.5 a4.17 4.17 0 1 0 8.34 0 a4.17 4.17 0 1 0 -8.34 0z" fill="rgba(37, 158, 164, 1)"></path>
            <path d="M1412.5 87.5L1412.5 12.5" stroke-width="4.17" stroke="rgba(37, 158, 164, 1)"></path>
            <path d="M1408.33 87.5 a4.17 4.17 0 1 0 8.34 0 a4.17 4.17 0 1 0 -8.34 0zM1408.33 12.5 a4.17 4.17 0 1 0 8.34 0 a4.17 4.17 0 1 0 -8.34 0z" fill="rgba(37, 158, 164, 1)"></path>
            <path d="M112.5 537.5L112.5 462.5L137.5 437.5L162.5 437.5L187.5 462.5" stroke-width="4.17" stroke="rgba(37, 158, 164, 1)"></path>
            <path d="M108.33 537.5 a4.17 4.17 0 1 0 8.34 0 a4.17 4.17 0 1 0 -8.34 0zM183.33 462.5 a4.17 4.17 0 1 0 8.34 0 a4.17 4.17 0 1 0 -8.34 0z" fill="rgba(37, 158, 164, 1)"></path>
            <path d="M737.5 387.5L687.5 337.5" stroke-width="4.17" stroke="rgba(37, 158, 164, 1)"></path>
            <path d="M733.33 387.5 a4.17 4.17 0 1 0 8.34 0 a4.17 4.17 0 1 0 -8.34 0zM683.33 337.5 a4.17 4.17 0 1 0 8.34 0 a4.17 4.17 0 1 0 -8.34 0z" fill="rgba(37, 158, 164, 1)"></path>
            <path d="M1237.5 287.5L1112.5 412.5L1037.5 412.5L912.5 537.5L912.5 562.5" stroke-width="4.17" stroke="rgba(37, 158, 164, 1)"></path>
            <path d="M1233.33 287.5 a4.17 4.17 0 1 0 8.34 0 a4.17 4.17 0 1 0 -8.34 0zM908.33 562.5 a4.17 4.17 0 1 0 8.34 0 a4.17 4.17 0 1 0 -8.34 0z" fill="rgba(37, 158, 164, 1)"></path>
            <path d="M212.5 212.5L362.5 212.5L487.5 87.5L487.5 37.5" stroke-width="4.17" stroke="rgba(37, 158, 164, 1)"></path>
            <path d="M208.33 212.5 a4.17 4.17 0 1 0 8.34 0 a4.17 4.17 0 1 0 -8.34 0zM483.33 37.5 a4.17 4.17 0 1 0 8.34 0 a4.17 4.17 0 1 0 -8.34 0z" fill="rgba(37, 158, 164, 1)"></path>
            <path d="M637.5 537.5L612.5 562.5L437.5 562.5" stroke-width="4.17" stroke="rgba(37, 158, 164, 1)"></path>
            <path d="M633.33 537.5 a4.17 4.17 0 1 0 8.34 0 a4.17 4.17 0 1 0 -8.34 0zM433.33 562.5 a4.17 4.17 0 1 0 8.34 0 a4.17 4.17 0 1 0 -8.34 0z" fill="rgba(37, 158, 164, 1)"></path>
            <path d="M1262.5 112.5L1287.5 87.5L1287.5 62.5L1337.5 12.5L1387.5 12.5" stroke-width="4.17" stroke="rgba(37, 158, 164, 1)"></path>
            <path d="M1258.33 112.5 a4.17 4.17 0 1 0 8.34 0 a4.17 4.17 0 1 0 -8.34 0zM1383.33 12.5 a4.17 4.17 0 1 0 8.34 0 a4.17 4.17 0 1 0 -8.34 0z" fill="rgba(37, 158, 164, 1)"></path>
            <path d="M287.5 512.5L462.5 337.5L462.5 312.5" stroke-width="4.17" stroke="rgba(37, 158, 164, 1)"></path>
            <path d="M283.33 512.5 a4.17 4.17 0 1 0 8.34 0 a4.17 4.17 0 1 0 -8.34 0zM458.33 312.5 a4.17 4.17 0 1 0 8.34 0 a4.17 4.17 0 1 0 -8.34 0z" fill="rgba(37, 158, 164, 1)"></path>
            <path d="M737.5 412.5L812.5 337.5L837.5 337.5" stroke-width="4.17" stroke="rgba(37, 158, 164, 1)"></path>
            <path d="M733.33 412.5 a4.17 4.17 0 1 0 8.34 0 a4.17 4.17 0 1 0 -8.34 0zM833.33 337.5 a4.17 4.17 0 1 0 8.34 0 a4.17 4.17 0 1 0 -8.34 0z" fill="rgba(37, 158, 164, 1)"></path>
            <path d="M212.5 112.5L262.5 62.5" stroke-width="4.17" stroke="rgba(37, 158, 164, 1)"></path>
            <path d="M208.33 112.5 a4.17 4.17 0 1 0 8.34 0 a4.17 4.17 0 1 0 -8.34 0zM258.33 62.5 a4.17 4.17 0 1 0 8.34 0 a4.17 4.17 0 1 0 -8.34 0z" fill="rgba(37, 158, 164, 1)"></path>
            <path d="M1012.5 487.5L937.5 562.5" stroke-width="4.17" stroke="rgba(37, 158, 164, 1)"></path>
            <path d="M1008.33 487.5 a4.17 4.17 0 1 0 8.34 0 a4.17 4.17 0 1 0 -8.34 0zM933.33 562.5 a4.17 4.17 0 1 0 8.34 0 a4.17 4.17 0 1 0 -8.34 0z" fill="rgba(37, 158, 164, 1)"></path>
            <path d="M387.5 87.5L262.5 87.5L187.5 162.5L187.5 212.5L262.5 287.5" stroke-width="4.17" stroke="rgba(37, 158, 164, 1)"></path>
            <path d="M383.33 87.5 a4.17 4.17 0 1 0 8.34 0 a4.17 4.17 0 1 0 -8.34 0zM258.33 287.5 a4.17 4.17 0 1 0 8.34 0 a4.17 4.17 0 1 0 -8.34 0z" fill="rgba(37, 158, 164, 1)"></path>
            <path d="M1037.5 187.5L1062.5 162.5L1087.5 162.5L1212.5 287.5" stroke-width="4.17" stroke="rgba(37, 158, 164, 1)"></path>
            <path d="M1033.33 187.5 a4.17 4.17 0 1 0 8.34 0 a4.17 4.17 0 1 0 -8.34 0zM1208.33 287.5 a4.17 4.17 0 1 0 8.34 0 a4.17 4.17 0 1 0 -8.34 0z" fill="rgba(37, 158, 164, 1)"></path>
            <path d="M912.5 387.5L962.5 337.5" stroke-width="4.17" stroke="rgba(37, 158, 164, 1)"></path>
            <path d="M908.33 387.5 a4.17 4.17 0 1 0 8.34 0 a4.17 4.17 0 1 0 -8.34 0zM958.33 337.5 a4.17 4.17 0 1 0 8.34 0 a4.17 4.17 0 1 0 -8.34 0z" fill="rgba(37, 158, 164, 1)"></path>
            <path d="M487.5 187.5L487.5 137.5L562.5 62.5L587.5 62.5" stroke-width="4.17" stroke="rgba(37, 158, 164, 1)"></path>
            <path d="M483.33 187.5 a4.17 4.17 0 1 0 8.34 0 a4.17 4.17 0 1 0 -8.34 0zM583.33 62.5 a4.17 4.17 0 1 0 8.34 0 a4.17 4.17 0 1 0 -8.34 0z" fill="rgba(37, 158, 164, 1)"></path>
            <path d="M62.5 412.5L62.5 462.5L87.5 487.5L87.5 537.5" stroke-width="4.17" stroke="rgba(37, 158, 164, 1)"></path>
            <path d="M58.33 412.5 a4.17 4.17 0 1 0 8.34 0 a4.17 4.17 0 1 0 -8.34 0zM83.33 537.5 a4.17 4.17 0 1 0 8.34 0 a4.17 4.17 0 1 0 -8.34 0z" fill="rgba(37, 158, 164, 1)"></path>
            <path d="M37.5 87.5L37.5 187.5" stroke-width="4.17" stroke="rgba(37, 158, 164, 1)"></path>
            <path d="M33.33 87.5 a4.17 4.17 0 1 0 8.34 0 a4.17 4.17 0 1 0 -8.34 0zM33.33 187.5 a4.17 4.17 0 1 0 8.34 0 a4.17 4.17 0 1 0 -8.34 0z" fill="rgba(37, 158, 164, 1)"></path>
            <path d="M762.5 237.5L662.5 237.5" stroke-width="4.17" stroke="rgba(37, 158, 164, 1)"></path>
            <path d="M758.33 237.5 a4.17 4.17 0 1 0 8.34 0 a4.17 4.17 0 1 0 -8.34 0zM658.33 237.5 a4.17 4.17 0 1 0 8.34 0 a4.17 4.17 0 1 0 -8.34 0z" fill="rgba(37, 158, 164, 1)"></path>
            <path d="M1137.5 312.5L987.5 162.5L987.5 62.5" stroke-width="4.17" stroke="rgba(37, 158, 164, 1)"></path>
            <path d="M1133.33 312.5 a4.17 4.17 0 1 0 8.34 0 a4.17 4.17 0 1 0 -8.34 0zM983.33 62.5 a4.17 4.17 0 1 0 8.34 0 a4.17 4.17 0 1 0 -8.34 0z" fill="rgba(37, 158, 164, 1)"></path>
            <path d="M1037.5 287.5L1012.5 312.5L1012.5 337.5" stroke-width="4.17" stroke="rgba(37, 158, 164, 1)"></path>
            <path d="M1033.33 287.5 a4.17 4.17 0 1 0 8.34 0 a4.17 4.17 0 1 0 -8.34 0zM1008.33 337.5 a4.17 4.17 0 1 0 8.34 0 a4.17 4.17 0 1 0 -8.34 0z" fill="rgba(37, 158, 164, 1)"></path>
            <path d="M1162.5 262.5L1187.5 287.5L1187.5 312.5L1112.5 387.5L1037.5 387.5" stroke-width="4.17" stroke="rgba(37, 158, 164, 1)"></path>
            <path d="M1158.33 262.5 a4.17 4.17 0 1 0 8.34 0 a4.17 4.17 0 1 0 -8.34 0zM1033.33 387.5 a4.17 4.17 0 1 0 8.34 0 a4.17 4.17 0 1 0 -8.34 0z" fill="rgba(37, 158, 164, 1)"></path>
            <path d="M562.5 262.5L612.5 312.5L612.5 362.5L587.5 387.5L587.5 437.5" stroke-width="4.17" stroke="rgba(37, 158, 164, 1)"></path>
            <path d="M558.33 262.5 a4.17 4.17 0 1 0 8.34 0 a4.17 4.17 0 1 0 -8.34 0zM583.33 437.5 a4.17 4.17 0 1 0 8.34 0 a4.17 4.17 0 1 0 -8.34 0z" fill="rgba(37, 158, 164, 1)"></path>
            <path d="M662.5 187.5L712.5 187.5" stroke-width="4.17" stroke="rgba(37, 158, 164, 1)"></path>
            <path d="M658.33 187.5 a4.17 4.17 0 1 0 8.34 0 a4.17 4.17 0 1 0 -8.34 0zM708.33 187.5 a4.17 4.17 0 1 0 8.34 0 a4.17 4.17 0 1 0 -8.34 0z" fill="rgba(37, 158, 164, 1)"></path>
            <path d="M187.5 287.5L212.5 312.5L237.5 312.5" stroke-width="4.17" stroke="rgba(37, 158, 164, 1)"></path>
            <path d="M183.33 287.5 a4.17 4.17 0 1 0 8.34 0 a4.17 4.17 0 1 0 -8.34 0zM233.33 312.5 a4.17 4.17 0 1 0 8.34 0 a4.17 4.17 0 1 0 -8.34 0z" fill="rgba(37, 158, 164, 1)"></path>
            <path d="M1237.5 212.5L1212.5 237.5L1212.5 262.5" stroke-width="4.17" stroke="rgba(37, 158, 164, 1)"></path>
            <path d="M1233.33 212.5 a4.17 4.17 0 1 0 8.34 0 a4.17 4.17 0 1 0 -8.34 0zM1208.33 262.5 a4.17 4.17 0 1 0 8.34 0 a4.17 4.17 0 1 0 -8.34 0z" fill="rgba(37, 158, 164, 1)"></path>
            <path d="M862.5 462.5L887.5 462.5L987.5 362.5" stroke-width="4.17" stroke="rgba(37, 158, 164, 1)"></path>
            <path d="M858.33 462.5 a4.17 4.17 0 1 0 8.34 0 a4.17 4.17 0 1 0 -8.34 0zM983.33 362.5 a4.17 4.17 0 1 0 8.34 0 a4.17 4.17 0 1 0 -8.34 0z" fill="rgba(37, 158, 164, 1)"></path>
            <path d="M462.5 487.5L587.5 362.5L587.5 312.5L537.5 262.5L512.5 262.5" stroke-width="4.17" stroke="rgba(37, 158, 164, 1)"></path>
            <path d="M458.33 487.5 a4.17 4.17 0 1 0 8.34 0 a4.17 4.17 0 1 0 -8.34 0zM508.33 262.5 a4.17 4.17 0 1 0 8.34 0 a4.17 4.17 0 1 0 -8.34 0z" fill="rgba(37, 158, 164, 1)"></path>
            <path d="M62.5 112.5L62.5 187.5" stroke-width="4.17" stroke="rgba(37, 158, 164, 1)"></path>
            <path d="M58.33 112.5 a4.17 4.17 0 1 0 8.34 0 a4.17 4.17 0 1 0 -8.34 0zM58.33 187.5 a4.17 4.17 0 1 0 8.34 0 a4.17 4.17 0 1 0 -8.34 0z" fill="rgba(37, 158, 164, 1)"></path>
            <path d="M912.5 287.5L937.5 262.5L937.5 62.5" stroke-width="4.17" stroke="rgba(37, 158, 164, 1)"></path>
            <path d="M908.33 287.5 a4.17 4.17 0 1 0 8.34 0 a4.17 4.17 0 1 0 -8.34 0zM933.33 62.5 a4.17 4.17 0 1 0 8.34 0 a4.17 4.17 0 1 0 -8.34 0z" fill="rgba(37, 158, 164, 1)"></path>
            <path d="M812.5 262.5L812.5 187.5" stroke-width="4.17" stroke="rgba(37, 158, 164, 1)"></path>
            <path d="M808.33 262.5 a4.17 4.17 0 1 0 8.34 0 a4.17 4.17 0 1 0 -8.34 0zM808.33 187.5 a4.17 4.17 0 1 0 8.34 0 a4.17 4.17 0 1 0 -8.34 0z" fill="rgba(37, 158, 164, 1)"></path>
            <path d="M337.5 137.5L412.5 137.5L462.5 87.5L462.5 37.5L437.5 12.5L262.5 12.5" stroke-width="4.17" stroke="rgba(37, 158, 164, 1)"></path>
            <path d="M333.33 137.5 a4.17 4.17 0 1 0 8.34 0 a4.17 4.17 0 1 0 -8.34 0zM258.33 12.5 a4.17 4.17 0 1 0 8.34 0 a4.17 4.17 0 1 0 -8.34 0z" fill="rgba(37, 158, 164, 1)"></path>
            <path d="M1387.5 237.5L1312.5 237.5L1287.5 212.5" stroke-width="4.17" stroke="rgba(37, 158, 164, 1)"></path>
            <path d="M1383.33 237.5 a4.17 4.17 0 1 0 8.34 0 a4.17 4.17 0 1 0 -8.34 0zM1283.33 212.5 a4.17 4.17 0 1 0 8.34 0 a4.17 4.17 0 1 0 -8.34 0z" fill="rgba(37, 158, 164, 1)"></path>
            <path d="M362.5 262.5L412.5 262.5L462.5 212.5L462.5 162.5" stroke-width="4.17" stroke="rgba(37, 158, 164, 1)"></path>
            <path d="M358.33 262.5 a4.17 4.17 0 1 0 8.34 0 a4.17 4.17 0 1 0 -8.34 0zM458.33 162.5 a4.17 4.17 0 1 0 8.34 0 a4.17 4.17 0 1 0 -8.34 0z" fill="rgba(37, 158, 164, 1)"></path>
            <path d="M212.5 187.5L362.5 187.5L387.5 162.5" stroke-width="4.17" stroke="rgba(37, 158, 164, 1)"></path>
            <path d="M208.33 187.5 a4.17 4.17 0 1 0 8.34 0 a4.17 4.17 0 1 0 -8.34 0zM383.33 162.5 a4.17 4.17 0 1 0 8.34 0 a4.17 4.17 0 1 0 -8.34 0z" fill="rgba(37, 158, 164, 1)"></path>
            <path d="M712.5 287.5L862.5 287.5" stroke-width="4.17" stroke="rgba(37, 158, 164, 1)"></path>
            <path d="M708.33 287.5 a4.17 4.17 0 1 0 8.34 0 a4.17 4.17 0 1 0 -8.34 0zM858.33 287.5 a4.17 4.17 0 1 0 8.34 0 a4.17 4.17 0 1 0 -8.34 0z" fill="rgba(37, 158, 164, 1)"></path>
            <path d="M762.5 262.5L787.5 237.5L787.5 187.5" stroke-width="4.17" stroke="rgba(37, 158, 164, 1)"></path>
            <path d="M758.33 262.5 a4.17 4.17 0 1 0 8.34 0 a4.17 4.17 0 1 0 -8.34 0zM783.33 187.5 a4.17 4.17 0 1 0 8.34 0 a4.17 4.17 0 1 0 -8.34 0z" fill="rgba(37, 158, 164, 1)"></path>
            <path d="M12.5 562.5L62.5 562.5" stroke-width="4.17" stroke="rgba(37, 158, 164, 1)"></path>
            <path d="M8.33 562.5 a4.17 4.17 0 1 0 8.34 0 a4.17 4.17 0 1 0 -8.34 0zM58.33 562.5 a4.17 4.17 0 1 0 8.34 0 a4.17 4.17 0 1 0 -8.34 0z" fill="rgba(37, 158, 164, 1)"></path>
            <path d="M812.5 462.5L837.5 487.5L862.5 487.5" stroke-width="4.17" stroke="rgba(37, 158, 164, 1)"></path>
            <path d="M808.33 462.5 a4.17 4.17 0 1 0 8.34 0 a4.17 4.17 0 1 0 -8.34 0zM858.33 487.5 a4.17 4.17 0 1 0 8.34 0 a4.17 4.17 0 1 0 -8.34 0z" fill="rgba(37, 158, 164, 1)"></path>
            <path d="M1412.5 412.5L1387.5 412.5L1362.5 437.5" stroke-width="4.17" stroke="rgba(37, 158, 164, 1)"></path>
            <path d="M1408.33 412.5 a4.17 4.17 0 1 0 8.34 0 a4.17 4.17 0 1 0 -8.34 0zM1358.33 437.5 a4.17 4.17 0 1 0 8.34 0 a4.17 4.17 0 1 0 -8.34 0z" fill="rgba(37, 158, 164, 1)"></path>
            <path d="M1062.5 512.5L1062.5 562.5" stroke-width="4.17" stroke="rgba(37, 158, 164, 1)"></path>
            <path d="M1058.33 512.5 a4.17 4.17 0 1 0 8.34 0 a4.17 4.17 0 1 0 -8.34 0zM1058.33 562.5 a4.17 4.17 0 1 0 8.34 0 a4.17 4.17 0 1 0 -8.34 0z" fill="rgba(37, 158, 164, 1)"></path>
            <path d="M362.5 487.5L287.5 562.5L137.5 562.5" stroke-width="4.17" stroke="rgba(37, 158, 164, 1)"></path>
            <path d="M358.33 487.5 a4.17 4.17 0 1 0 8.34 0 a4.17 4.17 0 1 0 -8.34 0zM133.33 562.5 a4.17 4.17 0 1 0 8.34 0 a4.17 4.17 0 1 0 -8.34 0z" fill="rgba(37, 158, 164, 1)"></path>
            <path d="M1187.5 437.5L1187.5 462.5L1112.5 537.5" stroke-width="4.17" stroke="rgba(37, 158, 164, 1)"></path>
            <path d="M1183.33 437.5 a4.17 4.17 0 1 0 8.34 0 a4.17 4.17 0 1 0 -8.34 0zM1108.33 537.5 a4.17 4.17 0 1 0 8.34 0 a4.17 4.17 0 1 0 -8.34 0z" fill="rgba(37, 158, 164, 1)"></path>
            <path d="M1312.5 162.5L1312.5 62.5L1337.5 37.5L1387.5 37.5" stroke-width="4.17" stroke="rgba(37, 158, 164, 1)"></path>
            <path d="M1308.33 162.5 a4.17 4.17 0 1 0 8.34 0 a4.17 4.17 0 1 0 -8.34 0zM1383.33 37.5 a4.17 4.17 0 1 0 8.34 0 a4.17 4.17 0 1 0 -8.34 0z" fill="rgba(37, 158, 164, 1)"></path>
            <path d="M337.5 562.5L537.5 362.5L562.5 362.5" stroke-width="4.17" stroke="rgba(37, 158, 164, 1)"></path>
            <path d="M333.33 562.5 a4.17 4.17 0 1 0 8.34 0 a4.17 4.17 0 1 0 -8.34 0zM558.33 362.5 a4.17 4.17 0 1 0 8.34 0 a4.17 4.17 0 1 0 -8.34 0z" fill="rgba(37, 158, 164, 1)"></path>
            <path d="M837.5 437.5L887.5 437.5L912.5 412.5" stroke-width="4.17" stroke="rgba(37, 158, 164, 1)"></path>
            <path d="M833.33 437.5 a4.17 4.17 0 1 0 8.34 0 a4.17 4.17 0 1 0 -8.34 0zM908.33 412.5 a4.17 4.17 0 1 0 8.34 0 a4.17 4.17 0 1 0 -8.34 0z" fill="rgba(37, 158, 164, 1)"></path>
            <path d="M1362.5 537.5L1412.5 487.5L1437.5 487.5" stroke-width="4.17" stroke="rgba(37, 158, 164, 1)"></path>
            <path d="M1358.33 537.5 a4.17 4.17 0 1 0 8.34 0 a4.17 4.17 0 1 0 -8.34 0zM1433.33 487.5 a4.17 4.17 0 1 0 8.34 0 a4.17 4.17 0 1 0 -8.34 0z" fill="rgba(37, 158, 164, 1)"></path>
            <path d="M987.5 562.5L1062.5 487.5L1062.5 437.5" stroke-width="4.17" stroke="rgba(37, 158, 164, 1)"></path>
            <path d="M983.33 562.5 a4.17 4.17 0 1 0 8.34 0 a4.17 4.17 0 1 0 -8.34 0zM1058.33 437.5 a4.17 4.17 0 1 0 8.34 0 a4.17 4.17 0 1 0 -8.34 0z" fill="rgba(37, 158, 164, 1)"></path>
            <path d="M587.5 487.5L637.5 487.5" stroke-width="4.17" stroke="rgba(37, 158, 164, 1)"></path>
            <path d="M583.33 487.5 a4.17 4.17 0 1 0 8.34 0 a4.17 4.17 0 1 0 -8.34 0zM633.33 487.5 a4.17 4.17 0 1 0 8.34 0 a4.17 4.17 0 1 0 -8.34 0z" fill="rgba(37, 158, 164, 1)"></path>
            <path d="M562.5 212.5L587.5 237.5L587.5 262.5" stroke-width="4.17" stroke="rgba(37, 158, 164, 1)"></path>
            <path d="M558.33 212.5 a4.17 4.17 0 1 0 8.34 0 a4.17 4.17 0 1 0 -8.34 0zM583.33 262.5 a4.17 4.17 0 1 0 8.34 0 a4.17 4.17 0 1 0 -8.34 0z" fill="rgba(37, 158, 164, 1)"></path>
            <path d="M62.5 362.5L37.5 337.5L37.5 237.5" stroke-width="4.17" stroke="rgba(37, 158, 164, 1)"></path>
            <path d="M58.33 362.5 a4.17 4.17 0 1 0 8.34 0 a4.17 4.17 0 1 0 -8.34 0zM33.33 237.5 a4.17 4.17 0 1 0 8.34 0 a4.17 4.17 0 1 0 -8.34 0z" fill="rgba(37, 158, 164, 1)"></path>
            <path d="M1287.5 537.5L1237.5 537.5L1212.5 562.5" stroke-width="4.17" stroke="rgba(37, 158, 164, 1)"></path>
            <path d="M1283.33 537.5 a4.17 4.17 0 1 0 8.34 0 a4.17 4.17 0 1 0 -8.34 0zM1208.33 562.5 a4.17 4.17 0 1 0 8.34 0 a4.17 4.17 0 1 0 -8.34 0z" fill="rgba(37, 158, 164, 1)"></path>
            <path d="M287.5 112.5L262.5 112.5L212.5 162.5" stroke-width="4.17" stroke="rgba(37, 158, 164, 1)"></path>
            <path d="M283.33 112.5 a4.17 4.17 0 1 0 8.34 0 a4.17 4.17 0 1 0 -8.34 0zM208.33 162.5 a4.17 4.17 0 1 0 8.34 0 a4.17 4.17 0 1 0 -8.34 0z" fill="rgba(37, 158, 164, 1)"></path>
            <path d="M437.5 412.5L462.5 412.5L562.5 312.5" stroke-width="4.17" stroke="rgba(37, 158, 164, 1)"></path>
            <path d="M433.33 412.5 a4.17 4.17 0 1 0 8.34 0 a4.17 4.17 0 1 0 -8.34 0zM558.33 312.5 a4.17 4.17 0 1 0 8.34 0 a4.17 4.17 0 1 0 -8.34 0z" fill="rgba(37, 158, 164, 1)"></path>
            <path d="M1287.5 562.5L1237.5 562.5" stroke-width="4.17" stroke="rgba(37, 158, 164, 1)"></path>
            <path d="M1283.33 562.5 a4.17 4.17 0 1 0 8.34 0 a4.17 4.17 0 1 0 -8.34 0zM1233.33 562.5 a4.17 4.17 0 1 0 8.34 0 a4.17 4.17 0 1 0 -8.34 0z" fill="rgba(37, 158, 164, 1)"></path>
            <path d="M1337.5 137.5L1412.5 137.5" stroke-width="4.17" stroke="rgba(37, 158, 164, 1)"></path>
            <path d="M1333.33 137.5 a4.17 4.17 0 1 0 8.34 0 a4.17 4.17 0 1 0 -8.34 0zM1408.33 137.5 a4.17 4.17 0 1 0 8.34 0 a4.17 4.17 0 1 0 -8.34 0z" fill="rgba(37, 158, 164, 1)"></path>
            <path d="M1437.5 437.5L1437.5 312.5" stroke-width="4.17" stroke="rgba(37, 158, 164, 1)"></path>
            <path d="M1433.33 437.5 a4.17 4.17 0 1 0 8.34 0 a4.17 4.17 0 1 0 -8.34 0zM1433.33 312.5 a4.17 4.17 0 1 0 8.34 0 a4.17 4.17 0 1 0 -8.34 0z" fill="rgba(37, 158, 164, 1)"></path>
            <path d="M262.5 162.5L362.5 162.5" stroke-width="4.17" stroke="rgba(37, 158, 164, 1)"></path>
            <path d="M258.33 162.5 a4.17 4.17 0 1 0 8.34 0 a4.17 4.17 0 1 0 -8.34 0zM358.33 162.5 a4.17 4.17 0 1 0 8.34 0 a4.17 4.17 0 1 0 -8.34 0z" fill="rgba(37, 158, 164, 1)"></path>
            <path d="M312.5 37.5L437.5 37.5" stroke-width="4.17" stroke="rgba(37, 158, 164, 1)"></path>
            <path d="M308.33 37.5 a4.17 4.17 0 1 0 8.34 0 a4.17 4.17 0 1 0 -8.34 0zM433.33 37.5 a4.17 4.17 0 1 0 8.34 0 a4.17 4.17 0 1 0 -8.34 0z" fill="rgba(37, 158, 164, 1)"></path>
            <path d="M412.5 437.5L387.5 437.5L362.5 462.5" stroke-width="4.17" stroke="rgba(37, 158, 164, 1)"></path>
            <path d="M408.33 437.5 a4.17 4.17 0 1 0 8.34 0 a4.17 4.17 0 1 0 -8.34 0zM358.33 462.5 a4.17 4.17 0 1 0 8.34 0 a4.17 4.17 0 1 0 -8.34 0z" fill="rgba(37, 158, 164, 1)"></path>
            <path d="M737.5 487.5L737.5 512.5L762.5 537.5" stroke-width="4.17" stroke="rgba(37, 158, 164, 1)"></path>
            <path d="M733.33 487.5 a4.17 4.17 0 1 0 8.34 0 a4.17 4.17 0 1 0 -8.34 0zM758.33 537.5 a4.17 4.17 0 1 0 8.34 0 a4.17 4.17 0 1 0 -8.34 0z" fill="rgba(37, 158, 164, 1)"></path>
            <path d="M362.5 412.5L312.5 462.5" stroke-width="4.17" stroke="rgba(37, 158, 164, 1)"></path>
            <path d="M358.33 412.5 a4.17 4.17 0 1 0 8.34 0 a4.17 4.17 0 1 0 -8.34 0zM308.33 462.5 a4.17 4.17 0 1 0 8.34 0 a4.17 4.17 0 1 0 -8.34 0z" fill="rgba(37, 158, 164, 1)"></path>
            <path d="M1112.5 112.5L1162.5 162.5" stroke-width="4.17" stroke="rgba(37, 158, 164, 1)"></path>
            <path d="M1108.33 112.5 a4.17 4.17 0 1 0 8.34 0 a4.17 4.17 0 1 0 -8.34 0zM1158.33 162.5 a4.17 4.17 0 1 0 8.34 0 a4.17 4.17 0 1 0 -8.34 0z" fill="rgba(37, 158, 164, 1)"></path>
            <path d="M1287.5 337.5L1312.5 312.5L1312.5 287.5L1262.5 237.5L1237.5 237.5" stroke-width="4.17" stroke="rgba(37, 158, 164, 1)"></path>
            <path d="M1283.33 337.5 a4.17 4.17 0 1 0 8.34 0 a4.17 4.17 0 1 0 -8.34 0zM1233.33 237.5 a4.17 4.17 0 1 0 8.34 0 a4.17 4.17 0 1 0 -8.34 0z" fill="rgba(37, 158, 164, 1)"></path>
            <path d="M212.5 512.5L187.5 512.5L162.5 537.5" stroke-width="4.17" stroke="rgba(37, 158, 164, 1)"></path>
            <path d="M208.33 512.5 a4.17 4.17 0 1 0 8.34 0 a4.17 4.17 0 1 0 -8.34 0zM158.33 537.5 a4.17 4.17 0 1 0 8.34 0 a4.17 4.17 0 1 0 -8.34 0z" fill="rgba(37, 158, 164, 1)"></path>
            <path d="M1412.5 262.5L1387.5 287.5L1362.5 287.5" stroke-width="4.17" stroke="rgba(37, 158, 164, 1)"></path>
            <path d="M1408.33 262.5 a4.17 4.17 0 1 0 8.34 0 a4.17 4.17 0 1 0 -8.34 0zM1358.33 287.5 a4.17 4.17 0 1 0 8.34 0 a4.17 4.17 0 1 0 -8.34 0z" fill="rgba(37, 158, 164, 1)"></path>
            <path d="M1162.5 62.5L1112.5 12.5L1037.5 12.5" stroke-width="4.17" stroke="rgba(37, 158, 164, 1)"></path>
            <path d="M1158.33 62.5 a4.17 4.17 0 1 0 8.34 0 a4.17 4.17 0 1 0 -8.34 0zM1033.33 12.5 a4.17 4.17 0 1 0 8.34 0 a4.17 4.17 0 1 0 -8.34 0z" fill="rgba(37, 158, 164, 1)"></path>
            <path d="M187.5 262.5L212.5 262.5L237.5 287.5" stroke-width="4.17" stroke="rgba(37, 158, 164, 1)"></path>
            <path d="M183.33 262.5 a4.17 4.17 0 1 0 8.34 0 a4.17 4.17 0 1 0 -8.34 0zM233.33 287.5 a4.17 4.17 0 1 0 8.34 0 a4.17 4.17 0 1 0 -8.34 0z" fill="rgba(37, 158, 164, 1)"></path>
            <path d="M212.5 62.5L187.5 62.5L162.5 37.5" stroke-width="4.17" stroke="rgba(37, 158, 164, 1)"></path>
            <path d="M208.33 62.5 a4.17 4.17 0 1 0 8.34 0 a4.17 4.17 0 1 0 -8.34 0zM158.33 37.5 a4.17 4.17 0 1 0 8.34 0 a4.17 4.17 0 1 0 -8.34 0z" fill="rgba(37, 158, 164, 1)"></path>
            <path d="M837.5 512.5L812.5 512.5L787.5 487.5L762.5 487.5" stroke-width="4.17" stroke="rgba(37, 158, 164, 1)"></path>
            <path d="M833.33 512.5 a4.17 4.17 0 1 0 8.34 0 a4.17 4.17 0 1 0 -8.34 0zM758.33 487.5 a4.17 4.17 0 1 0 8.34 0 a4.17 4.17 0 1 0 -8.34 0z" fill="rgba(37, 158, 164, 1)"></path>
            <path d="M1387.5 62.5L1387.5 112.5" stroke-width="4.17" stroke="rgba(37, 158, 164, 1)"></path>
            <path d="M1383.33 62.5 a4.17 4.17 0 1 0 8.34 0 a4.17 4.17 0 1 0 -8.34 0zM1383.33 112.5 a4.17 4.17 0 1 0 8.34 0 a4.17 4.17 0 1 0 -8.34 0z" fill="rgba(37, 158, 164, 1)"></path>
            <path d="M1187.5 387.5L1262.5 387.5L1287.5 362.5" stroke-width="4.17" stroke="rgba(37, 158, 164, 1)"></path>
            <path d="M1183.33 387.5 a4.17 4.17 0 1 0 8.34 0 a4.17 4.17 0 1 0 -8.34 0zM1283.33 362.5 a4.17 4.17 0 1 0 8.34 0 a4.17 4.17 0 1 0 -8.34 0z" fill="rgba(37, 158, 164, 1)"></path>
            <path d="M987.5 237.5L987.5 187.5" stroke-width="4.17" stroke="rgba(37, 158, 164, 1)"></path>
            <path d="M983.33 237.5 a4.17 4.17 0 1 0 8.34 0 a4.17 4.17 0 1 0 -8.34 0zM983.33 187.5 a4.17 4.17 0 1 0 8.34 0 a4.17 4.17 0 1 0 -8.34 0z" fill="rgba(37, 158, 164, 1)"></path>
            <path d="M512.5 287.5L512.5 337.5" stroke-width="4.17" stroke="rgba(37, 158, 164, 1)"></path>
            <path d="M508.33 287.5 a4.17 4.17 0 1 0 8.34 0 a4.17 4.17 0 1 0 -8.34 0zM508.33 337.5 a4.17 4.17 0 1 0 8.34 0 a4.17 4.17 0 1 0 -8.34 0z" fill="rgba(37, 158, 164, 1)"></path>
            <path d="M712.5 137.5L762.5 137.5" stroke-width="4.17" stroke="rgba(37, 158, 164, 1)"></path>
            <path d="M708.33 137.5 a4.17 4.17 0 1 0 8.34 0 a4.17 4.17 0 1 0 -8.34 0zM758.33 137.5 a4.17 4.17 0 1 0 8.34 0 a4.17 4.17 0 1 0 -8.34 0z" fill="rgba(37, 158, 164, 1)"></path>
            <path d="M487.5 512.5L462.5 537.5L437.5 537.5" stroke-width="4.17" stroke="rgba(37, 158, 164, 1)"></path>
            <path d="M483.33 512.5 a4.17 4.17 0 1 0 8.34 0 a4.17 4.17 0 1 0 -8.34 0zM433.33 537.5 a4.17 4.17 0 1 0 8.34 0 a4.17 4.17 0 1 0 -8.34 0z" fill="rgba(37, 158, 164, 1)"></path>
            <path d="M737.5 262.5L662.5 262.5" stroke-width="4.17" stroke="rgba(37, 158, 164, 1)"></path>
            <path d="M733.33 262.5 a4.17 4.17 0 1 0 8.34 0 a4.17 4.17 0 1 0 -8.34 0zM658.33 262.5 a4.17 4.17 0 1 0 8.34 0 a4.17 4.17 0 1 0 -8.34 0z" fill="rgba(37, 158, 164, 1)"></path>
            <path d="M1287.5 512.5L1337.5 512.5" stroke-width="4.17" stroke="rgba(37, 158, 164, 1)"></path>
            <path d="M1283.33 512.5 a4.17 4.17 0 1 0 8.34 0 a4.17 4.17 0 1 0 -8.34 0zM1333.33 512.5 a4.17 4.17 0 1 0 8.34 0 a4.17 4.17 0 1 0 -8.34 0z" fill="rgba(37, 158, 164, 1)"></path>
            <path d="M337.5 112.5L312.5 112.5L287.5 137.5L262.5 137.5" stroke-width="4.17" stroke="rgba(37, 158, 164, 1)"></path>
            <path d="M333.33 112.5 a4.17 4.17 0 1 0 8.34 0 a4.17 4.17 0 1 0 -8.34 0zM258.33 137.5 a4.17 4.17 0 1 0 8.34 0 a4.17 4.17 0 1 0 -8.34 0z" fill="rgba(37, 158, 164, 1)"></path>
            <path d="M1137.5 12.5L1237.5 12.5" stroke-width="4.17" stroke="rgba(37, 158, 164, 1)"></path>
            <path d="M1133.33 12.5 a4.17 4.17 0 1 0 8.34 0 a4.17 4.17 0 1 0 -8.34 0zM1233.33 12.5 a4.17 4.17 0 1 0 8.34 0 a4.17 4.17 0 1 0 -8.34 0z" fill="rgba(37, 158, 164, 1)"></path>
            <path d="M987.5 287.5L1037.5 237.5" stroke-width="4.17" stroke="rgba(37, 158, 164, 1)"></path>
            <path d="M983.33 287.5 a4.17 4.17 0 1 0 8.34 0 a4.17 4.17 0 1 0 -8.34 0zM1033.33 237.5 a4.17 4.17 0 1 0 8.34 0 a4.17 4.17 0 1 0 -8.34 0z" fill="rgba(37, 158, 164, 1)"></path>
            <path d="M412.5 237.5L412.5 212.5L437.5 187.5" stroke-width="4.17" stroke="rgba(37, 158, 164, 1)"></path>
            <path d="M408.33 237.5 a4.17 4.17 0 1 0 8.34 0 a4.17 4.17 0 1 0 -8.34 0zM433.33 187.5 a4.17 4.17 0 1 0 8.34 0 a4.17 4.17 0 1 0 -8.34 0z" fill="rgba(37, 158, 164, 1)"></path>
            <path d="M1112.5 337.5L1062.5 287.5L1062.5 262.5" stroke-width="4.17" stroke="rgba(37, 158, 164, 1)"></path>
            <path d="M1108.33 337.5 a4.17 4.17 0 1 0 8.34 0 a4.17 4.17 0 1 0 -8.34 0zM1058.33 262.5 a4.17 4.17 0 1 0 8.34 0 a4.17 4.17 0 1 0 -8.34 0z" fill="rgba(37, 158, 164, 1)"></path>
            <path d="M1062.5 362.5L1112.5 362.5" stroke-width="4.17" stroke="rgba(37, 158, 164, 1)"></path>
            <path d="M1058.33 362.5 a4.17 4.17 0 1 0 8.34 0 a4.17 4.17 0 1 0 -8.34 0zM1108.33 362.5 a4.17 4.17 0 1 0 8.34 0 a4.17 4.17 0 1 0 -8.34 0z" fill="rgba(37, 158, 164, 1)"></path>
            <path d="M1287.5 287.5L1262.5 287.5L1237.5 262.5" stroke-width="4.17" stroke="rgba(37, 158, 164, 1)"></path>
            <path d="M1283.33 287.5 a4.17 4.17 0 1 0 8.34 0 a4.17 4.17 0 1 0 -8.34 0zM1233.33 262.5 a4.17 4.17 0 1 0 8.34 0 a4.17 4.17 0 1 0 -8.34 0z" fill="rgba(37, 158, 164, 1)"></path>
            <path d="M1162.5 412.5L1162.5 462.5L1112.5 512.5" stroke-width="4.17" stroke="rgba(37, 158, 164, 1)"></path>
            <path d="M1158.33 412.5 a4.17 4.17 0 1 0 8.34 0 a4.17 4.17 0 1 0 -8.34 0zM1108.33 512.5 a4.17 4.17 0 1 0 8.34 0 a4.17 4.17 0 1 0 -8.34 0z" fill="rgba(37, 158, 164, 1)"></path>
            <path d="M1037.5 487.5L1037.5 437.5" stroke-width="4.17" stroke="rgba(37, 158, 164, 1)"></path>
            <path d="M1033.33 487.5 a4.17 4.17 0 1 0 8.34 0 a4.17 4.17 0 1 0 -8.34 0zM1033.33 437.5 a4.17 4.17 0 1 0 8.34 0 a4.17 4.17 0 1 0 -8.34 0z" fill="rgba(37, 158, 164, 1)"></path>
            <path d="M512.5 137.5L562.5 87.5L587.5 87.5" stroke-width="4.17" stroke="rgba(37, 158, 164, 1)"></path>
            <path d="M508.33 137.5 a4.17 4.17 0 1 0 8.34 0 a4.17 4.17 0 1 0 -8.34 0zM583.33 87.5 a4.17 4.17 0 1 0 8.34 0 a4.17 4.17 0 1 0 -8.34 0z" fill="rgba(37, 158, 164, 1)"></path>
            <path d="M512.5 537.5L512.5 512.5L537.5 487.5" stroke-width="4.17" stroke="rgba(37, 158, 164, 1)"></path>
            <path d="M508.33 537.5 a4.17 4.17 0 1 0 8.34 0 a4.17 4.17 0 1 0 -8.34 0zM533.33 487.5 a4.17 4.17 0 1 0 8.34 0 a4.17 4.17 0 1 0 -8.34 0z" fill="rgba(37, 158, 164, 1)"></path>
            <path d="M137.5 462.5L137.5 512.5" stroke-width="4.17" stroke="rgba(37, 158, 164, 1)"></path>
            <path d="M133.33 462.5 a4.17 4.17 0 1 0 8.34 0 a4.17 4.17 0 1 0 -8.34 0zM133.33 512.5 a4.17 4.17 0 1 0 8.34 0 a4.17 4.17 0 1 0 -8.34 0z" fill="rgba(37, 158, 164, 1)"></path>
            <path d="M1012.5 112.5L1012.5 137.5L1037.5 162.5" stroke-width="4.17" stroke="rgba(37, 158, 164, 1)"></path>
            <path d="M1008.33 112.5 a4.17 4.17 0 1 0 8.34 0 a4.17 4.17 0 1 0 -8.34 0zM1033.33 162.5 a4.17 4.17 0 1 0 8.34 0 a4.17 4.17 0 1 0 -8.34 0z" fill="rgba(37, 158, 164, 1)"></path>
            <path d="M1387.5 537.5L1437.5 537.5" stroke-width="4.17" stroke="rgba(37, 158, 164, 1)"></path>
            <path d="M1383.33 537.5 a4.17 4.17 0 1 0 8.34 0 a4.17 4.17 0 1 0 -8.34 0zM1433.33 537.5 a4.17 4.17 0 1 0 8.34 0 a4.17 4.17 0 1 0 -8.34 0z" fill="rgba(37, 158, 164, 1)"></path>
            <path d="M912.5 162.5L912.5 212.5" stroke-width="4.17" stroke="rgba(37, 158, 164, 1)"></path>
            <path d="M908.33 162.5 a4.17 4.17 0 1 0 8.34 0 a4.17 4.17 0 1 0 -8.34 0zM908.33 212.5 a4.17 4.17 0 1 0 8.34 0 a4.17 4.17 0 1 0 -8.34 0z" fill="rgba(37, 158, 164, 1)"></path>
            <path d="M312.5 362.5L312.5 312.5" stroke-width="4.17" stroke="rgba(37, 158, 164, 1)"></path>
            <path d="M308.33 362.5 a4.17 4.17 0 1 0 8.34 0 a4.17 4.17 0 1 0 -8.34 0zM308.33 312.5 a4.17 4.17 0 1 0 8.34 0 a4.17 4.17 0 1 0 -8.34 0z" fill="rgba(37, 158, 164, 1)"></path>
        </g>
    </g>
    <defs>
        <mask id="SvgjsMask1000">
            <rect width="1440" height="560" fill="#ffffff"></rect>
        </mask>
    </defs>
</svg>