<svg width="800" height="600" xmlns="http://www.w3.org/2000/svg">

 <g>
  <title>Layer 1</title>
  <text transform="matrix(1.37577 0 0 1.55724 -368.007 -63.9717)" stroke="#000" font-style="normal" font-weight="normal" xml:space="preserve" text-anchor="start" font-family="'Harlow Solid Italic'" font-size="24" id="svg_1" y="194.32648" x="444.26867" stroke-width="0" fill="#003f7f">Web Autodiacta</text>
  <path stroke="#186618" id="svg_2" d="m452.8049,179.67644c-0.39859,0 -0.60348,-0.34272 -0.60348,-0.7537c0,-0.34264 0.10243,-0.67532 0.3986,-0.67532c0.20488,0 0.5133,0.33267 0.61572,0.67532c0.20488,0.49887 0,0.7537 -0.41085,0.7537zm68.13615,19.55532c0.91193,0 1.11678,0.08789 0.60348,0.67523c-0.29617,0.41098 -0.9119,0.75363 -1.20807,0.75363c-0.30838,0 -0.61572,-0.34264 -0.61572,-0.75363c0,-0.42107 0.41087,-0.67523 1.22031,-0.67523zm-63.66684,-23.92056c-0.9119,-0.16629 -1.01435,-1.00838 0,-1.26261c0.51327,-0.07829 0.80948,0.16626 0.80948,0.67531c0,0.42101 -0.29621,0.66567 -0.80948,0.58731zm-11.36699,26.60203c1.22032,-0.24469 1.22032,-0.42056 0.80947,-0.99831c-0.30733,-0.42057 -0.40975,-0.92955 -0.20488,-1.09587c0.10242,-0.25469 0.61572,0 0.9119,0.49893c0.41084,0.67531 0.71814,0.76373 1.52761,0.34264c0.50217,-0.25422 0.9119,-0.42096 0.9119,-0.16627c0,0.16627 0.30842,0 0.70702,-0.34264c0.61575,-0.49893 0.71817,-1.59526 0.10246,-2.18262c-0.50106,-0.49893 -3.04411,-0.33261 -3.75113,0.25422c-0.40975,0.42109 -0.71817,0.33314 -1.11677,-0.42049c-0.61572,-1.25309 -0.61572,-1.42902 0.80944,-1.50731c1.22032,0 1.22032,0 0.20489,-0.50899c-0.51218,-0.24469 -1.01433,-0.75363 -1.01433,-1.08629c0,-0.84203 1.41403,-1.34097 2.02976,-0.75361c0.20488,0.24465 0.60351,0.49893 1.01435,0.49893c0.80947,0 4.67415,-2.8479 4.67415,-3.43526c0,-0.25467 0.39971,-0.42093 0.80947,-0.25467c0.50214,0.0884 1.41406,-0.16627 2.3382,-0.58737c1.3105,-0.67526 1.3105,-0.75363 0.60348,-1.8495c-0.50105,-0.75363 -1.11677,-1.00838 -2.54197,-1.00838c-1.61892,0 -2.02976,0.16635 -2.53082,1.17472c-0.20599,0.67523 -0.82168,1.17419 -1.22031,1.17419c-0.70702,0 -0.9119,-0.75318 -0.20489,-1.17419c0.30731,-0.16635 0.51218,-0.75363 0.51218,-1.34099c0,-0.92 -0.20488,-1.08629 -1.52761,-0.84158c-1.32275,0.16627 -1.32275,0.0879 -1.01435,-1.17477c0.20488,-0.7536 0.50105,-1.42886 0.70705,-1.50723c0.20488,-0.08789 0.40972,-0.84158 0.40972,-1.5952c0,-1.50739 0.60459,-1.76161 1.72249,-0.67531c0.51214,0.58733 0.8206,0.67531 1.01432,0.16627c0.20488,-0.33261 0.92303,-0.41099 2.04092,-0.24472c1.51649,0.33267 1.61891,0.24472 1.41403,-0.75363c-0.10242,-0.58728 -0.20596,-1.26259 -0.30839,-1.42886c0,-0.2543 -0.50105,-0.58737 -1.10564,-0.84166c-1.22032,-0.42093 -1.52762,-1.42886 -0.41084,-1.42886c0.30841,0 0.60456,-0.16635 0.60456,-0.49947c0,-0.2543 0.61575,-0.42057 1.42519,-0.34269c1.1179,0.0884 1.72137,-0.24459 3.24899,-2.00611c1.1179,-1.26267 1.92734,-1.93793 2.02979,-1.59529c0.10242,0.42057 0.61572,0.6652 1.11786,0.6652c0.80947,0 0.91192,-0.24464 0.61575,-1.34051c-0.10354,-0.75369 -0.61575,-1.67358 -0.92414,-2.09468c-0.91192,-0.92992 -0.91192,-2.01621 0,-1.68369c0.71814,0.33315 2.95278,-0.58683 2.95278,-1.17417c0,-0.25469 0.2973,-0.42101 0.70702,-0.42101c0.41088,0 0.60459,0.50896 0.60459,1.1747c0,0.84158 0.20488,1.17424 0.71818,0.92953c0.39859,-0.1759 0.70705,-0.67531 0.70705,-1.0079c0,-1.00843 3.24895,-2.76999 4.05839,-2.2706c0.30845,0.1664 0.61572,0 0.71932,-0.58728c0.29615,-1.1747 2.13106,-2.09468 2.9405,-1.50731c0.41088,0.24464 0.80951,0.16635 0.91305,-0.0879c0.20485,-0.33312 1.01432,-0.58736 1.92621,-0.66579c0.9119,-0.08789 2.13221,-0.42101 2.64551,-0.76365c1.92621,-1.0863 3.85358,-1.00792 4.66302,0.16685c0.5133,0.84153 0.71814,0.84153 0.71814,0.25416c0,-0.75368 0.39975,-0.84158 2.83926,-0.58728c3.86471,0.33312 4.4693,0.33312 5.8945,-0.08798c0.9119,-0.24469 1.22028,-0.16632 1.22028,0.50891c0,0.4211 0.29621,0.75371 0.70705,0.75371c0.30731,0 0.60348,-0.24472 0.60348,-0.49941c0,-0.67523 1.63119,-1.0079 3.05636,-0.67523c1.10564,0.33312 1.20807,0.42093 0.9119,2.68192c-0.10243,1.35057 0,2.27055 0.19374,2.27055c0.20485,0 0.41085,-0.58736 0.41085,-1.42893c0,-1.41937 1.11677,-2.00625 1.52761,-0.84161c0.10246,0.42059 0.3986,0.25425 0.60348,-0.41096c0.51333,-1.76205 1.63119,-0.84211 1.32275,1.0863c-0.30728,1.5952 -0.30728,11.02377 0.60462,1.00785c0.51327,-0.25425 0.91186,-0.9199 0.91186,-1.34051c0,-0.42105 0.30846,-0.92043 0.71821,-1.09635c0.80941,-0.33254 1.72246,0.92961 1.42517,1.84995c-0.10242,0.42064 -0.10242,0.75368 0.19373,0.75368c0.20599,0 0.41087,-0.24464 0.41087,-0.42101c0,-0.24469 0.50214,-0.33267 1.11786,-0.16627c1.32166,0.25425 1.51538,0.92948 0.39863,1.34046c-0.29617,0.17637 -0.60459,0.58736 -0.60459,0.93006c0,0.58736 0.20596,0.58736 1.32275,0c1.82379,-1.0079 2.63323,-0.93006 2.94168,0.16627c0.20485,0.58736 0.60456,0.84205 1.01432,0.58736c0.41084,-0.08795 1.32274,0.25469 2.02978,0.84158c0.61572,0.49939 1.52762,0.91998 1.93846,0.91998c0.60459,0 0.60459,0.42106 0.3986,1.59571c-0.20485,1.26267 -0.20485,1.42893 0.41088,0.92002c0.80944,-0.83208 1.11677,-0.75375 1.41406,0.42049c0.10243,0.58736 0.82057,1.00838 1.63004,1.26261c0.9119,0.16685 1.41407,0.58734 1.41407,1.08675c0,0.50896 0.30727,1.09587 0.61572,1.42899c0.80947,0.58728 0.60347,2.34884 -0.30846,2.93617c-0.30727,0.17593 -0.70698,0.08798 -0.80944,-0.16627c-0.20485,-0.25474 -0.9119,-0.25474 -2.23466,0c-2.13221,0.58683 -2.53082,0.75363 -2.02976,1.51683c0.30842,0.49893 3.85467,0.33267 5.79204,-0.25469c0.60459,-0.25427 0.80947,0 0.80947,1.17472c0,0.84153 -0.20488,1.50731 -0.51218,1.50731c-0.20599,0 -0.39972,0.25421 -0.39972,0.67523c0,1.00832 0.50217,0.91989 1.82491,-0.2543c0.70591,-0.67523 1.11675,-0.84203 1.61892,-0.42093c0.51218,0.42093 0.61572,0.42093 0.61572,-0.2543c0,-0.41149 -0.20599,-0.75363 -0.51326,-0.75363c-0.19375,0 -0.39975,-0.33312 -0.39975,-0.66579c0,-0.42096 0.2973,-0.75363 0.70702,-0.75363c0.30842,0 0.71818,0.16627 0.71818,0.41099c0,0.25479 0.39971,0.58733 0.91301,0.67531c0.70593,0.25474 0.91189,0.58736 0.80944,1.59525c-0.20596,1.92827 0.2049,2.51569 1.72137,2.18307c0.71817,-0.16685 1.11675,0 0.80947,0.33261c-0.0913,0.16627 0,0.58737 0.20489,0.76316c0.82169,0.49943 0.51327,1.67371 -0.39863,1.67371c-1.11786,0 -1.42519,0.42093 -0.82057,1.17464c0.40972,0.42102 0.71814,0.49894 1.11675,0.16633c0.92414,-0.84159 1.11789,-0.16633 1.22032,3.19099c0,1.6831 0.20488,3.02415 0.40975,3.02415c0.50214,0 0.30842,1.84995 -0.40975,2.60358c-0.39972,0.42057 -0.39972,0.83152 -0.10243,1.17417c0.71814,0.75371 0,2.93633 -0.91304,2.93633c-0.80941,0 -2.33706,1.5952 -2.33706,2.34889c0,0.92048 -1.31049,0 -1.61891,-1.00792c-0.30731,-0.91995 -0.30731,-0.91995 -0.5133,-0.2547c-0.19372,0.76369 0.91301,3.11258 1.83607,3.77823c0.60456,0.50905 -0.5133,1.35057 -1.32276,1.00792c-0.41088,-0.16626 -0.60459,-0.66519 -0.60459,-1.17419c0,-1.42886 -2.54198,-5.03089 -4.4693,-6.3814c-1.02545,-0.66579 -1.93737,-1.41941 -1.93737,-1.67363c0,-0.50899 -3.25007,-2.09467 -5.07387,-2.60363c-1.01547,-0.2547 -1.32277,-0.16629 -1.32277,0.50896c0,0.49893 -0.19372,0.6652 -0.60459,0.49893c-0.9119,-0.33267 -1.32274,0.42109 -0.51327,1.17472c1.11786,0.91995 0.92414,2.01621 -0.29617,1.5952c-0.8206,-0.25425 -0.92306,-0.16635 -0.61572,1.26265c0.10242,0.83199 0.30841,1.92827 0.30841,2.42721c0,0.50899 0.20485,0.84165 0.40973,0.84165c0.29731,0 0.39972,-0.16635 0.19374,-0.42057c-0.10242,-0.25474 0.10357,-0.49941 0.51327,-0.49941c0.30846,0 0.60459,0.33307 0.60459,0.66568c0,0.34269 -0.39968,0.67523 -1.11786,0.58742c-0.60348,0 -1.11677,-0.24472 -1.11677,-0.41104c0,-0.76373 -2.73681,-5.9609 -3.54625,-6.72411c-0.91192,-0.83208 -0.30733,-1.08629 -7.51343,2.85785c-1.11675,0.58737 -2.33706,1.84995 -2.95279,2.76999c-0.50216,0.91989 -1.3116,1.84995 -1.72137,2.01622c-0.41084,0.16635 -1.92733,1.5073 -3.2501,2.93625c-5.68962,6.29298 -4.76548,7.04667 -4.36685,19.89801c1.72245,9.73821 1.72245,9.73821 1.72245,9.73821c-4.05954,0 -4.05954,0 -4.05954,0c-3.35141,0 -3.35141,0 -3.35141,0c0.3073,-8.98509 0.3073,-8.98509 0.3073,-8.98509c0.20485,-0.75312 0.30842,-2.27046 0.41088,-3.11212c0.10243,-0.49938 -2.85039,-2.682 -2.74793,-3.18088c0,-0.42101 3.05523,0.7537 3.05523,0.33261c0.50214,-6.12671 0,-11.00089 -1.32277,-13.59492c-0.30731,-1.59529 -2.85036,-6.7236 -3.24895,-6.7236c-0.10246,0 -0.8206,-0.49939 -1.52762,-1.08675c-1.22034,-1.09582 -1.72137,-1.17425 -8.52887,-1.50731c-7.30853,-0.3422 -7.30853,-0.3422 -7.30853,-0.3422c-1.7325,1.17425 -1.7325,1.17425 -1.7325,1.17425c-1.01432,0.76365 -2.02976,1.26261 -2.32597,1.26261c-0.61572,0 -3.15877,1.76198 -4.26442,2.76982c-0.10242,0 -0.20485,-0.08781 -0.20485,-0.16627c-0.10246,0 -0.10246,0 -0.10246,-0.08795c-0.10242,-0.24464 -0.20596,-0.49938 -0.41084,-0.75363c0.61572,-0.42101 1.11786,-0.67571 1.32274,-0.58728c0.30731,0.16627 0.60459,0 0.60459,-0.4211c0,-0.42056 -0.60459,-0.58733 -2.2235,-0.42056c-1.9385,0.25429 -2.44063,0.34219 -2.74794,1.34054c-0.50216,0.50896 -0.60459,1.26264 -0.30731,1.85001c-0.10357,0.75363 -0.10357,1.26259 0,1.26259c0.10243,0 0.20485,-0.16627 0.51219,-0.34264c0,0.08798 0.10242,0.17637 0.20596,0.25469c-1.01544,0.25425 -1.52874,1.00793 -1.42519,1.76156c-0.51327,0.34264 -1.01544,0.50896 -1.63113,0.76321c0,0 0,-0.0879 -0.09133,-0.0879c0.39972,-0.75363 0.60459,-1.59529 0.70702,-2.85788c0.20599,-1.41941 0.10242,-2.34889 -0.20485,-2.34889c-0.20488,0 -0.41084,0.34264 -0.41084,0.8415c0.10239,0.4211 -0.09133,0.84165 -0.50109,0.92003c-0.30842,0.08789 -0.51327,-0.07838 -0.51327,-0.49893c0,-1.00838 -0.39863,-1.00838 -1.31164,-0.08841c-0.40972,0.34264 -1.2192,0.75369 -1.92621,0.93006c-0.92414,0.24464 -1.22032,0.07829 -1.63116,-0.84165c-0.3073,-0.75363 -0.51218,-1.59572 -0.3073,-1.92833c0.10242,-0.42101 0.10242,-0.7632 -0.29618,-0.7632c-1.11789,0 -0.30842,-1.34104 1.01433,-1.59574zm8.73372,-19.30062c-0.61572,-0.08789 -1.11789,-0.33261 -1.32274,-0.67526c-0.10246,-0.49938 -0.20489,-0.49938 -0.20489,0c0,0.34264 -0.41084,0.58737 -0.80947,0.67526c-0.71814,0 -0.71814,0.08795 0.10246,0.4211c0.50102,0.16627 1.01432,0.42048 1.11675,0.42048c0.09129,0 0.60459,-0.25421 1.11789,-0.42048c0.9119,-0.4211 0.9119,-0.4211 0,-0.4211zm80.51746,13.51655c0.19374,0.16635 0.39863,-0.0884 0.39863,-0.50896c0,-0.33307 -0.20489,-0.66573 -0.39863,-0.66573c-0.30839,0 -0.51327,0.16632 -0.51327,0.41099c0,0.25474 0.20488,0.59739 0.51327,0.76371zm-0.71815,0.75369c-0.10242,-0.25475 -0.60459,-0.58734 -1.01543,-0.58734c-0.29617,0 -0.50106,0.33259 -0.29617,0.58734c0.0913,0.25424 0.50214,0.42058 0.9119,0.42058c0.39971,0 0.50214,-0.16635 0.39971,-0.42058zm-0.91189,3.77777c0.3073,0 0.71814,-0.0879 0.71814,-0.16627c0,-0.17637 -0.41085,-0.34264 -0.71814,-0.50899c-0.39972,-0.16632 -0.70705,-0.07837 -0.70705,0.16635c0,0.25469 0.30733,0.50891 0.70705,0.50891zm0.80947,-7.97661c0.40972,-0.1664 0.61569,-0.42107 0.51218,-0.66579c-0.30733,-0.59686 -2.0287,-0.59686 -2.0287,0c0,0.66579 0.60351,0.92003 1.51652,0.66579zm-5.57603,-6.29356c-0.5133,0.25474 -0.8206,0.75368 -0.71821,1.00837c0.5133,0.66529 1.11792,0.49893 1.63007,-0.58736c0.50217,-1.00838 0.2973,-1.17465 -0.91186,-0.42101zm-1.9385,12.92921c2.64548,2.26091 2.74794,2.34889 2.74794,1.59526c0,-0.42057 -0.20488,-0.76321 -0.5133,-0.76321c-0.29615,0 -0.80944,-0.4211 -1.11675,-0.91995c-0.29621,-0.49947 -0.9119,-1.00845 -1.41407,-1.00845c-0.92302,0 -0.92302,0.08842 0.29617,1.09635zm-2.13112,-3.9542c0.61463,0 0.91192,-0.16627 0.51221,-0.24467c-0.30731,-0.16632 -0.80947,-0.16632 -1.11677,0c-0.30846,0.0784 0,0.24467 0.60456,0.24467zm-2.94165,-11.41188c0.30731,0.2543 1.21919,0.58691 2.02863,0.75371c1.42523,0.25421 1.52765,0.25421 0.71818,-0.42102c-0.92302,-0.83208 -3.45384,-1.08629 -2.74681,-0.33269zm-6.19178,-13.92746c-0.30731,0.24464 -0.40973,0.75363 -0.30731,1.08621c0.20488,0.67531 0.80947,0.08798 0.80947,-0.91995c0,-0.50899 -0.10246,-0.58737 -0.50216,-0.16627zm3.0441,18.12638c0.80948,0.42051 1.1179,0.42051 1.52876,-0.1668c0.80944,-0.92 0.29615,-1.34051 -1.22034,-0.7536c-1.22032,0.41144 -1.22032,0.41144 -0.30842,0.9204zm-2.02864,-4.19892c1.52762,-0.91987 1.52762,-0.91987 0.30731,-0.91987c-0.8206,0 -1.42519,0.33254 -1.7325,0.91987c-0.19374,0.58691 -0.39971,0.92003 -0.29729,0.92003c0,0 0.80947,-0.49944 1.72248,-0.92003zm-2.23466,13.60453c0.7059,0.92002 1.92625,0.92002 1.52762,-0.08795c-0.10243,-0.33307 -0.20597,-0.75363 -0.20597,-0.84206c0,-0.07837 -0.40975,-0.07837 -0.91189,0.08843c-0.82061,0.16632 -0.82061,0.42056 -0.40976,0.84158zm-3.14764,-3.44522c0.80944,0.92001 1.22032,1.0079 2.1322,0.33267c0.60459,-0.42056 0.60459,-0.42056 0,-0.49893c-0.3073,0 -1.11677,-0.08842 -1.82379,-0.25474c-1.01544,-0.33261 -1.01544,-0.33261 -0.30842,0.42101zm-0.10243,-9.15139c0.51327,0 1.11786,-1.34097 0.80948,-1.76152c-0.39863,-0.42102 -1.21923,0.25421 -1.21923,1.0079c0,0.42104 0.20488,0.75363 0.40975,0.75363zm-4.97035,5.70615c-0.61572,0.34264 -0.51327,0.42109 0.29621,0.42109c0.51326,0 1.11674,-0.16685 1.32274,-0.42109c0.30727,-0.66566 -0.70705,-0.66566 -1.61895,0zm0.10246,7.38939c0.0913,0.08842 0.39859,-0.08795 0.70701,-0.49893c0.30728,-0.34264 1.21923,-0.76366 1.92622,-0.93001c0.9119,-0.2543 1.32276,-0.66525 1.32276,-1.26264c0,-1.41884 -1.42519,-0.99835 -2.94171,0.84207c-0.6157,0.92955 -1.11675,1.68324 -1.01429,1.84951zm-1.11786,-3.86577c0.91186,-0.9199 0.91186,-1.08675 0.19369,-1.34099c-0.80944,-0.33267 -1.41292,0.42109 -1.41292,1.76155c-0.10354,1.00838 -0.10354,1.00838 1.21923,-0.42056zm-1.63008,-9.905c0.10243,0.67523 0.30731,0.58734 0.91187,-0.66573c0.71821,-1.34054 0.71821,-1.51691 0.10246,-1.51691c-0.3986,0 -0.80948,0.2543 -0.9119,0.67533c-0.20488,0.33259 -0.20488,1.09633 -0.10243,1.50731zm-0.50216,-6.88042c0,0.3422 0.19372,1.17425 0.39972,1.76156c0.3073,1.1747 0.3073,1.1747 0.61572,0.16632c0.3986,-1.00785 0,-2.51516 -0.61572,-2.51516c-0.2973,0 -0.39972,0.25416 -0.39972,0.58728zm-7.1137,2.76945c-0.50214,0.58736 -0.50214,1.17472 -0.10353,2.93625c0.20599,1.26262 0.71929,2.52526 1.01543,2.76999c0.5133,0.42101 0.61572,0 0.71814,-2.60319c0,-3.18097 -0.51327,-4.18926 -1.63004,-3.10305zm0.9119,8.89714c0.10246,0.16635 0.30731,-0.16632 0.20488,-0.6657c0,-0.509 -0.10242,-0.58737 -0.3073,-0.25425c-0.09133,0.33261 -0.09133,0.75363 0.10242,0.91995zm3.65983,-7.88877c-0.10242,0.16635 -0.10242,1.34104 0.20489,2.60318c0.30842,2.18307 0.39972,2.27097 0.50216,0.67571c0.10243,-2.60363 -0.10245,-3.86623 -0.70705,-3.27889zm-3.45495,23.67586c0.61572,-1.00838 1.63008,-2.69161 2.33709,-3.69991c0.80944,-1.08638 1.32275,-2.51523 1.52762,-3.94417c0.29729,-2.261 0.29729,-2.261 0.29729,-2.261c-1.22031,1.25307 -1.22031,1.25307 -1.22031,1.25307c-0.6046,0.67532 -1.01435,1.42894 -1.01435,1.68324c0,0.66567 -1.92734,4.86452 -2.53193,5.6182c-0.3073,0.42048 -0.8206,1.35057 -0.9119,2.01621c-0.5133,1.92793 0.39972,1.59526 1.51649,-0.66565zm-7.2061,8.6424c0.30842,1.67358 0.30842,1.67358 1.32276,-1.92835c0.6046,-1.93796 1.51649,-5.04042 2.13221,-6.9688c0.80944,-2.43686 1.11786,-4.45308 1.11786,-7.30136c0,-3.69953 -0.10353,-3.7779 -0.91297,-3.35681c-1.83495,1.08627 -2.85039,4.11042 -3.26015,9.98283c-0.19373,3.02473 -0.39972,6.04887 -0.60456,6.71461c-0.10246,0.67526 0,1.9379 0.20485,2.85788zm0.20599,-21.48372c0.3986,0.83205 0.80948,1.50731 0.80948,1.50731c0.10242,0 0.60344,-0.50899 1.01432,-1.17465c0.51327,-0.58689 1.32274,-1.26214 1.63008,-1.50686c1.20915,-0.76365 1.51645,-3.11254 0.50214,-4.70781c-0.80948,-1.42893 -3.04411,-3.02468 -3.45499,-2.51569c-0.20485,0.16632 -0.50102,1.76206 -0.70701,3.61156c-0.40972,2.7699 -0.40972,3.61193 0.20599,4.78612zm-0.61572,-19.22264c0.20488,0.16679 0.40972,0.07837 0.40972,-0.17585c0,-0.33311 -0.20485,-0.66579 -0.40972,-0.83208c-0.30842,-0.17635 -0.50217,-0.08794 -0.50217,0.24472c0,0.25425 0.19375,0.58736 0.50217,0.76321zm-32.89398,22.56988c1.41403,0.0884 1.41403,0.0884 1.41403,0.0884c1.42519,0 2.85039,-1.08675 2.85039,-2.01622c0,-0.58736 -0.10242,-0.58736 -4.26442,1.92783zm0.60459,-2.34891c0,0.25482 0.20488,0.50899 0.5133,0.50899c0.50106,0 1.92621,-1.50731 1.61892,-1.76153c-0.30842,-0.34264 -2.13221,0.75361 -2.13221,1.25254zm1.11786,-5.78445c1.52765,1.67403 2.23466,1.84035 3.0441,0.7536c0.8206,-1.00785 0.10246,-1.68315 -2.33817,-1.92787c-2.02867,-0.25475 -2.02867,-0.25475 -0.70593,1.17427zm-1.11786,-4.70738c0,0.17584 0.71814,0.58683 1.52761,0.92947c3.75116,1.59529 4.4693,1.59529 4.36685,0.07845c0,-0.92003 -1.52761,-2.93631 -2.1322,-2.93631c-0.71815,0 -3.76226,1.59526 -3.76226,1.92838zm5.48473,11.92083c1.11677,0 1.2192,-0.25429 0.30731,-0.66528c-0.41085,-0.0884 -0.80948,0 -0.9119,0.24472c-0.206,0.25416 0.10242,0.42056 0.60459,0.42056zm0.80948,-19.72166c-0.70705,-0.42107 -1.62007,-0.58734 -2.02979,-0.42107c-0.70701,0.33312 -0.60459,0.42107 0.40972,0.67523c0.50217,0.16685 1.52877,0.33315 2.02979,0.41151c0.60459,0 0.60459,-0.16679 -0.40972,-0.66567zm-0.0913,3.02415c0.60344,0 0.70701,-0.08795 0.29617,-0.3422c-0.29617,-0.07832 -0.70705,-0.07832 -0.91192,0.08798c-0.10243,0.16627 0.20488,0.33267 0.61575,0.25422zm0.60344,1.9284c-1.42517,0 -1.42517,0.07829 -0.60344,0.7536c1.01432,0.75363 1.31049,0.84153 1.72137,0.33261c0.70698,-0.66528 0.20485,-1.08621 -1.11792,-1.08621zm2.02982,-9.48405c-0.41088,-0.42101 -0.5133,0.33267 -0.30733,1.25261c0.10242,0.58737 0.51218,1.09628 0.71817,1.09628c0.3986,0 0.10243,-1.84995 -0.41084,-2.34889zm3.24895,11.07918c-0.20485,0.07845 0.30842,0.58737 0.91301,1.00843c0.61572,0.42057 1.11675,0.58686 1.11675,0.33261c0,-0.58728 -1.72134,-1.6836 -2.02976,-1.34104zm-2.54197,0.58737c-0.9119,0.58741 -0.3986,2.09464 0.92306,2.34894c0.70701,0.16629 1.82491,0.8416 2.53192,1.50725c0.61572,0.67532 1.11675,0.93006 1.11675,0.67532c0,-0.84158 -4.05843,-4.87415 -4.57172,-4.53151zm4.162,6.96887c-0.60456,-1.35107 -1.31161,-2.01635 -2.63438,-2.43736c-1.01433,-0.33261 -2.02976,-0.50891 -2.33706,-0.42051c-0.30842,0.0879 0.9119,1.17419 2.64551,2.43681c3.24896,2.18262 3.24896,2.18262 2.32593,0.42106zm5.39232,-12.92927c-0.20488,0 -0.41088,0.33267 -0.41088,0.66529c0,0.42101 0.206,0.67531 0.41088,0.67531c0.29617,0 0.50217,-0.2543 0.50217,-0.67531c0,-0.33261 -0.206,-0.66529 -0.50217,-0.66529zm-0.92302,6.88042c0,0.58729 1.7325,0.16632 2.43951,-0.58736c1.01435,-1.26259 0.9119,-1.59526 -0.41084,-1.59526c-0.9119,0 -2.02867,1.17475 -2.02867,2.18262zm2.95281,-18.12645c-0.30842,1.0863 -0.5133,2.00625 -0.41085,2.09467c0.30839,0.33267 1.11789,-2.18256 1.11789,-3.19094c0,-0.42057 -0.30845,0.08842 -0.70704,1.09627zm5.27877,16.95173c-0.5133,0 -0.91193,0.16685 -0.91193,0.49939c0,0.2543 0.29618,0.4211 0.60348,0.4211c0.41085,0 0.80948,-0.1668 0.91301,-0.4211c0.20489,-0.33254 -0.10353,-0.49939 -0.60456,-0.49939zm-1.22035,15.77749c0.6046,1.51737 1.51649,2.93625 2.02979,3.2789c0.5133,0.2543 1.52761,1.42899 2.1322,2.60363c0.6046,1.17424 1.22032,2.09422 1.32277,2.09422c0.50102,0 -0.5133,-7.722 -1.22032,-10.07134c-0.61575,-2.01577 -0.80951,-3.86577 -0.70705,-6.80202c0.0913,-2.18257 0,-4.11094 -0.20485,-4.27724c-0.10245,-0.16632 -0.80947,-0.16632 -1.42519,0c-1.11789,0.33261 -1.22032,0.58736 -1.22032,2.43731c0,1.41891 -0.2049,2.18262 -0.70705,2.51516c-1.42516,0.7537 -1.32274,5.03092 0,8.22138zm-2.94165,-11.2455c-0.20489,-1.26261 -0.40973,-1.42893 -1.52762,-1.42893c-1.32277,0 -1.32277,0.08794 -1.22032,1.8495c0,1.08675 0.20596,2.34933 0.30839,2.93622c0.10246,0.58737 0.50216,1.17465 0.91192,1.26262c0.80944,0.42106 1.72134,-2.51516 1.52762,-4.61941zm-1.52762,8.4756c-0.91192,-1.00792 -1.52762,-2.09421 -1.61895,-2.34889c0,-0.33261 -0.51327,-1.17419 -1.11677,-1.92787c-0.61572,-0.75363 -1.32274,-1.68363 -1.63116,-2.0163c-1.01433,-1.17465 -0.80948,-0.16627 0.30842,2.43687c0.70701,1.76198 1.92624,3.35726 3.35141,4.69822c2.63435,2.27051 2.94168,1.84958 0.70705,-0.84203zm-1.61895,4.12047c1.10565,0 1.01435,-0.0879 -0.51327,-1.42887c-1.01434,-0.84165 -1.72137,-1.7616 -1.72137,-2.18265c0,-0.33259 -1.32277,-1.51689 -2.85036,-2.60318c-1.51652,-1.09625 -2.94171,-2.18254 -3.14656,-2.51561c-0.206,-0.42057 -0.30842,-0.42057 -0.30842,0.07838c0,0.50899 -0.50106,0.58728 -2.13221,0.33261c-1.11677,-0.16635 -2.02867,-0.16635 -2.02867,-0.07792c0,0.16632 0.40972,1.17424 0.8206,2.18254c0.70705,1.67366 1.01432,2.01635 3.24899,2.68158c1.41406,0.42101 3.64867,1.42891 5.07386,2.18253c1.32277,0.76374 2.94169,1.35057 3.55741,1.35057zm-15.8485,2.84827c0.41084,0 1.01543,-0.16627 1.42516,-0.42093c0.70705,-0.58691 0.10358,-0.58691 -1.21919,0c-0.60459,0.25467 -0.70702,0.33304 -0.20596,0.42093zm-1.11677,-2.09464c1.01434,-0.34214 4.26442,-0.67526 7.21723,-0.67526c5.57494,-0.07837 6.69281,-0.33254 4.45813,-0.84158c-0.70698,-0.16627 -2.32593,-0.58737 -3.64867,-1.00792c-2.33709,-0.75363 -7.11481,-0.49939 -7.61586,0.34227c-0.10354,0.16672 -0.61572,0.25467 -1.11786,0.16672c-1.01435,-0.25469 -2.02978,0.42062 -2.33709,1.76161c-0.41085,1.08621 0.30731,1.17464 3.04411,0.25416zm-8.11801,1.92837c0.20488,0.67532 1.22032,0.75363 2.02978,0.16627c0.50102,-0.33259 0.50102,-0.49886 0,-1.00785c-0.41084,-0.49947 -0.70701,-0.49947 -1.32274,-0.07837c-0.41084,0.24471 -0.70705,0.66528 -0.70705,0.91995zm-3.24899,5.8725c0.39863,0 0.60351,0.2543 0.39863,0.75369c-0.09132,0.34264 -0.39863,0.67526 -0.60459,0.67526c-0.30731,0 -0.50105,-0.33261 -0.50105,-0.67526c0,-0.41099 0.29617,-0.75369 0.70701,-0.75369z" stroke-width="0" fill="#007fff"/>
 </g>
</svg>