<svg xmlns="http://www.w3.org/2000/svg" version="1.0" width="810.5804186663395" height="772.3986013333101" preserveAspectRatio="xMidYMid meet" style=""><rect id="backgroundrect" width="100%" height="100%" x="0" y="0" fill="none" stroke="none"/>
<metadata>
Created by potrace 1.13, written by Peter Selinger 2001-2015
</metadata>

<g class="currentLayer" style=""><title>Layer 1</title><g transform="translate(0,1150) scale(0.10000000149011612,-0.10000000149011612) " fill="#484848" stroke="#eb1a1a" id="svg_1" class="selected" stroke-opacity="1" fill-opacity="1" filter="" opacity="1">
<path d="M3652.3256129660986,11458.328118802003 c-36.922380519789726,-4.993537962436676 -70.85105451094786,-10.985783517360687 -75.84056539200054,-13.981906294822693 c-4.9895108810526665,-2.9961227774620056 -66.85944580610574,-11.984491109848022 -137.7105003170536,-20.97285944223404 c-168.64546777958012,-19.974151849746704 -341.2825442640024,-63.91728591918945 -438.07905535642413,-110.85654276609421 c-75.84056539200054,-36.9521809220314 -78.83427192063213,-37.95088851451874 -233.50910923326478,-44.941841661930084 c-85.81958715410586,-3.994830369949341 -173.63497866063278,-11.984491109848022 -195.5888265372645,-18.97544425725937 c-52.88881533915827,-15.979321479797363 -131.7230872597904,-55.92762517929077 -141.70210902189572,-71.90694665908813 c-3.991608704842133,-6.9909531474113455 -20.9559457004212,-19.974151849746704 -37.92028269600027,-27.963812589645386 c-15.966434819368532,-7.989660739898682 -73.84476103957945,-57.92504036426544 -126.73357637873774,-110.85654276609421 c-73.84476103957945,-71.90694665908813 -98.7923154448428,-103.86558961868286 -103.78182632589545,-129.83198702335358 c-3.991608704842133,-18.97544425725937 -12.972728290736931,-42.944426476955414 -18.960141348000136,-53.9302099943161 c-6.9853152334737345,-10.985783517360687 -12.972728290736931,-47.93796443939209 -13.970630466947467,-82.89273017644882 c-1.9958043524210667,-56.92633277177811 -9.979021762105333,-77.89919221401215 -84.82168497789533,-229.7027462720871 c-129.72728290736933,-260.6626816391945 -176.6286851892644,-436.4352179169655 -204.56994612315933,-766.0087234377861 c-7.983217409684266,-96.87463647127151 -13.970630466947467,-119.84491109848022 -49.895108810526665,-197.74410331249237 c-56.8804240440004,-122.84103387594223 -70.85105451094786,-177.76995146274567 -70.85105451094786,-273.64588034152985 c0,-116.84878832101822 13.970630466947467,-163.78804516792297 65.8615436298952,-221.71308553218842 c41.9118914008424,-45.94054925441742 42.90979357705293,-48.936672031879425 32.9307718149476,-85.88885295391083 c-5.9874130572632,-20.97285944223404 -45.90350010568453,-90.8823909163475 -87.81539150652694,-153.80096924304962 c-145.69371772673787,-217.71825516223907 -313.34128333010744,-535.3072695732117 -325.3161094446338,-615.2038769721985 c-6.9853152334737345,-46.939256846904755 14.968532643158,-88.88497573137283 66.85944580610574,-127.8345718383789 c45.90350010568453,-33.9560581445694 86.81748933031639,-43.94313406944275 207.5636526517909,-50.934087216854095 c78.83427192063213,-4.993537962436676 110.7671415593692,-10.985783517360687 129.72728290736933,-23.968982219696045 c15.966434819368532,-11.984491109848022 41.9118914008424,-62.91857832670212 76.83846756821106,-145.81130850315094 c47.8993044581056,-117.84749591350555 56.8804240440004,-132.82810980081558 113.7608480880008,-186.75831979513168 l60.87203274884253,-58.92374795675278 l-26.9433587576844,-37.95088851451874 c-15.966434819368532,-19.974151849746704 -37.92028269600027,-47.93796443939209 -49.895108810526665,-61.91987073421478 c-70.85105451094786,-78.89789980649948 -71.84895668715839,-140.81777054071426 -5.9874130572632,-265.65621960163116 c69.85315233473733,-129.83198702335358 85.81958715410586,-228.70403867959976 55.88252186778987,-343.5554118156433 c-7.983217409684266,-31.958642959594727 -23.9496522290528,-110.85654276609421 -34.926576167368665,-175.772536277771 c-18.960141348000136,-109.85783517360687 -18.960141348000136,-120.84361869096756 -4.9895108810526665,-171.77770590782166 c20.9559457004212,-70.9082390666008 108.77133720694813,-163.78804516792297 172.63707648442227,-182.76348942518234 c51.890913162947726,-14.980613887310028 123.73986985010613,0 446.0622727661084,96.87463647127151 c232.51120705705426,69.90953147411346 361.240587788213,119.84491109848022 437.08115318021356,170.77899831533432 c26.9433587576844,17.976736664772034 68.8552501585268,37.95088851451874 92.8049023875796,43.94313406944275 c39.91608704842133,9.987075924873352 46.901402281895066,8.988368332386017 88.81329368273745,-15.979321479797363 c24.947554405263332,-13.981906294822693 60.87203274884253,-46.939256846904755 79.83217409684266,-72.90565425157547 c44.905597929474,-60.92116314172745 104.779728502106,-243.6846525669098 139.70630466947466,-431.4416799545288 c28.939163110105465,-151.80355405807495 29.937065286316,-223.7105007171631 3.991608704842133,-307.60193848609924 c-10.976923938315867,-37.95088851451874 -18.960141348000136,-46.939256846904755 -68.8552501585268,-71.90694665908813 c-40.91398922463187,-20.97285944223404 -85.81958715410586,-58.92374795675278 -155.6727394888432,-132.82810980081558 c-94.80070674000066,-100.86946684122086 -292.38533762968626,-283.6329562664032 -364.2342943168446,-338.56187385320663 c-61.869934925053066,-46.939256846904755 -311.3454789776864,-168.78158313035965 -408.14199007010814,-199.74151849746704 c-180.6202938941065,-55.92762517929077 -246.48183752400172,-67.9121162891388 -379.20282696000265,-67.9121162891388 c-185.6098047751592,0 -349.26576167368665,-15.979321479797363 -402.1545770128449,-38.94959610700607 c-24.947554405263332,-10.985783517360687 -95.7986089162112,-52.931502401828766 -158.66644601747478,-93.87851369380951 c-61.869934925053066,-40.94701129198074 -158.66644601747478,-97.87334406375885 -214.54896788526466,-124.8384490609169 c-118.75035896905345,-58.92374795675278 -184.61190259894866,-102.86688202619553 -313.34128333010744,-206.7324716448784 c-51.890913162947726,-40.94701129198074 -154.67483731263266,-108.85912758111954 -230.5154027046332,-150.80484646558762 c-170.6412721320012,-93.87851369380951 -245.4839353477912,-150.80484646558762 -420.11681618463456,-319.58642959594727 c-75.84056539200054,-74.90306943655014 -160.66225036989587,-147.8087236881256 -191.5972178324224,-164.7867527604103 c-54.88461969157933,-30.95993536710739 -67.85734798231626,-51.93279480934143 -38.9181848722108,-62.91857832670212 c8.981119585894799,-2.9961227774620056 1805.2050367648546,-5.992245554924011 3991.608704842133,-5.992245554924011 l3976.640172198975,0 l-2.9937065286316,377.5114699602127 c-2.9937065286316,416.4610660672188 -2.9937065286316,414.4636508822441 -66.85944580610574,453.4132469892502 c-19.958043524210666,11.984491109848022 -55.88252186778987,38.94959610700607 -80.8300762730532,58.92374795675278 c-47.8993044581056,38.94959610700607 -158.66644601747478,97.87334406375885 -224.52798964737,118.84620350599289 c-64.86364145368466,20.97285944223404 -110.7671415593692,46.939256846904755 -197.5846308896856,113.85266554355621 c-44.905597929474,34.95476573705673 -136.71259814084308,102.86688202619553 -204.56994612315933,151.80355405807495 c-67.85734798231626,48.936672031879425 -145.69371772673787,105.86300480365753 -174.63288083684333,126.83586424589157 c-60.87203274884253,44.941841661930084 -311.3454789776864,177.76995146274567 -390.17975089831856,206.7324716448784 c-68.8552501585268,25.966397404670715 -217.54267441389626,123.83974146842957 -265.4419788720018,173.77512109279633 c-18.960141348000136,20.97285944223404 -70.85105451094786,58.92374795675278 -114.75875026421133,85.88885295391083 c-43.90769575326347,26.96510499715805 -98.7923154448428,68.91082388162613 -121.74406549768506,92.87980610132217 c-21.953847876631734,24.96768981218338 -73.84476103957945,68.91082388162613 -114.75875026421133,98.87205165624619 c-115.75665244042186,86.88756054639816 -88.81329368273745,35.95347332954407 -326.3140116208444,614.2051693797112 c-155.6727394888432,376.5127623677254 -162.6580547223169,398.48432940244675 -201.57623959452772,574.2568656802177 c-61.869934925053066,286.6290790438652 -60.87203274884253,272.6471727490425 -32.9307718149476,630.1844908595085 l24.947554405263332,316.59030681848526 l64.86364145368466,202.73764127492905 c35.924478343579196,110.85654276609421 76.83846756821106,237.69240701198578 90.80909803515854,281.6355410814285 c13.970630466947467,43.94313406944275 37.92028269600027,109.85783517360687 53.8867175153688,145.81130850315094 c31.932869638737063,74.90306943655014 61.869934925053066,202.73764127492905 77.8363697444216,333.56833589076996 c28.939163110105465,241.68723738193512 38.9181848722108,569.2633277177811 20.9559457004212,699.0953147411346 c-13.970630466947467,98.87205165624619 -57.87832622021093,261.6613892316818 -84.82168497789533,315.5915992259979 c-22.951750052842264,43.94313406944275 -45.90350010568453,123.83974146842957 -58.87622839642147,199.74151849746704 c-3.991608704842133,19.974151849746704 -21.953847876631734,56.92633277177811 -40.91398922463187,81.89402258396149 c-18.960141348000136,24.96768981218338 -34.926576167368665,56.92633277177811 -34.926576167368665,70.9082390666008 c0,12.983198702335358 -19.958043524210666,52.931502401828766 -44.905597929474,87.8862681388855 c-23.9496522290528,34.95476573705673 -56.8804240440004,85.88885295391083 -70.85105451094786,112.85395795106888 c-49.895108810526665,92.87980610132217 -422.1126205370556,448.4197090268135 -598.74130572632,571.2607429027557 c-34.926576167368665,24.96768981218338 -195.5888265372645,90.8823909163475 -310.34757680147584,126.83586424589157 c-102.78392414968494,32.95735055208206 -375.21121825516053,100.86946684122086 -481.9867511096876,118.84620350599289 c-101.78602197347439,17.976736664772034 -417.12310965600295,28.96252018213272 -510.925914219793,16.9780290722847 zm243.4881309953701,-191.75185775756836 c46.901402281895066,-25.966397404670715 82.82588062547426,-72.90565425157547 97.79441326863225,-127.8345718383789 c8.981119585894799,-32.95735055208206 14.968532643158,-37.95088851451874 47.8993044581056,-43.94313406944275 c105.77763067831654,-15.979321479797363 138.70840249326412,-172.776413500309 52.88881533915827,-249.6768981218338 c-24.947554405263332,-22.97027462720871 -27.941260933894934,-10.985783517360687 -3.991608704842133,15.979321479797363 c9.979021762105333,11.984491109848022 17.962239171789598,41.94571888446808 20.9559457004212,77.89919221401215 c3.991608704842133,54.928917586803436 1.9958043524210667,60.92116314172745 -25.945456581473863,89.88368332386017 c-23.9496522290528,23.968982219696045 -38.9181848722108,29.961227774620056 -70.85105451094786,29.961227774620056 c-34.926576167368665,0 -40.91398922463187,2.9961227774620056 -40.91398922463187,21.971567034721375 c0,33.9560581445694 -37.92028269600027,104.8642972111702 -70.85105451094786,132.82810980081558 c-88.81329368273745,73.9043618440628 -246.48183752400172,41.94571888446808 -295.3790441583178,-60.92116314172745 c-14.968532643158,-28.96252018213272 -21.953847876631734,-33.9560581445694 -52.88881533915827,-33.9560581445694 c-56.8804240440004,0 -123.73986985010613,-26.96510499715805 -160.66225036989587,-65.91470110416412 c-29.937065286316,-30.95993536710739 -33.92867399115813,-40.94701129198074 -32.9307718149476,-86.88756054639816 c0,-59.92245554924011 21.953847876631734,-106.86171239614487 66.85944580610574,-148.80743128061295 c40.91398922463187,-35.95347332954407 20.9559457004212,-35.95347332954407 -29.937065286316,0.9987075924873352 c-66.85944580610574,48.936672031879425 -95.7986089162112,133.82681739330292 -68.8552501585268,203.73634886741638 c29.937065286316,79.89660739898682 115.75665244042186,136.82294017076492 204.56994612315933,136.82294017076492 c30.934967462526533,0 37.92028269600027,4.993537962436676 48.89720663431613,29.961227774620056 c42.90979357705293,94.87722128629684 208.56155482800148,135.8242325782776 313.34128333010744,77.89919221401215 zm0.9979021762105332,-167.78287553787231 l47.8993044581056,0 l-2.9937065286316,-86.88756054639816 l-2.9937065286316,-87.8862681388855 l-171.63917430821172,-2.9961227774620056 l-172.63707648442227,-1.9974151849746704 l0,95.87592887878418 l0,96.87463647127151 l127.73147855494825,-5.992245554924011 c69.85315233473733,-3.994830369949341 148.68742425536948,-6.9909531474113455 174.63288083684333,-6.9909531474113455 zm-324.31820726842335,-135.8242325782776 l2.9937065286316,-50.934087216854095 l184.61190259894866,-7.989660739898682 c101.78602197347439,-3.994830369949341 186.60770695136972,-4.993537962436676 188.60351130379078,-2.9961227774620056 c1.9958043524210667,1.9974151849746704 12.972728290736931,73.9043618440628 13.970630466947467,100.86946684122086 c0.9979021762105332,3.994830369949341 21.953847876631734,6.9909531474113455 48.89720663431613,4.993537962436676 c43.90769575326347,-2.9961227774620056 46.901402281895066,-4.993537962436676 45.90350010568453,-29.961227774620056 c-0.9979021762105332,-15.979321479797363 -1.9958043524210667,-90.8823909163475 -1.9958043524210667,-167.78287553787231 l-1.9958043524210667,-139.81906294822693 l-48.89720663431613,0 l-49.895108810526665,0 l-2.9937065286316,52.931502401828766 l-2.9937065286316,51.93279480934143 l-191.5972178324224,2.9961227774620056 l-192.5951200086329,1.9974151849746704 l0,-49.93537962436676 l0,-49.93537962436676 l-50.893010986737195,0 l-51.890913162947726,0 l5.9874130572632,97.87334406375885 c3.991608704842133,52.931502401828766 6.9853152334737345,129.83198702335358 6.9853152334737345,169.78029072284698 l0,72.90565425157547 l47.8993044581056,-2.9961227774620056 l46.901402281895066,-2.9961227774620056 l2.9937065286316,-50.934087216854095 zm284.40212022000196,-203.73634886741638 l77.8363697444216,0 l-2.9937065286316,-141.8164781332016 l-2.9937065286316,-142.81518572568893 l-169.64336995579066,0 l-169.64336995579066,0 l-2.9937065286316,148.80743128061295 l-2.9937065286316,148.80743128061295 l97.79441326863225,-5.992245554924011 c53.8867175153688,-3.994830369949341 132.7209894360009,-6.9909531474113455 175.63078301305387,-6.9909531474113455 zm-929.0469260520066,-74.90306943655014 c49.895108810526665,-5.992245554924011 46.901402281895066,-0.9987075924873352 62.867837101263596,-96.87463647127151 c3.991608704842133,-28.96252018213272 11.9748261145264,-37.95088851451874 35.924478343579196,-46.939256846904755 c28.939163110105465,-9.987075924873352 34.926576167368665,-7.989660739898682 80.8300762730532,28.96252018213272 c27.941260933894934,21.971567034721375 54.88461969157933,36.9521809220314 61.869934925053066,32.95735055208206 c5.9874130572632,-3.994830369949341 35.924478343579196,-24.96768981218338 65.8615436298952,-45.94054925441742 c29.937065286316,-21.971567034721375 55.88252186778987,-40.94701129198074 57.87832622021093,-41.94571888446808 c0.9979021762105332,-0.9987075924873352 -6.9853152334737345,-28.96252018213272 -18.960141348000136,-61.91987073421478 c-20.9559457004212,-57.92504036426544 -20.9559457004212,-59.92245554924011 -3.991608704842133,-86.88756054639816 c15.966434819368532,-23.968982219696045 22.951750052842264,-26.96510499715805 51.890913162947726,-21.971567034721375 c109.76923938315866,18.97544425725937 93.80280456379013,25.966397404670715 131.7230872597904,-60.92116314172745 l32.9307718149476,-77.89919221401215 l-46.901402281895066,-39.94830369949341 c-40.91398922463187,-35.95347332954407 -45.90350010568453,-44.941841661930084 -42.90979357705293,-73.9043618440628 c2.9937065286316,-30.95993536710739 7.983217409684266,-35.95347332954407 57.87832622021093,-53.9302099943161 c29.937065286316,-11.984491109848022 57.87832622021093,-25.966397404670715 61.869934925053066,-30.95993536710739 c4.9895108810526665,-6.9909531474113455 7.983217409684266,-3.994830369949341 7.983217409684266,6.9909531474113455 c0,8.988368332386017 -2.9937065286316,16.9780290722847 -6.9853152334737345,16.9780290722847 c-4.9895108810526665,0 -20.9559457004212,11.984491109848022 -36.922380519789726,25.966397404670715 l-28.939163110105465,25.966397404670715 l27.941260933894934,58.92374795675278 c24.947554405263332,50.934087216854095 31.932869638737063,57.92504036426544 51.890913162947726,53.9302099943161 c12.972728290736931,-2.9961227774620056 33.92867399115813,-6.9909531474113455 46.901402281895066,-9.987075924873352 c14.968532643158,-2.9961227774620056 28.939163110105465,1.9974151849746704 40.91398922463187,14.980613887310028 c16.964336995579064,18.97544425725937 16.964336995579064,21.971567034721375 0.9979021762105332,64.91599351167679 c-17.962239171789598,44.941841661930084 -17.962239171789598,44.941841661930084 5.9874130572632,64.91599351167679 c11.9748261145264,9.987075924873352 37.92028269600027,26.96510499715805 54.88461969157933,36.9521809220314 l32.9307718149476,16.9780290722847 l32.9307718149476,-31.958642959594727 c28.939163110105465,-27.963812589645386 36.922380519789726,-30.95993536710739 58.87622839642147,-22.97027462720871 c19.958043524210666,7.989660739898682 26.9433587576844,18.97544425725937 33.92867399115813,57.92504036426544 l8.981119585894799,47.93796443939209 l65.8615436298952,2.9961227774620056 l65.8615436298952,2.9961227774620056 l12.972728290736931,-45.94054925441742 c10.976923938315867,-38.94959610700607 15.966434819368532,-44.941841661930084 39.91608704842133,-44.941841661930084 c18.960141348000136,0 36.922380519789726,10.985783517360687 58.87622839642147,34.95476573705673 l29.937065286316,34.95476573705673 l56.8804240440004,-26.96510499715805 l55.88252186778987,-27.963812589645386 l-6.9853152334737345,-50.934087216854095 c-7.983217409684266,-69.90953147411346 6.9853152334737345,-82.89273017644882 73.84476103957945,-61.91987073421478 l46.901402281895066,14.980613887310028 l36.922380519789726,-52.931502401828766 l36.922380519789726,-52.931502401828766 l-29.937065286316,-34.95476573705673 c-41.9118914008424,-46.939256846904755 -33.92867399115813,-82.89273017644882 19.958043524210666,-91.88109850883484 c53.8867175153688,-8.988368332386017 57.87832622021093,-12.983198702335358 64.86364145368466,-78.89789980649948 l6.9853152334737345,-59.92245554924011 l-37.92028269600027,-13.981906294822693 c-75.84056539200054,-26.96510499715805 -82.82588062547426,-51.93279480934143 -27.941260933894934,-100.86946684122086 l36.922380519789726,-31.958642959594727 l-23.9496522290528,-50.934087216854095 c-30.934967462526533,-68.91082388162613 -27.941260933894934,-66.91340869665146 -77.8363697444216,-55.92762517929077 c-38.9181848722108,8.988368332386017 -46.901402281895066,6.9909531474113455 -63.86573927747413,-9.987075924873352 c-18.960141348000136,-17.976736664772034 -18.960141348000136,-19.974151849746704 -0.9979021762105332,-65.91470110416412 c14.968532643158,-39.94830369949341 14.968532643158,-47.93796443939209 2.9937065286316,-54.928917586803436 c-7.983217409684266,-4.993537962436676 -28.939163110105465,-19.974151849746704 -47.8993044581056,-33.9560581445694 c-18.960141348000136,-13.981906294822693 -37.92028269600027,-25.966397404670715 -42.90979357705293,-25.966397404670715 c-3.991608704842133,0 -22.951750052842264,13.981906294822693 -41.9118914008424,29.961227774620056 c-29.937065286316,25.966397404670715 -36.922380519789726,28.96252018213272 -58.87622839642147,18.97544425725937 c-17.962239171789598,-7.989660739898682 -25.945456581473863,-22.97027462720871 -32.9307718149476,-56.92633277177811 l-8.981119585894799,-46.939256846904755 l-64.86364145368466,0 l-64.86364145368466,0 l-13.970630466947467,41.94571888446808 c-11.9748261145264,32.95735055208206 -19.958043524210666,41.94571888446808 -41.9118914008424,44.941841661930084 c-20.9559457004212,2.9961227774620056 -32.9307718149476,-2.9961227774620056 -52.88881533915827,-27.963812589645386 c-14.968532643158,-18.97544425725937 -21.953847876631734,-34.95476573705673 -15.966434819368532,-38.94959610700607 c5.9874130572632,-3.994830369949341 3.991608704842133,-16.9780290722847 -5.9874130572632,-35.95347332954407 c-20.9559457004212,-41.94571888446808 -11.9748261145264,-58.92374795675278 30.934967462526533,-58.92374795675278 c30.934967462526533,0 36.922380519789726,-3.994830369949341 49.895108810526665,-35.95347332954407 c20.9559457004212,-49.93537962436676 18.960141348000136,-60.92116314172745 -11.9748261145264,-75.90177702903748 c-38.9181848722108,-18.97544425725937 -40.91398922463187,-48.936672031879425 -2.9937065286316,-69.90953147411346 c30.934967462526533,-16.9780290722847 35.924478343579196,-37.95088851451874 23.9496522290528,-84.89014536142349 c-4.9895108810526665,-16.9780290722847 -13.970630466947467,-22.97027462720871 -33.92867399115813,-22.97027462720871 c-15.966434819368532,0 -35.924478343579196,-6.9909531474113455 -44.905597929474,-15.979321479797363 c-13.970630466947467,-14.980613887310028 -13.970630466947467,-18.97544425725937 3.991608704842133,-48.936672031879425 l18.960141348000136,-32.95735055208206 l-33.92867399115813,-32.95735055208206 c-33.92867399115813,-32.95735055208206 -35.924478343579196,-32.95735055208206 -62.867837101263596,-17.976736664772034 c-38.9181848722108,22.97027462720871 -60.87203274884253,8.988368332386017 -60.87203274884253,-39.94830369949341 c0,-35.95347332954407 -1.9958043524210667,-38.94959610700607 -40.91398922463187,-49.93537962436676 c-43.90769575326347,-12.983198702335358 -43.90769575326347,-12.983198702335358 -69.85315233473733,31.958642959594727 c-14.968532643158,25.966397404670715 -42.90979357705293,19.974151849746704 -62.867837101263596,-13.981906294822693 c-16.964336995579064,-28.96252018213272 -20.9559457004212,-30.95993536710739 -58.87622839642147,-24.96768981218338 c-53.8867175153688,8.988368332386017 -56.8804240440004,11.984491109848022 -56.8804240440004,51.93279480934143 c0,42.944426476955414 -18.960141348000136,51.93279480934143 -58.87622839642147,27.963812589645386 l-30.934967462526533,-17.976736664772034 l-33.92867399115813,32.95735055208206 c-32.9307718149476,31.958642959594727 -33.92867399115813,33.9560581445694 -17.962239171789598,59.92245554924011 c22.951750052842264,39.94830369949341 9.979021762105333,60.92116314172745 -34.926576167368665,60.92116314172745 c-35.924478343579196,0 -38.9181848722108,2.9961227774620056 -50.893010986737195,39.94830369949341 c-14.968532643158,48.936672031879425 -14.968532643158,59.92245554924011 0,59.92245554924011 c15.966434819368532,0 47.8993044581056,30.95993536710739 47.8993044581056,46.939256846904755 c0,6.9909531474113455 -15.966434819368532,20.97285944223404 -34.926576167368665,29.961227774620056 c-19.958043524210666,9.987075924873352 -33.92867399115813,21.971567034721375 -30.934967462526533,28.96252018213272 c2.9937065286316,6.9909531474113455 7.983217409684266,28.96252018213272 11.9748261145264,47.93796443939209 c5.9874130572632,33.9560581445694 8.981119585894799,35.95347332954407 43.90769575326347,35.95347332954407 c46.901402281895066,0 56.8804240440004,20.97285944223404 30.934967462526533,63.91728591918945 l-18.960141348000136,30.95993536710739 l32.9307718149476,33.9560581445694 c31.932869638737063,32.95735055208206 32.9307718149476,32.95735055208206 57.87832622021093,15.979321479797363 c39.91608704842133,-25.966397404670715 66.85944580610574,-11.984491109848022 66.85944580610574,34.95476573705673 c0,37.95088851451874 1.9958043524210667,39.94830369949341 41.9118914008424,50.934087216854095 c39.91608704842133,9.987075924873352 42.90979357705293,9.987075924873352 62.867837101263596,-14.980613887310028 c26.9433587576844,-33.9560581445694 51.890913162947726,-32.95735055208206 72.84685886336894,3.994830369949341 c9.979021762105333,16.9780290722847 22.951750052842264,27.963812589645386 31.932869638737063,25.966397404670715 c7.983217409684266,-1.9974151849746704 26.9433587576844,-6.9909531474113455 40.91398922463187,-9.987075924873352 c21.953847876631734,-4.993537962436676 27.941260933894934,-12.983198702335358 32.9307718149476,-45.94054925441742 c5.9874130572632,-34.95476573705673 8.981119585894799,-39.94830369949341 33.92867399115813,-39.94830369949341 c24.947554405263332,0.9987075924873352 25.945456581473863,1.9974151849746704 8.981119585894799,13.981906294822693 c-14.968532643158,11.984491109848022 -16.964336995579064,21.971567034721375 -11.9748261145264,60.92116314172745 c5.9874130572632,35.95347332954407 3.991608704842133,49.93537962436676 -9.979021762105333,64.91599351167679 c-15.966434819368532,17.976736664772034 -19.958043524210666,17.976736664772034 -55.88252186778987,2.9961227774620056 c-48.89720663431613,-18.97544425725937 -59.874130572632,-14.980613887310028 -98.7923154448428,41.94571888446808 l-31.932869638737063,46.939256846904755 l31.932869638737063,32.95735055208206 c24.947554405263332,25.966397404670715 29.937065286316,37.95088851451874 24.947554405263332,55.92762517929077 c-8.981119585894799,29.961227774620056 -22.951750052842264,38.94959610700607 -56.8804240440004,38.94959610700607 c-14.968532643158,0 -32.9307718149476,6.9909531474113455 -41.9118914008424,14.980613887310028 c-17.962239171789598,17.976736664772034 -49.895108810526665,19.974151849746704 -63.86573927747413,2.9961227774620056 c-26.9433587576844,-33.9560581445694 -23.9496522290528,-58.92374795675278 11.9748261145264,-102.86688202619553 c19.958043524210666,-23.968982219696045 35.924478343579196,-48.936672031879425 35.924478343579196,-54.928917586803436 c0,-6.9909531474113455 -20.9559457004212,-39.94830369949341 -45.90350010568453,-74.90306943655014 l-45.90350010568453,-62.91857832670212 l-59.874130572632,23.968982219696045 c-56.8804240440004,21.971567034721375 -60.87203274884253,22.97027462720871 -83.8237828016848,5.992245554924011 c-22.951750052842264,-15.979321479797363 -23.9496522290528,-20.97285944223404 -18.960141348000136,-76.90048462152481 c3.991608704842133,-32.95735055208206 6.9853152334737345,-62.91857832670212 7.983217409684266,-66.91340869665146 c0.9979021762105332,-4.993537962436676 -31.932869638737063,-23.968982219696045 -72.84685886336894,-42.944426476955414 l-73.84476103957945,-33.9560581445694 l-45.90350010568453,49.93537962436676 c-39.91608704842133,44.941841661930084 -47.8993044581056,48.936672031879425 -75.84056539200054,43.94313406944275 c-25.945456581473863,-5.992245554924011 -32.9307718149476,-14.980613887310028 -48.89720663431613,-57.92504036426544 c-9.979021762105333,-28.96252018213272 -20.9559457004212,-54.928917586803436 -23.9496522290528,-58.92374795675278 c-6.9853152334737345,-7.989660739898682 -143.69791337431678,1.9974151849746704 -159.66434819368533,11.984491109848022 c-5.9874130572632,2.9961227774620056 -15.966434819368532,32.95735055208206 -21.953847876631734,65.91470110416412 c-8.981119585894799,53.9302099943161 -13.970630466947467,60.92116314172745 -40.91398922463187,71.90694665908813 c-28.939163110105465,10.985783517360687 -33.92867399115813,8.988368332386017 -79.83217409684266,-29.961227774620056 l-48.89720663431613,-40.94701129198074 l-51.890913162947726,36.9521809220314 c-95.7986089162112,66.91340869665146 -89.811195858948,54.928917586803436 -62.867837101263596,120.84361869096756 l23.9496522290528,58.92374795675278 l-20.9559457004212,27.963812589645386 c-14.968532643158,19.974151849746704 -27.941260933894934,27.963812589645386 -41.9118914008424,23.968982219696045 c-10.976923938315867,-1.9974151849746704 -39.91608704842133,-6.9909531474113455 -64.86364145368466,-10.985783517360687 l-44.905597929474,-6.9909531474113455 l-32.9307718149476,77.89919221401215 l-33.92867399115813,76.90048462152481 l28.939163110105465,21.971567034721375 c67.85734798231626,53.9302099943161 71.84895668715839,58.92374795675278 65.8615436298952,91.88109850883484 c-4.9895108810526665,28.96252018213272 -10.976923938315867,34.95476573705673 -64.86364145368466,54.928917586803436 l-59.874130572632,21.971567034721375 l6.9853152334737345,79.89660739898682 c3.991608704842133,44.941841661930084 7.983217409684266,82.89273017644882 10.976923938315867,84.89014536142349 c1.9958043524210667,1.9974151849746704 30.934967462526533,8.988368332386017 65.8615436298952,14.980613887310028 c57.87832622021093,9.987075924873352 62.867837101263596,12.983198702335358 71.84895668715839,42.944426476955414 c7.983217409684266,27.963812589645386 4.9895108810526665,36.9521809220314 -19.958043524210666,68.91082388162613 c-15.966434819368532,19.974151849746704 -32.9307718149476,41.94571888446808 -37.92028269600027,48.936672031879425 c-6.9853152334737345,8.988368332386017 1.9958043524210667,29.961227774620056 28.939163110105465,68.91082388162613 c55.88252186778987,81.89402258396149 55.88252186778987,81.89402258396149 119.748261145264,55.92762517929077 l53.8867175153688,-21.971567034721375 l28.939163110105465,20.97285944223404 c27.941260933894934,18.97544425725937 28.939163110105465,22.97027462720871 20.9559457004212,62.91857832670212 c-15.966434819368532,82.89273017644882 -14.968532643158,84.89014536142349 56.8804240440004,117.84749591350555 c36.922380519789726,15.979321479797363 71.84895668715839,29.961227774620056 78.83427192063213,29.961227774620056 c5.9874130572632,0 25.945456581473863,-19.974151849746704 44.905597929474,-44.941841661930084 c25.945456581473863,-33.9560581445694 39.91608704842133,-44.941841661930084 60.87203274884253,-44.941841661930084 c35.924478343579196,0 53.8867175153688,18.97544425725937 73.84476103957945,79.89660739898682 c15.966434819368532,48.936672031879425 16.964336995579064,49.93537962436676 52.88881533915827,44.941841661930084 c19.958043524210666,-1.9974151849746704 57.87832622021093,-6.9909531474113455 83.8237828016848,-9.987075924873352 zm2315.1330488084373,-55.92762517929077 c115.75665244042186,-23.968982219696045 208.56155482800148,-94.87722128629684 264.44407669579135,-200.74022608995438 c24.947554405263332,-46.939256846904755 27.941260933894934,-63.91728591918945 27.941260933894934,-147.8087236881256 c0,-86.88756054639816 -1.9958043524210667,-98.87205165624619 -28.939163110105465,-144.8126009106636 c-15.966434819368532,-26.96510499715805 -79.83217409684266,-101.86817443370819 -141.70210902189572,-165.78546035289764 c-110.7671415593692,-112.85395795106888 -133.71889161221148,-146.81001609563828 -133.71889161221148,-192.7505653500557 c0,-75.90177702903748 -232.51120705705426,-53.9302099943161 -316.33498985873905,28.96252018213272 c-29.937065286316,29.961227774620056 -31.932869638737063,34.95476573705673 -21.953847876631734,65.91470110416412 c11.9748261145264,43.94313406944275 4.9895108810526665,90.8823909163475 -33.92867399115813,208.72988682985306 c-26.9433587576844,81.89402258396149 -30.934967462526533,109.85783517360687 -30.934967462526533,204.73505645990372 c-0.9979021762105332,96.87463647127151 1.9958043524210667,114.85137313604355 22.951750052842264,154.79967683553696 c48.89720663431613,93.87851369380951 132.7209894360009,159.79321479797363 235.50491358568587,185.75961220264435 c64.86364145368466,15.979321479797363 91.80700021136906,15.979321479797363 156.67064166505372,2.9961227774620056 zm-312.3433811538969,-877.8639737963676 c63.86573927747413,-42.944426476955414 140.7042068456852,-63.91728591918945 217.54267441389626,-56.92633277177811 c65.8615436298952,4.993537962436676 83.8237828016848,-2.9961227774620056 61.869934925053066,-29.961227774620056 c-22.951750052842264,-25.966397404670715 -178.62448954168548,-13.981906294822693 -250.47344622884387,20.97285944223404 c-56.8804240440004,26.96510499715805 -102.78392414968494,69.90953147411346 -91.80700021136906,86.88756054639816 c7.983217409684266,13.981906294822693 14.968532643158,10.985783517360687 62.867837101263596,-20.97285944223404 zm-13.970630466947467,-74.90306943655014 c56.8804240440004,-42.944426476955414 107.7734350307376,-56.92633277177811 192.5951200086329,-53.9302099943161 c59.874130572632,1.9974151849746704 66.85944580610574,0.9987075924873352 66.85944580610574,-16.9780290722847 c0,-14.980613887310028 -9.979021762105333,-20.97285944223404 -44.905597929474,-27.963812589645386 c-94.80070674000066,-17.976736664772034 -260.4524679909492,47.93796443939209 -267.43778322442296,106.86171239614487 c-1.9958043524210667,14.980613887310028 -0.9979021762105332,26.96510499715805 1.9958043524210667,26.96510499715805 c2.9937065286316,0 25.945456581473863,-15.979321479797363 50.893010986737195,-34.95476573705673 zm131.7230872597904,-123.83974146842957 c48.89720663431613,-1.9974151849746704 72.84685886336894,-6.9909531474113455 69.85315233473733,-14.980613887310028 c-5.9874130572632,-16.9780290722847 -135.7146959646325,-85.88885295391083 -152.6790329602116,-78.89789980649948 c-6.9853152334737345,2.9961227774620056 -13.970630466947467,8.988368332386017 -13.970630466947467,13.981906294822693 c0,3.994830369949341 -12.972728290736931,29.961227774620056 -29.937065286316,55.92762517929077 c-15.966434819368532,25.966397404670715 -29.937065286316,54.928917586803436 -29.937065286316,64.91599351167679 c0,15.979321479797363 4.9895108810526665,14.980613887310028 41.9118914008424,-8.988368332386017 c32.9307718149476,-22.97027462720871 54.88461969157933,-27.963812589645386 114.75875026421133,-31.958642959594727 zm-638.6573927747413,-176.77124387025833 c15.966434819368532,-3.994830369949341 22.951750052842264,-15.979321479797363 27.941260933894934,-44.941841661930084 c9.979021762105333,-56.92633277177811 35.924478343579196,-67.9121162891388 81.82797844926374,-32.95735055208206 c37.92028269600027,28.96252018213272 48.89720663431613,26.96510499715805 101.78602197347439,-16.9780290722847 c22.951750052842264,-18.97544425725937 22.951750052842264,-21.971567034721375 10.976923938315867,-59.92245554924011 c-18.960141348000136,-56.92633277177811 -5.9874130572632,-73.9043618440628 55.88252186778987,-73.9043618440628 c47.8993044581056,0 47.8993044581056,0 67.85734798231626,-46.939256846904755 l18.960141348000136,-46.939256846904755 l-30.934967462526533,-25.966397404670715 c-45.90350010568453,-38.94959610700607 -42.90979357705293,-66.91340869665146 10.976923938315867,-85.88885295391083 l41.9118914008424,-15.979321479797363 l-2.9937065286316,-48.936672031879425 c-3.991608704842133,-57.92504036426544 -9.979021762105333,-64.91599351167679 -57.87832622021093,-72.90565425157547 c-52.88881533915827,-8.988368332386017 -60.87203274884253,-37.95088851451874 -23.9496522290528,-81.89402258396149 l27.941260933894934,-33.9560581445694 l-22.951750052842264,-30.95993536710739 l-23.9496522290528,-30.95993536710739 l25.945456581473863,-13.981906294822693 c15.966434819368532,-8.988368332386017 27.941260933894934,-9.987075924873352 29.937065286316,-3.994830369949341 c6.9853152334737345,20.97285944223404 18.960141348000136,32.95735055208206 39.91608704842133,38.94959610700607 c15.966434819368532,4.993537962436676 22.951750052842264,1.9974151849746704 27.941260933894934,-13.981906294822693 c6.9853152334737345,-21.971567034721375 24.947554405263332,-25.966397404670715 41.9118914008424,-8.988368332386017 c17.962239171789598,17.976736664772034 52.88881533915827,0.9987075924873352 52.88881533915827,-26.96510499715805 c0,-18.97544425725937 4.9895108810526665,-23.968982219696045 23.9496522290528,-23.968982219696045 c34.926576167368665,0 52.88881533915827,-25.966397404670715 36.922380519789726,-51.93279480934143 c-13.970630466947467,-21.971567034721375 -13.970630466947467,-20.97285944223404 16.964336995579064,-36.9521809220314 c27.941260933894934,-14.980613887310028 28.939163110105465,-50.934087216854095 1.9958043524210667,-57.92504036426544 c-21.953847876631734,-5.992245554924011 -25.945456581473863,-22.97027462720871 -8.981119585894799,-39.94830369949341 c18.960141348000136,-18.97544425725937 0.9979021762105332,-52.931502401828766 -27.941260933894934,-52.931502401828766 c-21.953847876631734,0 -24.947554405263332,-3.994830369949341 -19.958043524210666,-25.966397404670715 c5.9874130572632,-31.958642959594727 -31.932869638737063,-54.928917586803436 -56.8804240440004,-33.9560581445694 c-12.972728290736931,9.987075924873352 -16.964336995579064,7.989660739898682 -26.9433587576844,-13.981906294822693 c-14.968532643158,-31.958642959594727 -54.88461969157933,-35.95347332954407 -63.86573927747413,-5.992245554924011 c-8.981119585894799,28.96252018213272 -24.947554405263332,23.968982219696045 -62.867837101263596,-19.974151849746704 c-40.91398922463187,-47.93796443939209 -36.922380519789726,-74.90306943655014 11.9748261145264,-83.89143776893616 c27.941260933894934,-4.993537962436676 34.926576167368665,-11.984491109848022 39.91608704842133,-36.9521809220314 c10.976923938315867,-56.92633277177811 7.983217409684266,-66.91340869665146 -27.941260933894934,-79.89660739898682 c-46.901402281895066,-16.9780290722847 -51.890913162947726,-42.944426476955414 -14.968532643158,-73.9043618440628 l29.937065286316,-23.968982219696045 l-20.9559457004212,-41.94571888446808 c-20.9559457004212,-39.94830369949341 -22.951750052842264,-40.94701129198074 -60.87203274884253,-35.95347332954407 c-47.8993044581056,5.992245554924011 -65.8615436298952,-15.979321479797363 -47.8993044581056,-56.92633277177811 c14.968532643158,-32.95735055208206 7.983217409684266,-47.93796443939209 -33.92867399115813,-70.9082390666008 l-35.924478343579196,-18.97544425725937 l-24.947554405263332,22.97027462720871 c-32.9307718149476,30.95993536710739 -59.874130572632,20.97285944223404 -71.84895668715839,-26.96510499715805 c-8.981119585894799,-34.95476573705673 -10.976923938315867,-36.9521809220314 -55.88252186778987,-39.94830369949341 c-44.905597929474,-2.9961227774620056 -45.90350010568453,-1.9974151849746704 -57.87832622021093,31.958642959594727 c-13.970630466947467,43.94313406944275 -44.905597929474,47.93796443939209 -74.84266321579,10.985783517360687 l-19.958043524210666,-25.966397404670715 l-42.90979357705293,17.976736664772034 c-41.9118914008424,16.9780290722847 -42.90979357705293,18.97544425725937 -38.9181848722108,57.92504036426544 c3.991608704842133,52.931502401828766 -13.970630466947467,67.9121162891388 -59.874130572632,48.936672031879425 c-31.932869638737063,-13.981906294822693 -32.9307718149476,-13.981906294822693 -58.87622839642147,25.966397404670715 l-26.9433587576844,40.94701129198074 l21.953847876631734,29.961227774620056 c28.939163110105465,38.94959610700607 20.9559457004212,68.91082388162613 -18.960141348000136,68.91082388162613 c-33.92867399115813,0 -49.895108810526665,22.97027462720871 -49.895108810526665,72.90565425157547 c0,29.961227774620056 3.991608704842133,34.95476573705673 32.9307718149476,42.944426476955414 c42.90979357705293,12.983198702335358 48.89720663431613,48.936672031879425 11.9748261145264,77.89919221401215 l-26.9433587576844,21.971567034721375 l20.9559457004212,42.944426476955414 c21.953847876631734,40.94701129198074 22.951750052842264,41.94571888446808 60.87203274884253,35.95347332954407 c30.934967462526533,-4.993537962436676 39.91608704842133,-2.9961227774620056 47.8993044581056,11.984491109848022 c4.9895108810526665,9.987075924873352 5.9874130572632,26.96510499715805 0.9979021762105332,37.95088851451874 c-13.970630466947467,35.95347332954407 -8.981119585894799,49.93537962436676 26.9433587576844,72.90565425157547 l34.926576167368665,22.97027462720871 l28.939163110105465,-20.97285944223404 c39.91608704842133,-27.963812589645386 62.867837101263596,-22.97027462720871 70.85105451094786,16.9780290722847 c7.983217409684266,38.94959610700607 4.9895108810526665,42.944426476955414 -36.922380519789726,42.944426476955414 c-32.9307718149476,0 -43.90769575326347,15.979321479797363 -43.90769575326347,66.91340869665146 c0,35.95347332954407 -41.9118914008424,40.94701129198074 -81.82797844926374,9.987075924873352 l-31.932869638737063,-24.96768981218338 l-42.90979357705293,29.961227774620056 c-23.9496522290528,16.9780290722847 -42.90979357705293,32.95735055208206 -42.90979357705293,35.95347332954407 c0,2.9961227774620056 4.9895108810526665,21.971567034721375 10.976923938315867,42.944426476955414 c15.966434819368532,52.931502401828766 0.9979021762105332,70.9082390666008 -57.87832622021093,66.91340869665146 c-43.90769575326347,-2.9961227774620056 -43.90769575326347,-2.9961227774620056 -64.86364145368466,45.94054925441742 l-21.953847876631734,48.936672031879425 l31.932869638737063,26.96510499715805 c45.90350010568453,37.95088851451874 42.90979357705293,65.91470110416412 -10.976923938315867,88.88497573137283 l-42.90979357705293,17.976736664772034 l5.9874130572632,53.9302099943161 l4.9895108810526665,52.931502401828766 l41.9118914008424,8.988368332386017 c57.87832622021093,10.985783517360687 70.85105451094786,35.95347332954407 37.92028269600027,74.90306943655014 c-30.934967462526533,37.95088851451874 -30.934967462526533,44.941841661930084 2.9937065286316,92.87980610132217 c30.934967462526533,43.94313406944275 30.934967462526533,43.94313406944275 76.83846756821106,24.96768981218338 c49.895108810526665,-20.97285944223404 69.85315233473733,-3.994830369949341 62.867837101263596,56.92633277177811 l-4.9895108810526665,44.941841661930084 l50.893010986737195,21.971567034721375 l50.893010986737195,20.97285944223404 l25.945456581473863,-29.961227774620056 c36.922380519789726,-43.94313406944275 66.85944580610574,-40.94701129198074 85.81958715410586,8.988368332386017 c14.968532643158,35.95347332954407 18.960141348000136,39.94830369949341 51.890913162947726,39.94830369949341 c19.958043524210666,0 45.90350010568453,-2.9961227774620056 57.87832622021093,-5.992245554924011 zm-1773.2721671261174,-353.54248774051666 c24.947554405263332,-24.96768981218338 24.947554405263332,-40.94701129198074 -1.9958043524210667,-92.87980610132217 c-39.91608704842133,-79.89660739898682 -65.8615436298952,-236.69369941949844 -37.92028269600027,-236.69369941949844 c5.9874130572632,0 9.979021762105333,4.993537962436676 9.979021762105333,10.985783517360687 c0,13.981906294822693 78.83427192063213,4.993537962436676 109.76923938315866,-10.985783517360687 c22.951750052842264,-11.984491109848022 26.9433587576844,-44.941841661930084 5.9874130572632,-52.931502401828766 c-16.964336995579064,-6.9909531474113455 -95.7986089162112,11.984491109848022 -114.75875026421133,26.96510499715805 c-22.951750052842264,17.976736664772034 -5.9874130572632,-37.95088851451874 33.92867399115813,-113.85266554355621 c126.73357637873774,-239.68982219696045 150.6832286077905,-307.60193848609924 138.70840249326412,-393.49079144001007 c-17.962239171789598,-124.8384490609169 -97.79441326863225,-285.63037145137787 -141.70210902189572,-285.63037145137787 c-26.9433587576844,0 -51.890913162947726,31.958642959594727 -51.890913162947726,64.91599351167679 c0,17.976736664772034 15.966434819368532,71.90694665908813 36.922380519789726,120.84361869096756 c59.874130572632,145.81130850315094 52.88881533915827,191.75185775756836 -52.88881533915827,355.53990292549133 c-85.81958715410586,131.82940220832825 -123.73986985010613,315.5915992259979 -90.80909803515854,444.42487865686417 c38.9181848722108,151.80355405807495 102.78392414968494,216.71954756975174 156.67064166505372,162.78933757543564 zm296.3769463345284,-75.90177702903748 c23.9496522290528,-23.968982219696045 24.947554405263332,-29.961227774620056 19.958043524210666,-84.89014536142349 c-8.981119585894799,-80.89531499147415 -40.91398922463187,-173.77512109279633 -83.8237828016848,-238.6911146044731 c-35.924478343579196,-53.9302099943161 -137.7105003170536,-159.79321479797363 -153.67693513642212,-159.79321479797363 c-4.9895108810526665,0 -21.953847876631734,20.97285944223404 -37.92028269600027,46.939256846904755 l-28.939163110105465,46.939256846904755 l47.8993044581056,42.944426476955414 c26.9433587576844,23.968982219696045 59.874130572632,62.91857832670212 72.84685886336894,85.88885295391083 c33.92867399115813,57.92504036426544 66.85944580610574,157.79579961299896 66.85944580610574,204.73505645990372 c0,38.94959610700607 13.970630466947467,65.91470110416412 39.91608704842133,74.90306943655014 c25.945456581473863,8.988368332386017 29.937065286316,7.989660739898682 56.8804240440004,-18.97544425725937 zm-166.64966342715908,-8.988368332386017 c37.92028269600027,-8.988368332386017 44.905597929474,-14.980613887310028 44.905597929474,-35.95347332954407 c0,-20.97285944223404 -3.991608704842133,-23.968982219696045 -34.926576167368665,-22.97027462720871 c-51.890913162947726,1.9974151849746704 -119.748261145264,22.97027462720871 -126.73357637873774,39.94830369949341 c-8.981119585894799,23.968982219696045 15.966434819368532,44.941841661930084 45.90350010568453,36.9521809220314 c13.970630466947467,-2.9961227774620056 45.90350010568453,-11.984491109848022 70.85105451094786,-17.976736664772034 zm-34.926576167368665,-112.85395795106888 c47.8993044581056,-13.981906294822693 60.87203274884253,-20.97285944223404 62.867837101263596,-39.94830369949341 c3.991608704842133,-28.96252018213272 -15.966434819368532,-35.95347332954407 -68.8552501585268,-21.971567034721375 c-23.9496522290528,5.992245554924011 -60.87203274884253,15.979321479797363 -80.8300762730532,20.97285944223404 c-30.934967462526533,7.989660739898682 -37.92028269600027,13.981906294822693 -37.92028269600027,33.9560581445694 c0,21.971567034721375 3.991608704842133,24.96768981218338 32.9307718149476,23.968982219696045 c16.964336995579064,0 58.87622839642147,-7.989660739898682 91.80700021136906,-16.9780290722847 zm949.0049695762171,-86.88756054639816 c7.983217409684266,-30.95993536710739 29.937065286316,-31.958642959594727 52.88881533915827,-3.994830369949341 c16.964336995579064,20.97285944223404 17.962239171789598,20.97285944223404 48.89720663431613,4.993537962436676 c26.9433587576844,-13.981906294822693 31.932869638737063,-20.97285944223404 29.937065286316,-48.936672031879425 c-2.9937065286316,-30.95993536710739 -1.9958043524210667,-31.958642959594727 33.92867399115813,-28.96252018213272 c29.937065286316,1.9974151849746704 39.91608704842133,-1.9974151849746704 53.8867175153688,-22.97027462720871 c14.968532643158,-22.97027462720871 14.968532643158,-26.96510499715805 -0.9979021762105332,-51.93279480934143 c-16.964336995579064,-24.96768981218338 -16.964336995579064,-26.96510499715805 0.9979021762105332,-39.94830369949341 c9.979021762105333,-6.9909531474113455 22.951750052842264,-12.983198702335358 29.937065286316,-12.983198702335358 c12.972728290736931,0 26.9433587576844,-55.92762517929077 17.962239171789598,-70.9082390666008 c-2.9937065286316,-4.993537962436676 -10.976923938315867,-8.988368332386017 -17.962239171789598,-8.988368332386017 c-7.983217409684266,0 -18.960141348000136,-6.9909531474113455 -25.945456581473863,-14.980613887310028 c-10.976923938315867,-12.983198702335358 -8.981119585894799,-19.974151849746704 8.981119585894799,-38.94959610700607 c20.9559457004212,-21.971567034721375 21.953847876631734,-25.966397404670715 6.9853152334737345,-52.931502401828766 c-11.9748261145264,-24.96768981218338 -19.958043524210666,-28.96252018213272 -43.90769575326347,-24.96768981218338 c-35.924478343579196,4.993537962436676 -44.905597929474,-7.989660739898682 -31.932869638737063,-41.94571888446808 c7.983217409684266,-21.971567034721375 4.9895108810526665,-27.963812589645386 -20.9559457004212,-46.939256846904755 c-27.941260933894934,-18.97544425725937 -30.934967462526533,-19.974151849746704 -47.8993044581056,-4.993537962436676 c-25.945456581473863,22.97027462720871 -40.91398922463187,19.974151849746704 -51.890913162947726,-12.983198702335358 c-7.983217409684266,-22.97027462720871 -16.964336995579064,-29.961227774620056 -43.90769575326347,-32.95735055208206 c-29.937065286316,-2.9961227774620056 -35.924478343579196,-0.9987075924873352 -43.90769575326347,23.968982219696045 c-11.9748261145264,32.95735055208206 -30.934967462526533,35.95347332954407 -55.88252186778987,7.989660739898682 c-15.966434819368532,-17.976736664772034 -19.958043524210666,-17.976736664772034 -45.90350010568453,-4.993537962436676 c-19.958043524210666,10.985783517360687 -28.939163110105465,23.968982219696045 -30.934967462526533,46.939256846904755 c-2.9937065286316,30.95993536710739 -4.9895108810526665,32.95735055208206 -37.92028269600027,29.961227774620056 c-29.937065286316,-1.9974151849746704 -37.92028269600027,1.9974151849746704 -51.890913162947726,25.966397404670715 c-15.966434819368532,26.96510499715805 -15.966434819368532,28.96252018213272 2.9937065286316,48.936672031879425 c18.960141348000136,18.97544425725937 18.960141348000136,20.97285944223404 3.991608704842133,36.9521809220314 c-8.981119585894799,8.988368332386017 -24.947554405263332,15.979321479797363 -35.924478343579196,15.979321479797363 c-14.968532643158,0 -18.960141348000136,6.9909531474113455 -18.960141348000136,34.95476573705673 c0,28.96252018213272 4.9895108810526665,36.9521809220314 24.947554405263332,44.941841661930084 c27.941260933894934,10.985783517360687 33.92867399115813,46.939256846904755 9.979021762105333,55.92762517929077 c-17.962239171789598,6.9909531474113455 -18.960141348000136,23.968982219696045 -3.991608704842133,56.92633277177811 c8.981119585894799,18.97544425725937 17.962239171789598,23.968982219696045 42.90979357705293,22.97027462720871 c29.937065286316,-0.9987075924873352 30.934967462526533,0.9987075924873352 28.939163110105465,34.95476573705673 c-1.9958043524210667,27.963812589645386 2.9937065286316,37.95088851451874 23.9496522290528,50.934087216854095 c23.9496522290528,13.981906294822693 28.939163110105465,13.981906294822693 49.895108810526665,0.9987075924873352 c29.937065286316,-19.974151849746704 52.88881533915827,-9.987075924873352 52.88881533915827,21.971567034721375 c0,22.97027462720871 3.991608704842133,24.96768981218338 39.91608704842133,24.96768981218338 c33.92867399115813,0 40.91398922463187,-3.994830369949341 45.90350010568453,-24.96768981218338 zm-1138.6063830562184,-301.60969293117523 l27.941260933894934,-45.94054925441742 l-28.939163110105465,-20.97285944223404 c-98.7923154448428,-68.91082388162613 -134.716793788422,-134.82552498579025 -149.68532643158,-275.6432955265045 c-7.983217409684266,-78.89789980649948 -25.945456581473863,-117.84749591350555 -61.869934925053066,-130.8306946158409 c-22.951750052842264,-8.988368332386017 -29.937065286316,-6.9909531474113455 -48.89720663431613,15.979321479797363 c-25.945456581473863,29.961227774620056 -26.9433587576844,35.95347332954407 -11.9748261145264,140.81777054071426 c20.9559457004212,149.80613887310028 67.85734798231626,233.69757664203644 177.6265873654749,314.5928916335106 c36.922380519789726,26.96510499715805 66.85944580610574,48.936672031879425 67.85734798231626,48.936672031879425 c0,0 12.972728290736931,-20.97285944223404 27.941260933894934,-46.939256846904755 zm23.9496522290528,-137.82164776325226 c67.85734798231626,-17.976736664772034 85.81958715410586,-33.9560581445694 67.85734798231626,-58.92374795675278 c-11.9748261145264,-15.979321479797363 -15.966434819368532,-15.979321479797363 -79.83217409684266,-0.9987075924873352 c-74.84266321579,18.97544425725937 -96.79651109242174,35.95347332954407 -76.83846756821106,59.92245554924011 c14.968532643158,17.976736664772034 20.9559457004212,17.976736664772034 88.81329368273745,0 zm-73.84476103957945,-105.86300480365753 c141.70210902189572,-36.9521809220314 145.69371772673787,-38.94959610700607 142.70001119810627,-61.91987073421478 c-2.9937065286316,-18.97544425725937 -7.983217409684266,-21.971567034721375 -47.8993044581056,-19.974151849746704 c-69.85315233473733,3.994830369949341 -163.65595689852748,34.95476573705673 -167.6475656033696,56.92633277177811 c-1.9958043524210667,9.987075924873352 1.9958043524210667,21.971567034721375 9.979021762105333,26.96510499715805 c15.966434819368532,10.985783517360687 14.968532643158,10.985783517360687 62.867837101263596,-1.9974151849746704 zm1.9958043524210667,-134.82552498579025 c71.84895668715839,-16.9780290722847 92.8049023875796,-27.963812589645386 92.8049023875796,-50.934087216854095 c0,-23.968982219696045 -26.9433587576844,-25.966397404670715 -105.77763067831654,-7.989660739898682 c-76.83846756821106,16.9780290722847 -95.7986089162112,32.95735055208206 -73.84476103957945,59.92245554924011 c14.968532643158,17.976736664772034 4.9895108810526665,17.976736664772034 86.81748933031639,-0.9987075924873352 zm1638.5553733376955,-2749.442002117634 c55.88252186778987,-86.88756054639816 96.79651109242174,-167.78287553787231 89.811195858948,-174.77382868528366 c-5.9874130572632,-5.992245554924011 -209.559457004212,-25.966397404670715 -266.4398810482124,-25.966397404670715 l-42.90979357705293,0 l47.8993044581056,42.944426476955414 c26.9433587576844,22.97027462720871 58.87622839642147,48.936672031879425 72.84685886336894,57.92504036426544 l23.9496522290528,15.979321479797363 l-23.9496522290528,12.983198702335358 c-55.88252186778987,29.961227774620056 -165.6517612509485,6.9909531474113455 -229.51750052842266,-46.939256846904755 c-79.83217409684266,-68.91082388162613 -108.77133720694813,-181.764781832695 -74.84266321579,-297.6148625612259 c16.964336995579064,-58.92374795675278 74.84266321579,-180.76607424020767 115.75665244042186,-241.68723738193512 c23.9496522290528,-36.9521809220314 17.962239171789598,-39.94830369949341 -34.926576167368665,-17.976736664772034 l-35.924478343579196,14.980613887310028 l0,-51.93279480934143 l-0.9979021762105332,-52.931502401828766 l-23.9496522290528,29.961227774620056 c-28.939163110105465,34.95476573705673 -106.77553285452706,189.7544425725937 -130.72518508357987,259.66397404670715 c-20.9559457004212,62.91857832670212 -29.937065286316,206.7324716448784 -14.968532643158,260.6626816391945 c37.92028269600027,139.81906294822693 215.5468700614752,254.67043608427048 373.21541390273944,241.68723738193512 l54.88461969157933,-3.994830369949341 l11.9748261145264,37.95088851451874 c13.970630466947467,48.936672031879425 20.9559457004212,43.94313406944275 88.81329368273745,-60.92116314172745 zm546.8503925633723,-76.90048462152481 c61.869934925053066,-28.96252018213272 106.77553285452706,-77.89919221401215 141.70210902189572,-153.80096924304962 c21.953847876631734,-45.94054925441742 25.945456581473863,-68.91082388162613 25.945456581473863,-144.8126009106636 c0,-102.86688202619553 -17.962239171789598,-160.79192239046097 -70.85105451094786,-230.70145386457443 c-18.960141348000136,-23.968982219696045 -33.92867399115813,-46.939256846904755 -33.92867399115813,-49.93537962436676 c0,-2.9961227774620056 16.964336995579064,-3.994830369949341 37.92028269600027,-2.9961227774620056 c19.958043524210666,1.9974151849746704 36.922380519789726,-0.9987075924873352 36.922380519789726,-6.9909531474113455 c0.9979021762105332,-9.987075924873352 -273.42519628168617,-228.70403867959976 -278.4147071627388,-222.71179312467575 c-1.9958043524210667,1.9974151849746704 -5.9874130572632,90.8823909163475 -8.981119585894799,196.74539572000504 l-4.9895108810526665,192.7505653500557 l22.951750052842264,-33.9560581445694 c12.972728290736931,-17.976736664772034 35.924478343579196,-41.94571888446808 49.895108810526665,-50.934087216854095 c26.9433587576844,-16.9780290722847 27.941260933894934,-16.9780290722847 55.88252186778987,9.987075924873352 c41.9118914008424,39.94830369949341 78.83427192063213,121.8423262834549 85.81958715410586,187.75702738761902 c18.960141348000136,181.764781832695 -131.7230872597904,301.60969293117523 -281.4084136913704,222.71179312467575 c-35.924478343579196,-17.976736664772034 -94.80070674000066,-77.89919221401215 -124.73777202631666,-126.83586424589157 l-21.953847876631734,-34.95476573705673 l6.9853152334737345,39.94830369949341 c2.9937065286316,21.971567034721375 8.981119585894799,48.936672031879425 11.9748261145264,58.92374795675278 c4.9895108810526665,16.9780290722847 0.9979021762105332,17.976736664772034 -42.90979357705293,11.984491109848022 l-47.8993044581056,-5.992245554924011 l41.9118914008424,42.944426476955414 c86.81748933031639,87.8862681388855 212.5531635328436,141.8164781332016 306.3559680966337,129.83198702335358 c21.953847876631734,-2.9961227774620056 62.867837101263596,-15.979321479797363 91.80700021136906,-28.96252018213272 zm-715.4958603429523,-784.9841676950455 c123.73986985010613,-47.93796443939209 137.7105003170536,-57.92504036426544 84.82168497789533,-57.92504036426544 c-61.869934925053066,0 -72.84685886336894,-11.984491109848022 -52.88881533915827,-51.93279480934143 c8.981119585894799,-17.976736664772034 37.92028269600027,-62.91857832670212 64.86364145368466,-99.87075924873352 l48.89720663431613,-65.91470110416412 l45.90350010568453,51.93279480934143 c71.84895668715839,81.89402258396149 145.69371772673787,182.76348942518234 173.63497866063278,237.69240701198578 c13.970630466947467,26.96510499715805 26.9433587576844,47.93796443939209 28.939163110105465,45.94054925441742 c2.9937065286316,-1.9974151849746704 0,-33.9560581445694 -5.9874130572632,-71.90694665908813 c-5.9874130572632,-36.9521809220314 -7.983217409684266,-69.90953147411346 -4.9895108810526665,-72.90565425157547 c2.9937065286316,-2.9961227774620056 30.934967462526533,-0.9987075924873352 61.869934925053066,5.992245554924011 c31.932869638737063,5.992245554924011 58.87622839642147,9.987075924873352 59.874130572632,7.989660739898682 c1.9958043524210667,-0.9987075924873352 -31.932869638737063,-28.96252018213272 -74.84266321579,-59.92245554924011 c-43.90769575326347,-31.958642959594727 -128.72938073115878,-104.8642972111702 -189.60141348000133,-162.78933757543564 c-104.779728502106,-97.87334406375885 -130.72518508357987,-116.84878832101822 -130.72518508357987,-93.87851369380951 c0,5.992245554924011 -32.9307718149476,66.91340869665146 -71.84895668715839,136.82294017076492 l-72.84685886336894,126.83586424589157 l-13.970630466947467,-36.9521809220314 c-6.9853152334737345,-19.974151849746704 -15.966434819368532,-36.9521809220314 -19.958043524210666,-36.9521809220314 c-4.9895108810526665,0 -77.8363697444216,201.7389336824417 -88.81329368273745,246.6807753443718 c-2.9937065286316,9.987075924873352 2.9937065286316,10.985783517360687 24.947554405263332,1.9974151849746704 c14.968532643158,-5.992245554924011 74.84266321579,-28.96252018213272 132.7209894360009,-50.934087216854095 z" id="svg_2" stroke="#eb1a1a" stroke-opacity="1" fill="#484848" fill-opacity="1" filter="" opacity="1"/>
<path d="M3614.4053302700986,11014.901947737626 l0,-62.91857832670212 l82.82588062547426,-5.992245554924011 c44.905597929474,-3.994830369949341 111.76504373557974,-6.9909531474113455 149.68532643158,-6.9909531474113455 l66.85944580610574,0 l0,69.90953147411346 l0,69.90953147411346 l-149.68532643158,0 l-149.68532643158,0 l0,-63.91728591918945 z" id="svg_3" stroke="#eb1a1a" stroke-opacity="1" fill="#484848" fill-opacity="1" filter="" opacity="1"/>
<path d="M3604.426308507993,10621.411156297616 l0,-118.84620350599289 l106.77553285452706,-5.992245554924011 c57.87832622021093,-3.994830369949341 125.73567420252719,-6.9909531474113455 149.68532643158,-6.9909531474113455 l42.90979357705293,0 l0,124.8384490609169 l0,124.8384490609169 l-149.68532643158,0 l-149.68532643158,0 l0,-117.84749591350555 zm254.465054933686,66.91340869665146 c4.9895108810526665,-4.993537962436676 -39.91608704842133,-8.988368332386017 -107.7734350307376,-8.988368332386017 c-99.79021762105333,0 -116.75455461663239,1.9974151849746704 -116.75455461663239,15.979321479797363 c0,12.983198702335358 13.970630466947467,13.981906294822693 107.7734350307376,7.989660739898682 c58.87622839642147,-2.9961227774620056 110.7671415593692,-9.987075924873352 116.75455461663239,-14.980613887310028 zm-44.905597929474,-37.95088851451874 c0,-5.992245554924011 -3.991608704842133,-12.983198702335358 -9.979021762105333,-15.979321479797363 c-13.970630466947467,-8.988368332386017 -179.622391717896,5.992245554924011 -179.622391717896,15.979321479797363 c0,4.993537962436676 42.90979357705293,8.988368332386017 94.80070674000066,8.988368332386017 c52.88881533915827,0 94.80070674000066,-3.994830369949341 94.80070674000066,-8.988368332386017 zm-56.8804240440004,-45.94054925441742 c-3.991608704842133,-14.980613887310028 -124.73777202631666,-12.983198702335358 -130.72518508357987,2.9961227774620056 c-2.9937065286316,9.987075924873352 11.9748261145264,11.984491109848022 64.86364145368466,9.987075924873352 c38.9181848722108,-1.9974151849746704 66.85944580610574,-6.9909531474113455 65.8615436298952,-12.983198702335358 zm17.962239171789598,-34.95476573705673 c45.90350010568453,0 78.83427192063213,-3.994830369949341 78.83427192063213,-9.987075924873352 c0,-5.992245554924011 -44.905597929474,-9.987075924873352 -114.75875026421133,-9.987075924873352 c-62.867837101263596,0 -114.75875026421133,3.994830369949341 -114.75875026421133,7.989660739898682 c0,16.9780290722847 15.966434819368532,22.97027462720871 43.90769575326347,17.976736664772034 c15.966434819368532,-2.9961227774620056 63.86573927747413,-5.992245554924011 106.77553285452706,-5.992245554924011 z" id="svg_4" stroke="#eb1a1a" stroke-opacity="1" fill="#484848" fill-opacity="1" filter="" opacity="1"/>
<path d="M2696.3353281564077,10400.696778357915 c-108.77133720694813,-34.95476573705673 -200.5783374183172,-113.85266554355621 -252.4692505812649,-219.71567034721375 c-26.9433587576844,-53.9302099943161 -31.932869638737063,-77.89919221401215 -34.926576167368665,-155.7983844280243 c-2.9937065286316,-69.90953147411346 0,-105.86300480365753 12.972728290736931,-145.81130850315094 c50.893010986737195,-156.79709202051163 173.63497866063278,-261.6613892316818 339.2867399115813,-289.6252018213272 c230.5154027046332,-39.94830369949341 457.0391967044242,140.81777054071426 472.00772934758226,376.5127623677254 l4.9895108810526665,72.90565425157547 l33.92867399115813,2.9961227774620056 l33.92867399115813,2.9961227774620056 l-62.867837101263596,92.87980610132217 c-33.92867399115813,49.93537962436676 -64.86364145368466,91.88109850883484 -68.8552501585268,91.88109850883484 c-2.9937065286316,0 -25.945456581473863,-43.94313406944275 -50.893010986737195,-96.87463647127151 l-44.905597929474,-97.87334406375885 l39.91608704842133,-2.9961227774620056 l39.91608704842133,-2.9961227774620056 l-6.9853152334737345,-56.92633277177811 c-13.970630466947467,-130.8306946158409 -112.76294591179025,-252.6730208992958 -232.51120705705426,-287.62778663635254 c-163.65595689852748,-47.93796443939209 -327.31191379705496,26.96510499715805 -401.1566748366344,184.760904610157 c-33.92867399115813,73.9043618440628 -35.924478343579196,190.75315016508102 -3.991608704842133,262.66009682416916 c77.8363697444216,171.77770590782166 283.40421804379145,249.6768981218338 446.0622727661084,168.78158313035965 c34.926576167368665,-16.9780290722847 81.82797844926374,-50.934087216854095 104.779728502106,-75.90177702903748 l40.91398922463187,-43.94313406944275 l20.9559457004212,40.94701129198074 l21.953847876631734,41.94571888446808 l-50.893010986737195,46.939256846904755 c-107.7734350307376,99.87075924873352 -263.4461745195808,134.82552498579025 -401.1566748366344,89.88368332386017 z" id="svg_5" stroke="#eb1a1a" stroke-opacity="1" fill="#484848" fill-opacity="1" filter="" opacity="1"/>
<path d="M2774.171697900829,10239.904855967454 c-20.9559457004212,-3.994830369949341 -58.87622839642147,-19.974151849746704 -84.82168497789533,-35.95347332954407 c-157.66854384126427,-97.87334406375885 -145.69371772673787,-339.56058144569397 20.9559457004212,-425.4494343996048 c57.87832622021093,-30.95993536710739 165.6517612509485,-30.95993536710739 221.5342831187384,-0.9987075924873352 c143.69791337431678,75.90177702903748 177.6265873654749,261.6613892316818 71.84895668715839,387.49854588508606 c-48.89720663431613,57.92504036426544 -149.68532643158,90.8823909163475 -229.51750052842266,74.90306943655014 z" id="svg_6" stroke="#eb1a1a" stroke-opacity="1" fill="#484848" fill-opacity="1" filter="" opacity="1"/>
<path d="M3897.8095483138895,10229.91778004258 c-67.85734798231626,-13.981906294822693 -110.7671415593692,-35.95347332954407 -162.6580547223169,-84.89014536142349 c-205.56784829936987,-192.7505653500557 -64.86364145368466,-544.2956379055977 218.54057659010678,-544.2956379055977 c92.8049023875796,0 203.57204394694878,55.92762517929077 253.46715275747547,128.83327943086624 c45.90350010568453,65.91470110416412 58.87622839642147,110.85654276609421 58.87622839642147,198.7428109049797 c0,72.90565425157547 1.9958043524210667,81.89402258396149 17.962239171789598,81.89402258396149 c28.939163110105465,0 22.951750052842264,10.985783517360687 -39.91608704842133,73.9043618440628 l-58.87622839642147,57.92504036426544 l-15.966434819368532,-55.92762517929077 c-8.981119585894799,-29.961227774620056 -18.960141348000136,-67.9121162891388 -21.953847876631734,-83.89143776893616 c-5.9874130572632,-26.96510499715805 -3.991608704842133,-28.96252018213272 24.947554405263332,-23.968982219696045 l30.934967462526533,3.994830369949341 l0,-51.93279480934143 c0,-28.96252018213272 -4.9895108810526665,-69.90953147411346 -11.9748261145264,-91.88109850883484 c-12.972728290736931,-44.941841661930084 -76.83846756821106,-121.8423262834549 -117.75245679284293,-142.81518572568893 c-166.64966342715908,-85.88885295391083 -369.2238051978973,30.95993536710739 -369.2238051978973,213.72342479228973 c0,77.89919221401215 13.970630466947467,120.84361869096756 55.88252186778987,168.78158313035965 c85.81958715410586,100.86946684122086 224.52798964737,119.84491109848022 332.3014246781076,47.93796443939209 l48.89720663431613,-32.95735055208206 l9.979021762105333,33.9560581445694 c9.979021762105333,31.958642959594727 8.981119585894799,33.9560581445694 -30.934967462526533,56.92633277177811 c-77.8363697444216,45.94054925441742 -149.68532643158,59.92245554924011 -222.5321852949489,45.94054925441742 z" id="svg_7" stroke="#eb1a1a" stroke-opacity="1" fill="#484848" fill-opacity="1" filter="" opacity="1"/>
<path d="M3878.8494069658896,10086.103886724404 c-70.85105451094786,-31.958642959594727 -121.74406549768506,-118.84620350599289 -110.7671415593692,-188.75573498010635 c15.966434819368532,-99.87075924873352 80.8300762730532,-158.7945072054863 179.622391717896,-164.7867527604103 c52.88881533915827,-2.9961227774620056 65.8615436298952,0 103.78182632589545,24.96768981218338 c43.90769575326347,28.96252018213272 91.80700021136906,105.86300480365753 91.80700021136906,146.81001609563828 c0,70.9082390666008 -54.88461969157933,156.79709202051163 -116.75455461663239,181.764781832695 c-40.91398922463187,17.976736664772034 -108.77133720694813,16.9780290722847 -147.6895220791589,0 z" id="svg_8" stroke="#eb1a1a" stroke-opacity="1" fill="#484848" fill-opacity="1" filter="" opacity="1"/>
<path d="M3457.7346886050445,9382.015034020833 c-59.874130572632,-14.980613887310028 -123.73986985010613,-70.9082390666008 -149.68532643158,-130.8306946158409 c-19.958043524210666,-44.941841661930084 -19.958043524210666,-134.82552498579025 0,-179.76736664772034 c51.890913162947726,-114.85137313604355 191.5972178324224,-171.77770590782166 301.366457215581,-120.84361869096756 c72.84685886336894,32.95735055208206 134.716793788422,112.85395795106888 134.716793788422,172.776413500309 c0,10.985783517360687 8.981119585894799,21.971567034721375 19.958043524210666,24.96768981218338 c10.976923938315867,2.9961227774620056 19.958043524210666,6.9909531474113455 19.958043524210666,8.988368332386017 c0,6.9909531474113455 -51.890913162947726,103.86558961868286 -54.88461969157933,103.86558961868286 c-4.9895108810526665,0 -64.86364145368466,-95.87592887878418 -64.86364145368466,-103.86558961868286 c0,-3.994830369949341 3.991608704842133,-4.993537962436676 7.983217409684266,-1.9974151849746704 c3.991608704842133,1.9974151849746704 13.970630466947467,0.9987075924873352 20.9559457004212,-2.9961227774620056 c10.976923938315867,-6.9909531474113455 10.976923938315867,-15.979321479797363 1.9958043524210667,-43.94313406944275 c-28.939163110105465,-86.88756054639816 -99.79021762105333,-132.82810980081558 -192.5951200086329,-123.83974146842957 c-220.53638094252787,19.974151849746704 -220.53638094252787,333.56833589076996 0,353.54248774051666 c68.8552501585268,5.992245554924011 126.73357637873774,-17.976736664772034 161.6601525461064,-66.91340869665146 c21.953847876631734,-30.95993536710739 21.953847876631734,-30.95993536710739 36.922380519789726,-10.985783517360687 c11.9748261145264,17.976736664772034 10.976923938315867,23.968982219696045 -7.983217409684266,50.934087216854095 c-42.90979357705293,57.92504036426544 -154.67483731263266,91.88109850883484 -235.50491358568587,70.9082390666008 z" id="svg_9" stroke="#eb1a1a" stroke-opacity="1" fill="#484848" fill-opacity="1" filter="" opacity="1"/>
<path d="M3452.7451777239917,9276.152029217175 c-34.926576167368665,-19.974151849746704 -67.85734798231626,-74.90306943655014 -67.85734798231626,-115.85008072853088 c0,-76.90048462152481 73.84476103957945,-143.81389331817627 147.6895220791589,-134.82552498579025 c82.82588062547426,10.985783517360687 128.72938073115878,69.90953147411346 118.75035896905345,154.79967683553696 c-3.991608704842133,37.95088851451874 -11.9748261145264,50.934087216854095 -43.90769575326347,77.89919221401215 c-30.934967462526533,26.96510499715805 -46.901402281895066,32.95735055208206 -82.82588062547426,31.958642959594727 c-24.947554405263332,0 -56.8804240440004,-5.992245554924011 -71.84895668715839,-13.981906294822693 z" id="svg_10" stroke="#eb1a1a" stroke-opacity="1" fill="#484848" fill-opacity="1" filter="" opacity="1"/>
<path d="M5063.359290127793,10571.47577667325 c-135.7146959646325,-48.936672031879425 -214.54896788526466,-175.772536277771 -197.5846308896856,-315.5915992259979 c3.991608704842133,-27.963812589645386 22.951750052842264,-108.85912758111954 41.9118914008424,-180.76607424020767 c28.939163110105465,-103.86558961868286 34.926576167368665,-139.81906294822693 29.937065286316,-181.764781832695 c-5.9874130572632,-48.936672031879425 -3.991608704842133,-52.931502401828766 23.9496522290528,-72.90565425157547 l29.937065286316,-20.97285944223404 l9.979021762105333,24.96768981218338 c19.958043524210666,53.9302099943161 30.934967462526533,192.7505653500557 20.9559457004212,280.6368334889412 c-5.9874130572632,51.93279480934143 -6.9853152334737345,94.87722128629684 -0.9979021762105332,109.85783517360687 c11.9748261145264,29.961227774620056 44.905597929474,47.93796443939209 72.84685886336894,38.94959610700607 c11.9748261145264,-3.994830369949341 48.89720663431613,-7.989660739898682 81.82797844926374,-9.987075924873352 c75.84056539200054,-1.9974151849746704 71.84895668715839,-0.9987075924873352 78.83427192063213,-19.974151849746704 c3.991608704842133,-11.984491109848022 0.9979021762105332,-13.981906294822693 -13.970630466947467,-8.988368332386017 c-11.9748261145264,3.994830369949341 -25.945456581473863,-0.9987075924873352 -38.9181848722108,-13.981906294822693 c-24.947554405263332,-24.96768981218338 -40.91398922463187,-26.96510499715805 -40.91398922463187,-5.992245554924011 c0,17.976736664772034 -20.9559457004212,19.974151849746704 -38.9181848722108,2.9961227774620056 c-9.979021762105333,-10.985783517360687 -15.966434819368532,-7.989660739898682 -31.932869638737063,11.984491109848022 c-18.960141348000136,24.96768981218338 -18.960141348000136,24.96768981218338 -34.926576167368665,4.993537962436676 c-7.983217409684266,-10.985783517360687 -12.972728290736931,-28.96252018213272 -9.979021762105333,-39.94830369949341 c2.9937065286316,-10.985783517360687 7.983217409684266,-62.91857832670212 10.976923938315867,-114.85137313604355 c5.9874130572632,-88.88497573137283 -5.9874130572632,-190.75315016508102 -29.937065286316,-251.67431330680847 c-4.9895108810526665,-12.983198702335358 1.9958043524210667,-18.97544425725937 31.932869638737063,-26.96510499715805 c20.9559457004212,-5.992245554924011 54.88461969157933,-10.985783517360687 75.84056539200054,-10.985783517360687 c35.924478343579196,0 37.92028269600027,1.9974151849746704 61.869934925053066,55.92762517929077 c17.962239171789598,40.94701129198074 55.88252186778987,87.8862681388855 138.70840249326412,173.77512109279633 c133.71889161221148,139.81906294822693 159.66434819368533,185.75961220264435 158.66644601747478,279.63812589645386 c0,83.89143776893616 -29.937065286316,152.8022616505623 -90.80909803515854,212.7247171998024 c-25.945456581473863,24.96768981218338 -68.8552501585268,55.92762517929077 -96.79651109242174,67.9121162891388 c-69.85315233473733,30.95993536710739 -173.63497866063278,34.95476573705673 -242.4902288191596,10.985783517360687 zm232.51120705705426,-286.6290790438652 c28.939163110105465,-48.936672031879425 32.9307718149476,-119.84491109848022 8.981119585894799,-169.78029072284698 c-7.983217409684266,-17.976736664772034 -39.91608704842133,-55.92762517929077 -69.85315233473733,-82.89273017644882 c-29.937065286316,-27.963812589645386 -58.87622839642147,-63.91728591918945 -64.86364145368466,-80.89531499147415 c-14.968532643158,-41.94571888446808 -28.939163110105465,-38.94959610700607 -28.939163110105465,6.9909531474113455 c0,32.95735055208206 7.983217409684266,44.941841661930084 60.87203274884253,96.87463647127151 c32.9307718149476,32.95735055208206 66.85944580610574,72.90565425157547 75.84056539200054,88.88497573137283 c19.958043524210666,38.94959610700607 12.972728290736931,117.84749591350555 -15.966434819368532,155.7983844280243 c-24.947554405263332,34.95476573705673 -25.945456581473863,40.94701129198074 -5.9874130572632,33.9560581445694 c8.981119585894799,-3.994830369949341 26.9433587576844,-24.96768981218338 39.91608704842133,-48.936672031879425 z" id="svg_11" stroke="#eb1a1a" stroke-opacity="1" fill="#484848" fill-opacity="1" filter="" opacity="1"/>
<path d="M4240.089994754102,9185.269638300828 c-33.92867399115813,-9.987075924873352 -66.85944580610574,-32.95735055208206 -106.77553285452706,-71.90694665908813 c-47.8993044581056,-46.939256846904755 -60.87203274884253,-67.9121162891388 -74.84266321579,-115.85008072853088 c-61.869934925053066,-213.72342479228973 130.72518508357987,-409.47011291980743 343.27834861642344,-349.5476573705673 c110.7671415593692,30.95993536710739 187.60560912758027,122.84103387594223 204.56994612315933,245.68206775188446 c4.9895108810526665,35.95347332954407 11.9748261145264,46.939256846904755 26.9433587576844,49.93537962436676 c17.962239171789598,2.9961227774620056 15.966434819368532,7.989660739898682 -16.964336995579064,57.92504036426544 c-19.958043524210666,29.961227774620056 -39.91608704842133,58.92374795675278 -44.905597929474,63.91728591918945 c-6.9853152334737345,7.989660739898682 -48.89720663431613,-64.91599351167679 -62.867837101263596,-110.85654276609421 c-5.9874130572632,-19.974151849746704 -3.991608704842133,-22.97027462720871 19.958043524210666,-22.97027462720871 c25.945456581473863,0 25.945456581473863,-1.9974151849746704 19.958043524210666,-40.94701129198074 c-28.939163110105465,-181.764781832695 -234.50701140947533,-260.6626816391945 -367.22800084547623,-140.81777054071426 c-100.78811979726386,90.8823909163475 -104.779728502106,227.70533108711243 -8.981119585894799,322.58255237340927 c88.81329368273745,89.88368332386017 208.56155482800148,91.88109850883484 305.3580659204232,5.992245554924011 l44.905597929474,-37.95088851451874 l11.9748261145264,24.96768981218338 c9.979021762105333,22.97027462720871 7.983217409684266,29.961227774620056 -15.966434819368532,54.928917586803436 c-61.869934925053066,63.91728591918945 -188.60351130379078,93.87851369380951 -278.4147071627388,64.91599351167679 z" id="svg_12" stroke="#eb1a1a" stroke-opacity="1" fill="#484848" fill-opacity="1" filter="" opacity="1"/>
<path d="M4257.054331749681,9062.428604424886 c-61.869934925053066,-27.963812589645386 -88.81329368273745,-72.90565425157547 -88.81329368273745,-147.8087236881256 c0,-68.91082388162613 16.964336995579064,-100.86946684122086 74.84266321579,-139.81906294822693 c67.85734798231626,-46.939256846904755 168.64546777958012,-23.968982219696045 223.53008747115948,49.93537962436676 c30.934967462526533,41.94571888446808 29.937065286316,139.81906294822693 -2.9937065286316,185.75961220264435 c-26.9433587576844,36.9521809220314 -90.80909803515854,70.9082390666008 -135.7146959646325,70.9082390666008 c-15.966434819368532,0 -47.8993044581056,-8.988368332386017 -70.85105451094786,-18.97544425725937 z" id="svg_13" stroke="#eb1a1a" stroke-opacity="1" fill="#484848" fill-opacity="1" filter="" opacity="1"/>
<path d="M4573.38932160842,8613.010187805585 c-9.979021762105333,-5.992245554924011 -11.9748261145264,-21.971567034721375 -8.981119585894799,-55.92762517929077 l5.9874130572632,-45.94054925441742 l-51.890913162947726,-22.97027462720871 l-50.893010986737195,-22.97027462720871 l-29.937065286316,34.95476573705673 c-36.922380519789726,40.94701129198074 -66.85944580610574,37.95088851451874 -83.8237828016848,-7.989660739898682 c-9.979021762105333,-28.96252018213272 -8.981119585894799,-29.961227774620056 18.960141348000136,-29.961227774620056 c23.9496522290528,0 29.937065286316,-4.993537962436676 34.926576167368665,-30.95993536710739 c9.979021762105333,-45.94054925441742 43.90769575326347,-54.928917586803436 74.84266321579,-19.974151849746704 l24.947554405263332,27.963812589645386 l43.90769575326347,-17.976736664772034 c41.9118914008424,-18.97544425725937 42.90979357705293,-19.974151849746704 37.92028269600027,-55.92762517929077 c-6.9853152334737345,-38.94959610700607 4.9895108810526665,-62.91857832670212 29.937065286316,-62.91857832670212 c10.976923938315867,0 13.970630466947467,6.9909531474113455 9.979021762105333,21.971567034721375 c-3.991608704842133,11.984491109848022 -0.9979021762105332,27.963812589645386 3.991608704842133,34.95476573705673 c11.9748261145264,13.981906294822693 3.991608704842133,32.95735055208206 -15.966434819368532,32.95735055208206 c-28.939163110105465,0 -32.9307718149476,54.928917586803436 -4.9895108810526665,62.91857832670212 c22.951750052842264,5.992245554924011 26.9433587576844,31.958642959594727 4.9895108810526665,40.94701129198074 c-22.951750052842264,7.989660739898682 2.9937065286316,58.92374795675278 26.9433587576844,52.931502401828766 c43.90769575326347,-11.984491109848022 30.934967462526533,45.94054925441742 -13.970630466947467,61.91987073421478 c-36.922380519789726,12.983198702335358 -38.9181848722108,12.983198702335358 -56.8804240440004,1.9974151849746704 z" id="svg_14" stroke="#eb1a1a" stroke-opacity="1" fill="#484848" fill-opacity="1" filter="" opacity="1"/>
<path d="M4722.076745863789,8535.110995591573 c-97.79441326863225,-87.8862681388855 -11.9748261145264,-246.6807753443718 112.76294591179025,-211.72600960731506 c49.895108810526665,13.981906294822693 78.83427192063213,50.934087216854095 87.81539150652694,111.85525035858154 c5.9874130572632,42.944426476955414 3.991608704842133,54.928917586803436 -10.976923938315867,70.9082390666008 c-17.962239171789598,18.97544425725937 -18.960141348000136,18.97544425725937 -25.945456581473863,-8.988368332386017 c-4.9895108810526665,-18.97544425725937 -2.9937065286316,-29.961227774620056 3.991608704842133,-32.95735055208206 c29.937065286316,-9.987075924873352 1.9958043524210667,-85.88885295391083 -38.9181848722108,-107.8604199886322 c-70.85105451094786,-35.95347332954407 -148.68742425536948,10.985783517360687 -148.68742425536948,91.88109850883484 c0,32.95735055208206 58.87622839642147,93.87851369380951 91.80700021136906,93.87851369380951 c11.9748261145264,0 35.924478343579196,-6.9909531474113455 51.890913162947726,-14.980613887310028 c34.926576167368665,-17.976736664772034 35.924478343579196,-17.976736664772034 35.924478343579196,0 c0,20.97285944223404 -32.9307718149476,34.95476573705673 -83.8237828016848,34.95476573705673 c-35.924478343579196,0 -51.890913162947726,-5.992245554924011 -75.84056539200054,-26.96510499715805 z" id="svg_15" stroke="#eb1a1a" stroke-opacity="1" fill="#484848" fill-opacity="1" filter="" opacity="1"/>
<path d="M4752.0138111501055,8492.166569114617 c-25.945456581473863,-25.966397404670715 -25.945456581473863,-80.89531499147415 0,-104.8642972111702 c45.90350010568453,-41.94571888446808 119.748261145264,-9.987075924873352 119.748261145264,51.93279480934143 c0,41.94571888446808 -29.937065286316,72.90565425157547 -69.85315233473733,72.90565425157547 c-16.964336995579064,0 -38.9181848722108,-8.988368332386017 -49.895108810526665,-19.974151849746704 z" id="svg_16" stroke="#eb1a1a" stroke-opacity="1" fill="#484848" fill-opacity="1" filter="" opacity="1"/>
<path d="M4299.964125326735,8288.4302202472 c-93.80280456379013,-33.9560581445694 -156.67064166505372,-123.83974146842957 -156.67064166505372,-224.70920830965042 c0.9979021762105332,-203.73634886741638 236.5028157618964,-314.5928916335106 389.181848722108,-182.76348942518234 c57.87832622021093,48.936672031879425 82.82588062547426,102.86688202619553 85.81958715410586,180.76607424020767 c0.9979021762105332,40.94701129198074 5.9874130572632,65.91470110416412 14.968532643158,71.90694665908813 c10.976923938315867,5.992245554924011 4.9895108810526665,16.9780290722847 -25.945456581473863,48.936672031879425 c-20.9559457004212,21.971567034721375 -41.9118914008424,39.94830369949341 -45.90350010568453,39.94830369949341 c-5.9874130572632,0 -38.9181848722108,-95.87592887878418 -38.9181848722108,-111.85525035858154 c0,-2.9961227774620056 9.979021762105333,-3.994830369949341 22.951750052842264,-3.994830369949341 c16.964336995579064,0.9987075924873352 22.951750052842264,-4.993537962436676 24.947554405263332,-28.96252018213272 c4.9895108810526665,-40.94701129198074 -13.970630466947467,-98.87205165624619 -44.905597929474,-134.82552498579025 c-82.82588062547426,-98.87205165624619 -234.50701140947533,-89.88368332386017 -304.3601637442126,18.97544425725937 c-25.945456581473863,40.94701129198074 -28.939163110105465,52.931502401828766 -25.945456581473863,106.86171239614487 c4.9895108810526665,79.89660739898682 37.92028269600027,132.82810980081558 102.78392414968494,163.78804516792297 c60.87203274884253,29.961227774620056 139.70630466947466,23.968982219696045 189.60141348000133,-14.980613887310028 l33.92867399115813,-25.966397404670715 l6.9853152334737345,26.96510499715805 c4.9895108810526665,20.97285944223404 1.9958043524210667,30.95993536710739 -15.966434819368532,43.94313406944275 c-51.890913162947726,38.94959610700607 -143.69791337431678,49.93537962436676 -212.5531635328436,25.966397404670715 z" id="svg_17" stroke="#eb1a1a" stroke-opacity="1" fill="#484848" fill-opacity="1" filter="" opacity="1"/>
<path d="M4317.926364498524,8186.562045813493 c-42.90979357705293,-20.97285944223404 -67.85734798231626,-59.92245554924011 -72.84685886336894,-113.85266554355621 c-7.983217409684266,-86.88756054639816 48.89720663431613,-149.80613887310028 136.71259814084308,-149.80613887310028 c143.69791337431678,0 192.5951200086329,183.76219701766968 68.8552501585268,259.66397404670715 c-38.9181848722108,23.968982219696045 -91.80700021136906,24.96768981218338 -132.7209894360009,3.994830369949341 z" id="svg_18" stroke="#eb1a1a" stroke-opacity="1" fill="#484848" fill-opacity="1" filter="" opacity="1"/>
<path d="M2558.6248278393537,8986.526827395848 c-24.947554405263332,-31.958642959594727 -58.87622839642147,-131.82940220832825 -67.85734798231626,-200.74022608995438 c-12.972728290736931,-107.8604199886322 34.926576167368665,-264.65751200914383 124.73777202631666,-403.4778673648834 c49.895108810526665,-75.90177702903748 75.84056539200054,-156.79709202051163 66.85944580610574,-209.7285944223404 c-2.9937065286316,-20.97285944223404 -21.953847876631734,-77.89919221401215 -40.91398922463187,-127.8345718383789 c-37.92028269600027,-97.87334406375885 -41.9118914008424,-120.84361869096756 -22.951750052842264,-139.81906294822693 c18.960141348000136,-18.97544425725937 45.90350010568453,3.994830369949341 76.83846756821106,65.91470110416412 c46.901402281895066,92.87980610132217 63.86573927747413,164.7867527604103 58.87622839642147,248.67819052934647 c-4.9895108810526665,67.9121162891388 -10.976923938315867,84.89014536142349 -92.8049023875796,246.6807753443718 c-78.83427192063213,156.79709202051163 -87.81539150652694,178.768659055233 -91.80700021136906,242.68594497442245 c-5.9874130572632,77.89919221401215 6.9853152334737345,150.80484646558762 37.92028269600027,216.71954756975174 c10.976923938315867,24.96768981218338 18.960141348000136,52.931502401828766 16.964336995579064,62.91857832670212 c-4.9895108810526665,28.96252018213272 -42.90979357705293,27.963812589645386 -65.8615436298952,-1.9974151849746704 z" id="svg_19" stroke="#eb1a1a" stroke-opacity="1" fill="#484848" fill-opacity="1" filter="" opacity="1"/>
<path d="M3599.4367976269405,8639.975292802743 c-36.922380519789726,-12.983198702335358 -81.82797844926374,-52.931502401828766 -101.78602197347439,-91.88109850883484 c-18.960141348000136,-36.9521809220314 -18.960141348000136,-115.85008072853088 0.9979021762105332,-153.80096924304962 c32.9307718149476,-63.91728591918945 121.74406549768506,-109.85783517360687 182.6160982465276,-95.87592887878418 c90.80909803515854,20.97285944223404 143.69791337431678,82.89273017644882 146.6916199029484,166.78416794538498 c0,28.96252018213272 4.9895108810526665,54.928917586803436 10.976923938315867,58.92374795675278 c5.9874130572632,3.994830369949341 -2.9937065286316,19.974151849746704 -19.958043524210666,37.95088851451874 l-29.937065286316,30.95993536710739 l-11.9748261145264,-27.963812589645386 c-16.964336995579064,-39.94830369949341 -15.966434819368532,-63.91728591918945 1.9958043524210667,-56.92633277177811 c11.9748261145264,4.993537962436676 14.968532643158,-2.9961227774620056 14.968532643158,-40.94701129198074 c0,-41.94571888446808 -4.9895108810526665,-51.93279480934143 -37.92028269600027,-85.88885295391083 c-42.90979357705293,-41.94571888446808 -75.84056539200054,-53.9302099943161 -126.73357637873774,-44.941841661930084 c-71.84895668715839,13.981906294822693 -123.73986985010613,88.88497573137283 -110.7671415593692,160.79192239046097 c17.962239171789598,94.87722128629684 129.72728290736933,144.8126009106636 210.5573591804225,94.87722128629684 c31.932869638737063,-19.974151849746704 32.9307718149476,-19.974151849746704 37.92028269600027,0 c3.991608704842133,14.980613887310028 -3.991608704842133,23.968982219696045 -36.922380519789726,39.94830369949341 c-45.90350010568453,21.971567034721375 -83.8237828016848,23.968982219696045 -130.72518508357987,7.989660739898682 z" id="svg_20" stroke="#eb1a1a" stroke-opacity="1" fill="#484848" fill-opacity="1" filter="" opacity="1"/>
<path d="M3583.4703628075717,8543.100656331471 c-64.86364145368466,-65.91470110416412 -19.958043524210666,-170.77899831533432 72.84685886336894,-170.77899831533432 c35.924478343579196,0 49.895108810526665,5.992245554924011 72.84685886336894,29.961227774620056 c63.86573927747413,66.91340869665146 19.958043524210666,169.78029072284698 -72.84685886336894,169.78029072284698 c-34.926576167368665,0 -48.89720663431613,-5.992245554924011 -72.84685886336894,-28.96252018213272 z" id="svg_21" stroke="#eb1a1a" stroke-opacity="1" fill="#484848" fill-opacity="1" filter="" opacity="1"/>
</g></g><style xmlns="http://www.w3.org/1999/xhtml">@import url(http://fonts.googleapis.com/css?family=Abel);</style><defs><filter id="f011" xmlns:inkscape="http://www.inkscape.org/namespaces/inkscape" inkscape:label="Ink bleed" inkscape:menu="Protrusions" inkscape:menu-tooltip="Inky splotches underneath the object" color-interpolation-filters="sRGB">
            <feGaussianBlur result="result1" in="SourceGraphic" stdDeviation="1.3"/>
            <feTurbulence result="result0" numOctaves="4" baseFrequency=".034"/>
            <feDisplacementMap result="result2" scale="19.6" yChannelSelector="G" xChannelSelector="R" in="result1" in2="result0"/>
            <feColorMatrix values="2 0 0 0 0 0 2 0 0 0 0 0 2 0 0 0 0 0 0.7 0" result="result3"/>
            <feGaussianBlur result="result4" in="SourceGraphic" stdDeviation="1.1"/>
            <feComposite in="result4" in2="result3"/>
        </filter></defs></svg>